200.ufo
<glyph name="exclam" format="2">
  <advance width="273"/>
  <unicode hex="0021"/>
  <outline>
    <contour>
      <point x="117" y="700" type="line"/>
      <point x="156" y="700" type="line"/>
      <point x="148" y="200" type="line"/>
      <point x="126" y="200" type="line"/>
    </contour>
    <contour>
      <point x="112" y="12" type="curve" smooth="yes"/>
      <point x="112" y="26"/>
      <point x="123" y="37"/>
      <point x="136" y="37" type="curve" smooth="yes"/>
      <point x="149" y="37"/>
      <point x="161" y="26"/>
      <point x="161" y="12" type="curve" smooth="yes"/>
      <point x="161" y="-2"/>
      <point x="149" y="-12"/>
      <point x="136" y="-12" type="curve" smooth="yes"/>
      <point x="123" y="-12"/>
      <point x="112" y="-2"/>
    </contour>
  </outline>
</glyph>
<glyph name="quotedbl" format="2">
  <advance width="421"/>
  <unicode hex="0022"/>
  <outline>
    <contour>
      <point x="137" y="700" type="line"/>
      <point x="174" y="700" type="line"/>
      <point x="108" y="414" type="line"/>
      <point x="87" y="414" type="line"/>
    </contour>
    <contour>
      <point x="317" y="700" type="line"/>
      <point x="354" y="700" type="line"/>
      <point x="288" y="414" type="line"/>
      <point x="267" y="414" type="line"/>
    </contour>
  </outline>
</glyph>
<glyph name="numbersign" format="2">
  <advance width="581"/>
  <unicode hex="0023"/>
  <outline>
    <contour>
      <point x="75" y="450" type="line"/>
      <point x="75" y="477" type="line"/>
      <point x="546" y="477" type="line"/>
      <point x="546" y="450" type="line"/>
      <point x="423" y="450" type="line" smooth="yes"/>
      <point x="416" y="450" type="line" smooth="yes"/>
      <point x="213" y="450" type="line" smooth="yes"/>
      <point x="206" y="450" type="line" smooth="yes"/>
    </contour>
    <contour>
      <point x="35" y="228" type="line"/>
      <point x="35" y="255" type="line"/>
      <point x="158" y="255" type="line" smooth="yes"/>
      <point x="166" y="255" type="line" smooth="yes"/>
      <point x="368" y="255" type="line" smooth="yes"/>
      <point x="379" y="255" type="line" smooth="yes"/>
      <point x="506" y="255" type="line"/>
      <point x="506" y="228" type="line"/>
    </contour>
    <contour>
      <point x="466" y="700" type="line"/>
      <point x="496" y="700" type="line"/>
      <point x="326" y="0" type="line"/>
      <point x="296" y="0" type="line"/>
      <point x="354" y="239" type="line" smooth="yes"/>
      <point x="356" y="246" type="line" smooth="yes"/>
      <point x="407" y="459" type="line" smooth="yes"/>
      <point x="408" y="467" type="line" smooth="yes"/>
    </contour>
    <contour>
      <point x="256" y="700" type="line"/>
      <point x="286" y="700" type="line"/>
      <point x="229" y="468" type="line" smooth="yes"/>
      <point x="228" y="460" type="line" smooth="yes"/>
      <point x="174" y="244" type="line" smooth="yes"/>
      <point x="174" y="238" type="line" smooth="yes"/>
      <point x="116" y="0" type="line"/>
      <point x="86" y="0" type="line"/>
    </contour>
  </outline>
</glyph>
<glyph name="plus" format="2">
  <advance width="569"/>
  <unicode hex="002B"/>
  <outline>
    <contour>
      <point x="65" y="240" type="line"/>
      <point x="65" y="270" type="line"/>
      <point x="498" y="270" type="line"/>
      <point x="498" y="240" type="line"/>
    </contour>
    <contour>
      <point x="265" y="486" type="line"/>
      <point x="298" y="486" type="line"/>
      <point x="298" y="24" type="line"/>
      <point x="265" y="24" type="line"/>
    </contour>
  </outline>
</glyph>
<glyph name="period" format="2">
  <advance width="272"/>
  <unicode hex="002E"/>
  <outline>
    <contour>
      <point x="112" y="12" type="curve" smooth="yes"/>
      <point x="112" y="26"/>
      <point x="123" y="37"/>
      <point x="136" y="37" type="curve" smooth="yes"/>
      <point x="149" y="37"/>
      <point x="160" y="26"/>
      <point x="160" y="12" type="curve" smooth="yes"/>
      <point x="160" y="-2"/>
      <point x="149" y="-12"/>
      <point x="136" y="-12" type="curve" smooth="yes"/>
      <point x="123" y="-12"/>
      <point x="112" y="-2"/>
    </contour>
  </outline>
</glyph>
<glyph name="two" format="2">
  <advance width="530"/>
  <unicode hex="0032"/>
  <outline>
    <contour>
      <point x="24" y="0" type="line"/>
      <point x="347" y="340" type="line" smooth="yes"/>
      <point x="395" y="390"/>
      <point x="435" y="439"/>
      <point x="435" y="515" type="curve" smooth="yes"/>
      <point x="435" y="589"/>
      <point x="386" y="680"/>
      <point x="270" y="680" type="curve" smooth="yes"/>
      <point x="159" y="680"/>
      <point x="89" y="590"/>
      <point x="89" y="460" type="curve"/>
      <point x="56" y="460" type="line"/>
      <point x="56" y="609"/>
      <point x="139" y="711"/>
      <point x="270" y="711" type="curve" smooth="yes"/>
      <point x="410" y="711"/>
      <point x="469" y="600"/>
      <point x="469" y="516" type="curve" smooth="yes"/>
      <point x="469" y="437"/>
      <point x="425" y="375"/>
      <point x="373" y="322" type="curve" smooth="yes"/>
      <point x="94" y="31" type="line"/>
      <point x="490" y="31" type="line"/>
      <point x="490" y="0" type="line"/>
    </contour>
  </outline>
</glyph>
<glyph name="nine" format="2">
  <advance width="548"/>
  <unicode hex="0039"/>
  <outline>
    <contour>
      <point x="466" y="477" type="curve" smooth="yes"/>
      <point x="466" y="594"/>
      <point x="388" y="680"/>
      <point x="274" y="680" type="curve" smooth="yes"/>
      <point x="160" y="680"/>
      <point x="82" y="594"/>
      <point x="82" y="477" type="curve" smooth="yes"/>
      <point x="82" y="367"/>
      <point x="166" y="282"/>
      <point x="266" y="282" type="curve" smooth="yes"/>
      <point x="391" y="282"/>
      <point x="466" y="374"/>
    </contour>
    <contour>
      <point x="218" y="0" type="line"/>
      <point x="178" y="0" type="line"/>
      <point x="412" y="328" type="line"/>
      <point x="414" y="326" type="line"/>
      <point x="376" y="280"/>
      <point x="323" y="257"/>
      <point x="257" y="257" type="curve" smooth="yes"/>
      <point x="143" y="257"/>
      <point x="50" y="355"/>
      <point x="50" y="477" type="curve" smooth="yes"/>
      <point x="50" y="614"/>
      <point x="139" y="710"/>
      <point x="274" y="710" type="curve" smooth="yes"/>
      <point x="409" y="710"/>
      <point x="498" y="614"/>
      <point x="498" y="477" type="curve" smooth="yes"/>
      <point x="498" y="420"/>
      <point x="473" y="359"/>
      <point x="446" y="322" type="curve" smooth="yes"/>
    </contour>
  </outline>
</glyph>
<glyph name="equal" format="2">
  <advance width="615"/>
  <unicode hex="003D"/>
  <outline>
    <contour>
      <point x="65" y="172" type="line"/>
      <point x="65" y="201" type="line"/>
      <point x="550" y="201" type="line"/>
      <point x="550" y="172" type="line"/>
    </contour>
    <contour>
      <point x="65" y="304" type="line"/>
      <point x="65" y="334" type="line"/>
      <point x="550" y="334" type="line"/>
      <point x="550" y="304" type="line"/>
    </contour>
  </outline>
</glyph>
<glyph name="at" format="2">
  <advance width="770"/>
  <unicode hex="0040"/>
  <outline>
    <contour>
      <point x="231" y="320" type="curve" smooth="yes"/>
      <point x="231" y="243"/>
      <point x="275" y="191"/>
      <point x="341" y="191" type="curve" smooth="yes"/>
      <point x="415" y="191"/>
      <point x="482" y="264"/>
      <point x="482" y="370" type="curve" smooth="yes"/>
      <point x="482" y="440"/>
      <point x="442" y="500"/>
      <point x="378" y="500" type="curve" smooth="yes"/>
      <point x="306" y="500"/>
      <point x="231" y="438"/>
    </contour>
    <contour>
      <point x="200" y="319" type="curve" smooth="yes"/>
      <point x="200" y="458"/>
      <point x="293" y="528"/>
      <point x="378" y="528" type="curve" smooth="yes"/>
      <point x="456" y="528"/>
      <point x="500" y="454"/>
      <point x="500" y="368" type="curve" smooth="yes"/>
      <point x="500" y="250"/>
      <point x="424" y="162"/>
      <point x="336" y="162" type="curve" smooth="yes"/>
      <point x="262" y="162"/>
      <point x="200" y="220"/>
    </contour>
    <contour>
      <point x="35" y="320" type="curve" smooth="yes"/>
      <point x="35" y="539"/>
      <point x="191" y="708"/>
      <point x="415" y="708" type="curve" smooth="yes"/>
      <point x="622" y="708"/>
      <point x="735" y="549"/>
      <point x="735" y="390" type="curve" smooth="yes"/>
      <point x="735" y="224"/>
      <point x="631" y="152"/>
      <point x="556" y="152" type="curve" smooth="yes"/>
      <point x="495" y="152"/>
      <point x="464" y="204"/>
      <point x="477" y="284" type="curve"/>
      <point x="474" y="284" type="line"/>
      <point x="512" y="520" type="line"/>
      <point x="544" y="520" type="line"/>
      <point x="502" y="289" type="line" smooth="yes"/>
      <point x="501" y="282"/>
      <point x="500" y="264"/>
      <point x="500" y="256" type="curve" smooth="yes"/>
      <point x="500" y="225"/>
      <point x="508" y="179"/>
      <point x="559" y="179" type="curve" smooth="yes"/>
      <point x="619" y="179"/>
      <point x="706" y="250"/>
      <point x="706" y="390" type="curve" smooth="yes"/>
      <point x="706" y="537"/>
      <point x="604" y="682"/>
      <point x="415" y="682" type="curve" smooth="yes"/>
      <point x="205" y="682"/>
      <point x="64" y="526"/>
      <point x="64" y="320" type="curve" smooth="yes"/>
      <point x="64" y="136"/>
      <point x="174" y="18"/>
      <point x="358" y="18" type="curve" smooth="yes"/>
      <point x="456" y="18"/>
      <point x="530" y="42"/>
      <point x="588" y="75" type="curve"/>
      <point x="602" y="50" type="line"/>
      <point x="542" y="19"/>
      <point x="472" y="-8"/>
      <point x="358" y="-8" type="curve" smooth="yes"/>
      <point x="151" y="-8"/>
      <point x="35" y="121"/>
    </contour>
  </outline>
</glyph>
<glyph name="N" format="2">
  <advance width="740"/>
  <unicode hex="004E"/>
  <outline>
    <contour>
      <point x="620" y="700" type="line"/>
      <point x="653" y="700" type="line"/>
      <point x="653" y="-21" type="line"/>
      <point x="120" y="631" type="line"/>
      <point x="120" y="0" type="line"/>
      <point x="87" y="0" type="line"/>
      <point x="87" y="721" type="line"/>
      <point x="620" y="66" type="line"/>
    </contour>
  </outline>
</glyph>
<glyph name="P" format="2">
  <advance width="500"/>
  <unicode hex="0050"/>
  <outline>
    <contour>
      <point x="87" y="700" type="line"/>
      <point x="120" y="700" type="line"/>
      <point x="120" y="0" type="line"/>
      <point x="87" y="0" type="line"/>
    </contour>
    <contour>
      <point x="106" y="669" type="line"/>
      <point x="106" y="700" type="line"/>
      <point x="232" y="700" type="line" smooth="yes"/>
      <point x="360" y="700"/>
      <point x="454" y="624"/>
      <point x="454" y="495" type="curve" smooth="yes"/>
      <point x="454" y="366"/>
      <point x="360" y="290"/>
      <point x="232" y="290" type="curve" smooth="yes"/>
      <point x="106" y="290" type="line"/>
      <point x="106" y="321" type="line"/>
      <point x="232" y="321" type="line" smooth="yes"/>
      <point x="343" y="321"/>
      <point x="420" y="383"/>
      <point x="420" y="495" type="curve" smooth="yes"/>
      <point x="420" y="607"/>
      <point x="343" y="669"/>
      <point x="232" y="669" type="curve" smooth="yes"/>
    </contour>
  </outline>
</glyph>
<glyph name="Q" format="2">
  <advance width="776"/>
  <unicode hex="0051"/>
  <outline>
    <contour>
      <point x="82" y="350" type="curve" smooth="yes"/>
      <point x="82" y="162"/>
      <point x="210" y="24"/>
      <point x="390" y="24" type="curve" smooth="yes"/>
      <point x="570" y="24"/>
      <point x="697" y="162"/>
      <point x="697" y="350" type="curve" smooth="yes"/>
      <point x="697" y="538"/>
      <point x="570" y="676"/>
      <point x="390" y="676" type="curve" smooth="yes"/>
      <point x="210" y="676"/>
      <point x="82" y="538"/>
    </contour>
    <contour>
      <point x="47" y="350" type="curve" smooth="yes"/>
      <point x="47" y="558"/>
      <point x="193" y="708"/>
      <point x="390" y="708" type="curve" smooth="yes"/>
      <point x="587" y="708"/>
      <point x="732" y="558"/>
      <point x="732" y="350" type="curve" smooth="yes"/>
      <point x="732" y="142"/>
      <point x="587" y="-8"/>
      <point x="390" y="-8" type="curve" smooth="yes"/>
      <point x="193" y="-8"/>
      <point x="47" y="142"/>
    </contour>
    <contour>
      <point x="394" y="300" type="line"/>
      <point x="438" y="300" type="line"/>
      <point x="752" y="0" type="line"/>
      <point x="708" y="0" type="line"/>
    </contour>
  </outline>
</glyph>
<glyph name="S" format="2">
  <advance width="506"/>
  <unicode hex="0053"/>
  <outline>
    <contour>
      <point x="76" y="195" type="line"/>
      <point x="98" y="103"/>
      <point x="152" y="23"/>
      <point x="267" y="23" type="curve" smooth="yes"/>
      <point x="368" y="23"/>
      <point x="427" y="87"/>
      <point x="427" y="173" type="curve" smooth="yes"/>
      <point x="427" y="279"/>
      <point x="345" y="321"/>
      <point x="265" y="351" type="curve" smooth="yes"/>
      <point x="176" y="385"/>
      <point x="78" y="432"/>
      <point x="78" y="546" type="curve" smooth="yes"/>
      <point x="78" y="644"/>
      <point x="153" y="708"/>
      <point x="256" y="708" type="curve" smooth="yes"/>
      <point x="365" y="708"/>
      <point x="427" y="636"/>
      <point x="450" y="574" type="curve"/>
      <point x="420" y="558" type="line"/>
      <point x="398" y="612"/>
      <point x="352" y="676"/>
      <point x="254" y="676" type="curve" smooth="yes"/>
      <point x="168" y="676"/>
      <point x="113" y="626"/>
      <point x="113" y="550" type="curve" smooth="yes"/>
      <point x="113" y="460"/>
      <point x="183" y="416"/>
      <point x="289" y="377" type="curve" smooth="yes"/>
      <point x="369" y="347"/>
      <point x="461" y="296"/>
      <point x="461" y="176" type="curve" smooth="yes"/>
      <point x="461" y="68"/>
      <point x="382" y="-8"/>
      <point x="266" y="-8" type="curve" smooth="yes"/>
      <point x="140" y="-8"/>
      <point x="72" y="80"/>
      <point x="48" y="180" type="curve"/>
    </contour>
  </outline>
</glyph>
<glyph name="Y" format="2">
  <advance width="523"/>
  <unicode hex="0059"/>
  <outline>
    <contour>
      <point x="474" y="700" type="line"/>
      <point x="511" y="700" type="line"/>
      <point x="274" y="278" type="line"/>
      <point x="274" y="0" type="line"/>
      <point x="242" y="0" type="line"/>
      <point x="242" y="276" type="line"/>
      <point x="12" y="700" type="line"/>
      <point x="50" y="700" type="line"/>
      <point x="258" y="310" type="line"/>
    </contour>
  </outline>
</glyph>
<glyph name="Z" format="2">
  <advance width="538"/>
  <unicode hex="005A"/>
  <outline>
    <contour>
      <point x="38" y="668" type="line"/>
      <point x="38" y="700" type="line"/>
      <point x="522" y="700" type="line"/>
      <point x="76" y="32" type="line"/>
      <point x="508" y="32" type="line"/>
      <point x="508" y="0" type="line"/>
      <point x="18" y="0" type="line"/>
      <point x="464" y="668" type="line"/>
    </contour>
  </outline>
</glyph>
<glyph name="backslash" format="2">
  <advance width="459"/>
  <unicode hex="005C"/>
  <outline>
    <contour>
      <point x="15" y="700" type="line"/>
      <point x="50" y="700" type="line"/>
      <point x="444" y="0" type="line"/>
      <point x="410" y="0" type="line"/>
    </contour>
  </outline>
</glyph>
<glyph name="grave" format="2">
  <advance width="359"/>
  <unicode hex="0060"/>
  <outline>
    <contour>
      <point x="92" y="682" type="line"/>
      <point x="120" y="700" type="line"/>
      <point x="284" y="540" type="line"/>
      <point x="268" y="528" type="line"/>
    </contour>
  </outline>
</glyph>
<glyph name="a" format="2">
  <advance width="448"/>
  <unicode hex="0061"/>
  <outline>
    <contour>
      <point x="68" y="136" type="curve" smooth="yes"/>
      <point x="68" y="53"/>
      <point x="132" y="18"/>
      <point x="198" y="18" type="curve" smooth="yes"/>
      <point x="278" y="18"/>
      <point x="351" y="76"/>
      <point x="351" y="201" type="curve"/>
      <point x="360" y="169" type="line"/>
      <point x="360" y="47"/>
      <point x="273" y="-10"/>
      <point x="189" y="-10" type="curve" smooth="yes"/>
      <point x="114" y="-10"/>
      <point x="37" y="35"/>
      <point x="37" y="134" type="curve" smooth="yes"/>
      <point x="37" y="224"/>
      <point x="102" y="277"/>
      <point x="204" y="277" type="curve" smooth="yes"/>
      <point x="288" y="277"/>
      <point x="344" y="242"/>
      <point x="363" y="225" type="curve"/>
      <point x="363" y="202" type="line"/>
      <point x="319" y="236"/>
      <point x="266" y="251"/>
      <point x="208" y="251" type="curve" smooth="yes"/>
      <point x="132" y="251"/>
      <point x="68" y="218"/>
    </contour>
    <contour>
      <point x="82" y="392" type="curve"/>
      <point x="66" y="416" type="line"/>
      <point x="100" y="440"/>
      <point x="150" y="470"/>
      <point x="226" y="470" type="curve" smooth="yes"/>
      <point x="328" y="470"/>
      <point x="382" y="417"/>
      <point x="382" y="323" type="curve" smooth="yes"/>
      <point x="382" y="0" type="line"/>
      <point x="351" y="0" type="line"/>
      <point x="351" y="320" type="line" smooth="yes"/>
      <point x="351" y="365"/>
      <point x="337" y="442"/>
      <point x="224" y="442" type="curve" smooth="yes"/>
      <point x="155" y="442"/>
      <point x="110" y="414"/>
    </contour>
  </outline>
</glyph>
<glyph name="e" format="2">
  <advance width="505"/>
  <unicode hex="0065"/>
  <outline>
    <contour>
      <point x="251" y="-10" type="curve" smooth="yes"/>
      <point x="131" y="-10"/>
      <point x="42" y="93"/>
      <point x="42" y="232" type="curve" smooth="yes"/>
      <point x="42" y="370"/>
      <point x="133" y="470"/>
      <point x="258" y="470" type="curve" smooth="yes"/>
      <point x="376" y="470"/>
      <point x="464" y="374"/>
      <point x="464" y="248" type="curve" smooth="yes"/>
      <point x="464" y="241"/>
      <point x="464" y="230"/>
      <point x="462" y="222" type="curve"/>
      <point x="62" y="222" type="line"/>
      <point x="62" y="250" type="line"/>
      <point x="440" y="250" type="line"/>
      <point x="426" y="230" type="line"/>
      <point x="428" y="236"/>
      <point x="431" y="247"/>
      <point x="431" y="258" type="curve" smooth="yes"/>
      <point x="431" y="362"/>
      <point x="356" y="442"/>
      <point x="258" y="442" type="curve" smooth="yes"/>
      <point x="150" y="442"/>
      <point x="74" y="355"/>
      <point x="74" y="233" type="curve" smooth="yes"/>
      <point x="74" y="109"/>
      <point x="149" y="20"/>
      <point x="254" y="20" type="curve" smooth="yes"/>
      <point x="330" y="20"/>
      <point x="383" y="51"/>
      <point x="431" y="124" type="curve"/>
      <point x="456" y="107" type="line"/>
      <point x="402" y="25"/>
      <point x="339" y="-10"/>
    </contour>
  </outline>
</glyph>
<glyph name="f" format="2">
  <advance width="280"/>
  <unicode hex="0066"/>
  <outline>
    <contour>
      <point x="47" y="460" type="line"/>
      <point x="252" y="460" type="line"/>
      <point x="252" y="430" type="line"/>
      <point x="47" y="430" type="line"/>
    </contour>
    <contour>
      <point x="276" y="718" type="line"/>
      <point x="260" y="739"/>
      <point x="236" y="758"/>
      <point x="206" y="758" type="curve" smooth="yes"/>
      <point x="141" y="758"/>
      <point x="123" y="700"/>
      <point x="123" y="641" type="curve" smooth="yes"/>
      <point x="123" y="0" type="line"/>
      <point x="92" y="0" type="line"/>
      <point x="92" y="644" type="line" smooth="yes"/>
      <point x="92" y="725"/>
      <point x="124" y="788"/>
      <point x="208" y="788" type="curve" smooth="yes"/>
      <point x="251" y="788"/>
      <point x="279" y="763"/>
      <point x="294" y="743" type="curve"/>
    </contour>
  </outline>
</glyph>
<glyph name="j" format="2">
  <advance width="201"/>
  <unicode hex="006A"/>
  <outline>
    <contour>
      <point x="71" y="682" type="curve" smooth="yes"/>
      <point x="71" y="695"/>
      <point x="80" y="704"/>
      <point x="94" y="704" type="curve" smooth="yes"/>
      <point x="108" y="704"/>
      <point x="118" y="695"/>
      <point x="118" y="682" type="curve" smooth="yes"/>
      <point x="118" y="669"/>
      <point x="108" y="658"/>
      <point x="94" y="658" type="curve" smooth="yes"/>
      <point x="80" y="658"/>
      <point x="71" y="669"/>
    </contour>
    <contour>
      <point x="-72" y="-150" type="line"/>
      <point x="-58" y="-169"/>
      <point x="-35" y="-189"/>
      <point x="-3" y="-189" type="curve" smooth="yes"/>
      <point x="63" y="-189"/>
      <point x="80" y="-130"/>
      <point x="80" y="-72" type="curve" smooth="yes"/>
      <point x="80" y="460" type="line"/>
      <point x="111" y="460" type="line"/>
      <point x="111" y="-76" type="line" smooth="yes"/>
      <point x="111" y="-154"/>
      <point x="80" y="-220"/>
      <point x="-4" y="-220" type="curve" smooth="yes"/>
      <point x="-46" y="-220"/>
      <point x="-74" y="-196"/>
      <point x="-90" y="-174" type="curve"/>
    </contour>
  </outline>
</glyph>
<glyph name="l" format="2">
  <advance width="195"/>
  <unicode hex="006C"/>
  <outline>
    <contour>
      <point x="82" y="780" type="line"/>
      <point x="113" y="780" type="line"/>
      <point x="113" y="0" type="line"/>
      <point x="82" y="0" type="line"/>
    </contour>
  </outline>
</glyph>
<glyph name="m" format="2">
  <advance width="717"/>
  <unicode hex="006D"/>
  <outline>
    <contour>
      <point x="635" y="311" type="curve" smooth="yes"/>
      <point x="635" y="0" type="line"/>
      <point x="604" y="0" type="line"/>
      <point x="604" y="308" type="line" smooth="yes"/>
      <point x="604" y="388"/>
      <point x="573" y="440"/>
      <point x="506" y="440" type="curve" smooth="yes"/>
      <point x="436" y="440"/>
      <point x="374" y="368"/>
      <point x="374" y="280" type="curve" smooth="yes"/>
      <point x="374" y="0" type="line"/>
      <point x="343" y="0" type="line"/>
      <point x="343" y="308" type="line" smooth="yes"/>
      <point x="343" y="388"/>
      <point x="311" y="440"/>
      <point x="244" y="440" type="curve" smooth="yes"/>
      <point x="175" y="440"/>
      <point x="113" y="369"/>
      <point x="113" y="280" type="curve" smooth="yes"/>
      <point x="113" y="0" type="line"/>
      <point x="82" y="0" type="line"/>
      <point x="82" y="460" type="line"/>
      <point x="113" y="460" type="line"/>
      <point x="113" y="348" type="line"/>
      <point x="134" y="422"/>
      <point x="189" y="470"/>
      <point x="250" y="470" type="curve" smooth="yes"/>
      <point x="319" y="470"/>
      <point x="361" y="423"/>
      <point x="370" y="350" type="curve"/>
      <point x="394" y="423"/>
      <point x="450" y="470"/>
      <point x="512" y="470" type="curve" smooth="yes"/>
      <point x="592" y="470"/>
      <point x="635" y="407"/>
    </contour>
  </outline>
</glyph>
<glyph name="n" format="2">
  <advance width="490"/>
  <unicode hex="006E"/>
  <outline>
    <contour>
      <point x="377" y="308" type="line" smooth="yes"/>
      <point x="377" y="388"/>
      <point x="344" y="440"/>
      <point x="262" y="440" type="curve" smooth="yes"/>
      <point x="178" y="440"/>
      <point x="113" y="367"/>
      <point x="113" y="280" type="curve" smooth="yes"/>
      <point x="113" y="0" type="line"/>
      <point x="82" y="0" type="line"/>
      <point x="82" y="460" type="line"/>
      <point x="113" y="460" type="line"/>
      <point x="113" y="346" type="line"/>
      <point x="135" y="422"/>
      <point x="194" y="470"/>
      <point x="268" y="470" type="curve" smooth="yes"/>
      <point x="364" y="470"/>
      <point x="408" y="407"/>
      <point x="408" y="311" type="curve" smooth="yes"/>
      <point x="408" y="0" type="line"/>
      <point x="377" y="0" type="line"/>
    </contour>
  </outline>
</glyph>
<glyph name="s" format="2">
  <advance width="403"/>
  <unicode hex="0073"/>
  <outline>
    <contour>
      <point x="66" y="124" type="line"/>
      <point x="80" y="68"/>
      <point x="121" y="19"/>
      <point x="204" y="19" type="curve" smooth="yes"/>
      <point x="268" y="19"/>
      <point x="313" y="54"/>
      <point x="313" y="118" type="curve" smooth="yes"/>
      <point x="313" y="178"/>
      <point x="258" y="205"/>
      <point x="194" y="225" type="curve" smooth="yes"/>
      <point x="124" y="247"/>
      <point x="63" y="271"/>
      <point x="63" y="356" type="curve" smooth="yes"/>
      <point x="63" y="430"/>
      <point x="124" y="468"/>
      <point x="192" y="468" type="curve" smooth="yes"/>
      <point x="274" y="468"/>
      <point x="320" y="423"/>
      <point x="342" y="372" type="curve"/>
      <point x="316" y="357" type="line"/>
      <point x="296" y="401"/>
      <point x="260" y="440"/>
      <point x="189" y="440" type="curve" smooth="yes"/>
      <point x="137" y="440"/>
      <point x="94" y="413"/>
      <point x="94" y="358" type="curve" smooth="yes"/>
      <point x="94" y="289"/>
      <point x="146" y="271"/>
      <point x="210" y="251" type="curve" smooth="yes"/>
      <point x="280" y="228"/>
      <point x="344" y="196"/>
      <point x="344" y="121" type="curve" smooth="yes"/>
      <point x="344" y="41"/>
      <point x="287" y="-10"/>
      <point x="203" y="-10" type="curve" smooth="yes"/>
      <point x="104" y="-10"/>
      <point x="52" y="49"/>
      <point x="40" y="111" type="curve"/>
    </contour>
  </outline>
</glyph>
<glyph name="u" format="2">
  <advance width="490"/>
  <unicode hex="0075"/>
  <outline>
    <contour>
      <point x="113" y="159" type="line" smooth="yes"/>
      <point x="113" y="73"/>
      <point x="146" y="20"/>
      <point x="228" y="20" type="curve" smooth="yes"/>
      <point x="312" y="20"/>
      <point x="377" y="93"/>
      <point x="377" y="180" type="curve" smooth="yes"/>
      <point x="377" y="460" type="line"/>
      <point x="408" y="460" type="line"/>
      <point x="408" y="0" type="line"/>
      <point x="377" y="0" type="line"/>
      <point x="377" y="114" type="line"/>
      <point x="355" y="38"/>
      <point x="296" y="-10"/>
      <point x="222" y="-10" type="curve" smooth="yes"/>
      <point x="126" y="-10"/>
      <point x="82" y="54"/>
      <point x="82" y="156" type="curve" smooth="yes"/>
      <point x="82" y="460" type="line"/>
      <point x="113" y="460" type="line"/>
    </contour>
  </outline>
</glyph>
<glyph name="braceleft" format="2">
  <advance width="290"/>
  <unicode hex="007B"/>
  <outline>
    <contour>
      <point x="157" y="646" type="curve" smooth="yes"/>
      <point x="157" y="448" type="line" smooth="yes"/>
      <point x="157" y="359"/>
      <point x="129" y="286"/>
      <point x="76" y="286" type="curve"/>
      <point x="76" y="294" type="line"/>
      <point x="129" y="294"/>
      <point x="157" y="221"/>
      <point x="157" y="132" type="curve" smooth="yes"/>
      <point x="157" y="-66" type="line" smooth="yes"/>
      <point x="157" y="-141"/>
      <point x="176" y="-172"/>
      <point x="230" y="-172" type="curve" smooth="yes"/>
      <point x="254" y="-172" type="line"/>
      <point x="254" y="-200" type="line"/>
      <point x="222" y="-200" type="line" smooth="yes"/>
      <point x="157" y="-200"/>
      <point x="126" y="-159"/>
      <point x="126" y="-60" type="curve" smooth="yes"/>
      <point x="126" y="150" type="line" smooth="yes"/>
      <point x="126" y="226"/>
      <point x="101" y="268"/>
      <point x="71" y="278" type="curve"/>
      <point x="71" y="302" type="line"/>
      <point x="101" y="312"/>
      <point x="126" y="354"/>
      <point x="126" y="430" type="curve" smooth="yes"/>
      <point x="126" y="640" type="line" smooth="yes"/>
      <point x="126" y="739"/>
      <point x="157" y="780"/>
      <point x="222" y="780" type="curve" smooth="yes"/>
      <point x="254" y="780" type="line"/>
      <point x="254" y="752" type="line"/>
      <point x="230" y="752" type="line" smooth="yes"/>
      <point x="176" y="752"/>
      <point x="157" y="721"/>
    </contour>
  </outline>
</glyph>
<glyph name="asciitilde" format="2">
  <advance width="575"/>
  <unicode hex="007E"/>
  <outline>
    <contour>
      <point x="104" y="178" type="curve"/>
      <point x="75" y="181" type="line"/>
      <point x="73" y="188"/>
      <point x="72" y="196"/>
      <point x="72" y="205" type="curve" smooth="yes"/>
      <point x="72" y="235"/>
      <point x="80" y="264"/>
      <point x="98" y="286" type="curve" smooth="yes"/>
      <point x="119" y="312"/>
      <point x="149" y="327"/>
      <point x="187" y="327" type="curve" smooth="yes"/>
      <point x="240" y="327"/>
      <point x="274" y="290"/>
      <point x="306" y="258" type="curve" smooth="yes"/>
      <point x="332" y="231"/>
      <point x="361" y="202"/>
      <point x="400" y="202" type="curve" smooth="yes"/>
      <point x="450" y="202"/>
      <point x="474" y="239"/>
      <point x="474" y="292" type="curve" smooth="yes"/>
      <point x="474" y="300"/>
      <point x="472" y="312"/>
      <point x="468" y="322" type="curve"/>
      <point x="499" y="318" type="line"/>
      <point x="501" y="310"/>
      <point x="503" y="300"/>
      <point x="503" y="290" type="curve" smooth="yes"/>
      <point x="503" y="262"/>
      <point x="497" y="232"/>
      <point x="481" y="210" type="curve" smooth="yes"/>
      <point x="462" y="184"/>
      <point x="435" y="172"/>
      <point x="401" y="172" type="curve" smooth="yes"/>
      <point x="353" y="172"/>
      <point x="322" y="204"/>
      <point x="290" y="236" type="curve" smooth="yes"/>
      <point x="264" y="262"/>
      <point x="232" y="298"/>
      <point x="186" y="298" type="curve" smooth="yes"/>
      <point x="131" y="298"/>
      <point x="100" y="258"/>
      <point x="100" y="200" type="curve" smooth="yes"/>
      <point x="100" y="193"/>
      <point x="101" y="186"/>
    </contour>
  </outline>
</glyph>
<glyph name="currency" format="2">
  <advance width="566"/>
  <unicode hex="00A4"/>
  <outline>
    <contour>
      <point x="51" y="517" type="line"/>
      <point x="73" y="539" type="line"/>
      <point x="145" y="466" type="line"/>
      <point x="124" y="445" type="line"/>
    </contour>
    <contour>
      <point x="73" y="61" type="line"/>
      <point x="51" y="83" type="line"/>
      <point x="124" y="155" type="line"/>
      <point x="145" y="134" type="line"/>
    </contour>
    <contour>
      <point x="449" y="445" type="line"/>
      <point x="427" y="466" type="line"/>
      <point x="500" y="539" type="line"/>
      <point x="521" y="517" type="line"/>
    </contour>
    <contour>
      <point x="427" y="134" type="line"/>
      <point x="449" y="155" type="line"/>
      <point x="521" y="83" type="line"/>
      <point x="500" y="61" type="line"/>
    </contour>
    <contour>
      <point x="52" y="300" type="curve" smooth="yes"/>
      <point x="52" y="439"/>
      <point x="155" y="540"/>
      <point x="283" y="540" type="curve" smooth="yes"/>
      <point x="411" y="540"/>
      <point x="514" y="439"/>
      <point x="514" y="300" type="curve" smooth="yes"/>
      <point x="514" y="161"/>
      <point x="411" y="60"/>
      <point x="283" y="60" type="curve" smooth="yes"/>
      <point x="155" y="60"/>
      <point x="52" y="161"/>
    </contour>
    <contour>
      <point x="84" y="300" type="curve" smooth="yes"/>
      <point x="84" y="180"/>
      <point x="172" y="90"/>
      <point x="283" y="90" type="curve" smooth="yes"/>
      <point x="394" y="90"/>
      <point x="482" y="180"/>
      <point x="482" y="300" type="curve" smooth="yes"/>
      <point x="482" y="420"/>
      <point x="394" y="510"/>
      <point x="283" y="510" type="curve" smooth="yes"/>
      <point x="172" y="510"/>
      <point x="84" y="420"/>
    </contour>
  </outline>
</glyph>
<glyph name="ordfeminine" format="2">
  <advance width="238"/>
  <unicode hex="00AA"/>
  <outline>
    <contour>
      <point x="40" y="529" type="curve" smooth="yes"/>
      <point x="40" y="488"/>
      <point x="68" y="470"/>
      <point x="104" y="470" type="curve" smooth="yes"/>
      <point x="146" y="470"/>
      <point x="182" y="500"/>
      <point x="182" y="543" type="curve"/>
      <point x="186" y="536" type="line"/>
      <point x="186" y="492"/>
      <point x="152" y="455"/>
      <point x="102" y="455" type="curve" smooth="yes"/>
      <point x="63" y="455"/>
      <point x="24" y="478"/>
      <point x="24" y="529" type="curve" smooth="yes"/>
      <point x="24" y="577"/>
      <point x="69" y="604"/>
      <point x="116" y="604" type="curve" smooth="yes"/>
      <point x="156" y="604"/>
      <point x="178" y="588"/>
      <point x="187" y="580" type="curve"/>
      <point x="187" y="568" type="line"/>
      <point x="172" y="580"/>
      <point x="149" y="592"/>
      <point x="117" y="592" type="curve" smooth="yes"/>
      <point x="77" y="592"/>
      <point x="40" y="569"/>
    </contour>
    <contour>
      <point x="52" y="657" type="curve"/>
      <point x="44" y="670" type="line"/>
      <point x="60" y="685"/>
      <point x="86" y="702"/>
      <point x="124" y="702" type="curve" smooth="yes"/>
      <point x="171" y="702"/>
      <point x="197" y="672"/>
      <point x="197" y="628" type="curve" smooth="yes"/>
      <point x="197" y="460" type="line"/>
      <point x="182" y="460" type="line"/>
      <point x="182" y="628" type="line" smooth="yes"/>
      <point x="182" y="665"/>
      <point x="161" y="688"/>
      <point x="124" y="688" type="curve" smooth="yes"/>
      <point x="91" y="688"/>
      <point x="68" y="672"/>
    </contour>
  </outline>
</glyph>
<glyph name="plusminus" format="2">
  <advance width="611"/>
  <unicode hex="00B1"/>
  <outline>
    <contour>
      <point x="65" y="0" type="line"/>
      <point x="65" y="31" type="line"/>
      <point x="546" y="31" type="line"/>
      <point x="546" y="0" type="line"/>
    </contour>
    <contour>
      <point x="65" y="370" type="line"/>
      <point x="65" y="400" type="line"/>
      <point x="546" y="400" type="line"/>
      <point x="546" y="370" type="line"/>
    </contour>
    <contour>
      <point x="290" y="620" type="line"/>
      <point x="322" y="620" type="line"/>
      <point x="322" y="150" type="line"/>
      <point x="290" y="150" type="line"/>
    </contour>
  </outline>
</glyph>
<glyph name="mu" format="2">
  <advance width="490"/>
  <unicode hex="00B5"/>
  <outline>
    <contour>
      <point x="113" y="460" type="line"/>
      <point x="113" y="159" type="line" smooth="yes"/>
      <point x="113" y="73"/>
      <point x="146" y="20"/>
      <point x="228" y="20" type="curve" smooth="yes"/>
      <point x="312" y="20"/>
      <point x="377" y="94"/>
      <point x="377" y="180" type="curve" smooth="yes"/>
      <point x="377" y="460" type="line"/>
      <point x="408" y="460" type="line"/>
      <point x="408" y="0" type="line"/>
      <point x="377" y="0" type="line"/>
      <point x="377" y="111" type="line"/>
      <point x="355" y="39"/>
      <point x="295" y="-10"/>
      <point x="222" y="-10" type="curve" smooth="yes"/>
      <point x="166" y="-10"/>
      <point x="131" y="14"/>
      <point x="113" y="54" type="curve"/>
      <point x="113" y="-320" type="line"/>
      <point x="82" y="-320" type="line"/>
      <point x="82" y="460" type="line"/>
    </contour>
  </outline>
</glyph>
<glyph name="uni00B9" format="2">
  <advance width="470"/>
  <unicode hex="00B9"/>
  <outline>
    <contour>
      <point x="146" y="650" type="line"/>
      <point x="146" y="670" type="line"/>
      <point x="264" y="698" type="line"/>
      <point x="264" y="274" type="line"/>
      <point x="245" y="274" type="line"/>
      <point x="245" y="674" type="line"/>
    </contour>
  </outline>
</glyph>
<glyph name="ordmasculine" format="2">
  <advance width="278"/>
  <unicode hex="00BA"/>
  <outline>
    <contour>
      <point x="20" y="580" type="curve" smooth="yes"/>
      <point x="20" y="650"/>
      <point x="71" y="700"/>
      <point x="139" y="700" type="curve" smooth="yes"/>
      <point x="207" y="700"/>
      <point x="258" y="650"/>
      <point x="258" y="580" type="curve" smooth="yes"/>
      <point x="258" y="510"/>
      <point x="207" y="460"/>
      <point x="139" y="460" type="curve" smooth="yes"/>
      <point x="71" y="460"/>
      <point x="20" y="510"/>
    </contour>
    <contour>
      <point x="39" y="580" type="curve" smooth="yes"/>
      <point x="39" y="520"/>
      <point x="83" y="478"/>
      <point x="139" y="478" type="curve" smooth="yes"/>
      <point x="195" y="478"/>
      <point x="239" y="520"/>
      <point x="239" y="580" type="curve" smooth="yes"/>
      <point x="239" y="640"/>
      <point x="195" y="682"/>
      <point x="139" y="682" type="curve" smooth="yes"/>
      <point x="83" y="682"/>
      <point x="39" y="640"/>
    </contour>
  </outline>
</glyph>
<glyph name="Aacute" format="2">
  <advance width="618"/>
  <unicode hex="00C1"/>
  <outline>
    <contour>
      <point x="133" y="254" type="line"/>
      <point x="142" y="284" type="line"/>
      <point x="476" y="284" type="line"/>
      <point x="486" y="254" type="line"/>
    </contour>
    <contour>
      <point x="309" y="644" type="line"/>
      <point x="159" y="273" type="line"/>
      <point x="156" y="265" type="line"/>
      <point x="49" y="0" type="line"/>
      <point x="12" y="0" type="line"/>
      <point x="309" y="721" type="line"/>
      <point x="606" y="0" type="line"/>
      <point x="569" y="0" type="line"/>
      <point x="464" y="263" type="line"/>
      <point x="460" y="271" type="line"/>
    </contour>
    <contour>
      <point x="443" y="936" type="line"/>
      <point x="268" y="781" type="line"/>
      <point x="251" y="794" type="line"/>
      <point x="415" y="954" type="line"/>
    </contour>
  </outline>
</glyph>
<glyph name="Atilde" format="2">
  <advance width="618"/>
  <unicode hex="00C3"/>
  <outline>
    <contour>
      <point x="133" y="254" type="line"/>
      <point x="142" y="284" type="line"/>
      <point x="476" y="284" type="line"/>
      <point x="486" y="254" type="line"/>
    </contour>
    <contour>
      <point x="309" y="644" type="line"/>
      <point x="159" y="273" type="line"/>
      <point x="156" y="265" type="line"/>
      <point x="49" y="0" type="line"/>
      <point x="12" y="0" type="line"/>
      <point x="309" y="721" type="line"/>
      <point x="606" y="0" type="line"/>
      <point x="569" y="0" type="line"/>
      <point x="464" y="263" type="line"/>
      <point x="460" y="271" type="line"/>
    </contour>
    <contour>
      <point x="172" y="801" type="line"/>
      <point x="175" y="836"/>
      <point x="201" y="866"/>
      <point x="246" y="866" type="curve" smooth="yes"/>
      <point x="304" y="866"/>
      <point x="316" y="819"/>
      <point x="370" y="819" type="curve" smooth="yes"/>
      <point x="396" y="819"/>
      <point x="410" y="835"/>
      <point x="426" y="867" type="curve"/>
      <point x="446" y="852" type="line"/>
      <point x="430" y="815"/>
      <point x="404" y="793"/>
      <point x="368" y="793" type="curve" smooth="yes"/>
      <point x="313" y="793"/>
      <point x="292" y="840"/>
      <point x="247" y="840" type="curve" smooth="yes"/>
      <point x="206" y="840"/>
      <point x="194" y="811"/>
      <point x="194" y="789" type="curve"/>
    </contour>
  </outline>
</glyph>
<glyph name="Adieresis" format="2">
  <advance width="618"/>
  <unicode hex="00C4"/>
  <outline>
    <contour>
      <point x="133" y="254" type="line"/>
      <point x="142" y="284" type="line"/>
      <point x="476" y="284" type="line"/>
      <point x="486" y="254" type="line"/>
    </contour>
    <contour>
      <point x="309" y="644" type="line"/>
      <point x="159" y="273" type="line"/>
      <point x="156" y="265" type="line"/>
      <point x="49" y="0" type="line"/>
      <point x="12" y="0" type="line"/>
      <point x="309" y="721" type="line"/>
      <point x="606" y="0" type="line"/>
      <point x="569" y="0" type="line"/>
      <point x="464" y="263" type="line"/>
      <point x="460" y="271" type="line"/>
    </contour>
    <contour>
      <point x="385" y="819" type="curve" smooth="yes"/>
      <point x="385" y="833"/>
      <point x="396" y="844"/>
      <point x="409" y="844" type="curve" smooth="yes"/>
      <point x="422" y="844"/>
      <point x="433" y="833"/>
      <point x="433" y="819" type="curve" smooth="yes"/>
      <point x="433" y="805"/>
      <point x="422" y="795"/>
      <point x="409" y="795" type="curve" smooth="yes"/>
      <point x="396" y="795"/>
      <point x="385" y="805"/>
    </contour>
    <contour>
      <point x="185" y="819" type="curve" smooth="yes"/>
      <point x="185" y="833"/>
      <point x="196" y="844"/>
      <point x="209" y="844" type="curve" smooth="yes"/>
      <point x="222" y="844"/>
      <point x="233" y="833"/>
      <point x="233" y="819" type="curve" smooth="yes"/>
      <point x="233" y="805"/>
      <point x="222" y="795"/>
      <point x="209" y="795" type="curve" smooth="yes"/>
      <point x="196" y="795"/>
      <point x="185" y="805"/>
    </contour>
  </outline>
</glyph>
<glyph name="Aring" format="2">
  <advance width="618"/>
  <unicode hex="00C5"/>
  <outline>
    <contour>
      <point x="133" y="254" type="line"/>
      <point x="142" y="284" type="line"/>
      <point x="476" y="284" type="line"/>
      <point x="486" y="254" type="line"/>
    </contour>
    <contour>
      <point x="309" y="644" type="line"/>
      <point x="159" y="273" type="line"/>
      <point x="156" y="265" type="line"/>
      <point x="49" y="0" type="line"/>
      <point x="12" y="0" type="line"/>
      <point x="309" y="721" type="line"/>
      <point x="606" y="0" type="line"/>
      <point x="569" y="0" type="line"/>
      <point x="464" y="263" type="line"/>
      <point x="460" y="271" type="line"/>
    </contour>
    <contour>
      <point x="207" y="805" type="curve" smooth="yes"/>
      <point x="207" y="865"/>
      <point x="257" y="905"/>
      <point x="309" y="905" type="curve" smooth="yes"/>
      <point x="361" y="905"/>
      <point x="411" y="865"/>
      <point x="411" y="805" type="curve" smooth="yes"/>
      <point x="411" y="745"/>
      <point x="361" y="705"/>
      <point x="309" y="705" type="curve" smooth="yes"/>
      <point x="257" y="705"/>
      <point x="207" y="745"/>
    </contour>
    <contour>
      <point x="230" y="805" type="curve" smooth="yes"/>
      <point x="230" y="758"/>
      <point x="268" y="726"/>
      <point x="309" y="726" type="curve" smooth="yes"/>
      <point x="350" y="726"/>
      <point x="388" y="758"/>
      <point x="388" y="805" type="curve" smooth="yes"/>
      <point x="388" y="852"/>
      <point x="350" y="884"/>
      <point x="309" y="884" type="curve" smooth="yes"/>
      <point x="268" y="884"/>
      <point x="230" y="852"/>
    </contour>
  </outline>
</glyph>
<glyph name="AE" format="2">
  <advance width="915"/>
  <unicode hex="00C6"/>
  <outline>
    <contour>
      <point x="210" y="259" type="line"/>
      <point x="210" y="290" type="line"/>
      <point x="503" y="290" type="line"/>
      <point x="503" y="259" type="line"/>
    </contour>
    <contour>
      <point x="470" y="700" type="line"/>
      <point x="500" y="688" type="line"/>
      <point x="42" y="0" type="line"/>
      <point x="5" y="0" type="line"/>
    </contour>
    <contour>
      <point x="509" y="0" type="line"/>
      <point x="509" y="31" type="line"/>
      <point x="838" y="31" type="line"/>
      <point x="838" y="0" type="line"/>
    </contour>
    <contour>
      <point x="514" y="669" type="line"/>
      <point x="470" y="700" type="line"/>
      <point x="838" y="700" type="line"/>
      <point x="838" y="669" type="line"/>
    </contour>
    <contour>
      <point x="509" y="371" type="line"/>
      <point x="509" y="402" type="line"/>
      <point x="818" y="402" type="line"/>
      <point x="818" y="371" type="line"/>
    </contour>
    <contour>
      <point x="490" y="700" type="line"/>
      <point x="523" y="700" type="line"/>
      <point x="523" y="0" type="line"/>
      <point x="490" y="0" type="line"/>
    </contour>
  </outline>
</glyph>
<glyph name="Ccedilla" format="2">
  <advance width="685"/>
  <unicode hex="00C7"/>
  <outline>
    <contour>
      <point x="82" y="350" type="curve" smooth="yes"/>
      <point x="82" y="161"/>
      <point x="211" y="26"/>
      <point x="383" y="26" type="curve" smooth="yes"/>
      <point x="482" y="26"/>
      <point x="552" y="58"/>
      <point x="608" y="116" type="curve"/>
      <point x="608" y="70" type="line"/>
      <point x="549" y="18"/>
      <point x="485" y="-8"/>
      <point x="383" y="-8" type="curve" smooth="yes"/>
      <point x="189" y="-8"/>
      <point x="47" y="141"/>
      <point x="47" y="350" type="curve" smooth="yes"/>
      <point x="47" y="559"/>
      <point x="189" y="708"/>
      <point x="383" y="708" type="curve" smooth="yes"/>
      <point x="485" y="708"/>
      <point x="549" y="682"/>
      <point x="608" y="630" type="curve"/>
      <point x="608" y="586" type="line"/>
      <point x="554" y="644"/>
      <point x="479" y="674"/>
      <point x="383" y="674" type="curve" smooth="yes"/>
      <point x="211" y="674"/>
      <point x="82" y="541"/>
    </contour>
    <contour>
      <point x="376" y="17" type="line"/>
      <point x="402" y="17" type="line"/>
      <point x="344" y="-70" type="line"/>
      <point x="363" y="-59"/>
      <point x="372" y="-53"/>
      <point x="396" y="-53" type="curve" smooth="yes"/>
      <point x="429" y="-53"/>
      <point x="468" y="-78"/>
      <point x="468" y="-127" type="curve" smooth="yes"/>
      <point x="468" y="-188"/>
      <point x="417" y="-221"/>
      <point x="362" y="-221" type="curve" smooth="yes"/>
      <point x="325" y="-221"/>
      <point x="300" y="-211"/>
      <point x="272" y="-183" type="curve"/>
      <point x="288" y="-167" type="line"/>
      <point x="314" y="-189"/>
      <point x="331" y="-198"/>
      <point x="362" y="-198" type="curve" smooth="yes"/>
      <point x="405" y="-198"/>
      <point x="444" y="-173"/>
      <point x="444" y="-127" type="curve" smooth="yes"/>
      <point x="444" y="-89"/>
      <point x="416" y="-72"/>
      <point x="386" y="-72" type="curve" smooth="yes"/>
      <point x="362" y="-72"/>
      <point x="334" y="-79"/>
      <point x="312" y="-95" type="curve"/>
    </contour>
  </outline>
</glyph>
<glyph name="Egrave" format="2">
  <advance width="522"/>
  <unicode hex="00C8"/>
  <outline>
    <contour>
      <point x="102" y="0" type="line"/>
      <point x="102" y="31" type="line"/>
      <point x="445" y="31" type="line"/>
      <point x="445" y="0" type="line"/>
    </contour>
    <contour>
      <point x="102" y="669" type="line"/>
      <point x="102" y="700" type="line"/>
      <point x="445" y="700" type="line"/>
      <point x="445" y="669" type="line"/>
    </contour>
    <contour>
      <point x="102" y="371" type="line"/>
      <point x="102" y="402" type="line"/>
      <point x="425" y="402" type="line"/>
      <point x="425" y="371" type="line"/>
    </contour>
    <contour>
      <point x="87" y="700" type="line"/>
      <point x="120" y="700" type="line"/>
      <point x="120" y="0" type="line"/>
      <point x="87" y="0" type="line"/>
    </contour>
    <contour>
      <point x="118" y="924" type="line"/>
      <point x="146" y="941" type="line"/>
      <point x="310" y="781" type="line"/>
      <point x="294" y="768" type="line"/>
    </contour>
  </outline>
</glyph>
<glyph name="Igrave" format="2">
  <advance width="199"/>
  <unicode hex="00CC"/>
  <outline>
    <contour>
      <point x="84" y="700" type="line"/>
      <point x="116" y="700" type="line"/>
      <point x="116" y="0" type="line"/>
      <point x="84" y="0" type="line"/>
    </contour>
    <contour>
      <point x="-48" y="924" type="line"/>
      <point x="-20" y="941" type="line"/>
      <point x="144" y="781" type="line"/>
      <point x="127" y="768" type="line"/>
    </contour>
  </outline>
</glyph>
<glyph name="Icircumflex" format="2">
  <advance width="199"/>
  <unicode hex="00CE"/>
  <outline>
    <contour>
      <point x="84" y="700" type="line"/>
      <point x="116" y="700" type="line"/>
      <point x="116" y="0" type="line"/>
      <point x="84" y="0" type="line"/>
    </contour>
    <contour>
      <point x="100" y="892" type="line"/>
      <point x="-40" y="768" type="line"/>
      <point x="-60" y="786" type="line"/>
      <point x="100" y="926" type="line"/>
      <point x="260" y="786" type="line"/>
      <point x="240" y="768" type="line"/>
    </contour>
  </outline>
</glyph>
<glyph name="Idieresis" format="2">
  <advance width="199"/>
  <unicode hex="00CF"/>
  <outline>
    <contour>
      <point x="84" y="700" type="line"/>
      <point x="116" y="700" type="line"/>
      <point x="116" y="0" type="line"/>
      <point x="84" y="0" type="line"/>
    </contour>
    <contour>
      <point x="154" y="807" type="curve" smooth="yes"/>
      <point x="154" y="821"/>
      <point x="165" y="831"/>
      <point x="178" y="831" type="curve" smooth="yes"/>
      <point x="191" y="831"/>
      <point x="203" y="821"/>
      <point x="203" y="807" type="curve" smooth="yes"/>
      <point x="203" y="793"/>
      <point x="191" y="782"/>
      <point x="178" y="782" type="curve" smooth="yes"/>
      <point x="165" y="782"/>
      <point x="154" y="793"/>
    </contour>
    <contour>
      <point x="-4" y="807" type="curve" smooth="yes"/>
      <point x="-4" y="821"/>
      <point x="7" y="831"/>
      <point x="20" y="831" type="curve" smooth="yes"/>
      <point x="33" y="831"/>
      <point x="45" y="821"/>
      <point x="45" y="807" type="curve" smooth="yes"/>
      <point x="45" y="793"/>
      <point x="33" y="782"/>
      <point x="20" y="782" type="curve" smooth="yes"/>
      <point x="7" y="782"/>
      <point x="-4" y="793"/>
    </contour>
  </outline>
</glyph>
<glyph name="Eth" format="2">
  <advance width="680"/>
  <unicode hex="00D0"/>
  <outline>
    <contour>
      <point x="5" y="334" type="line"/>
      <point x="5" y="364" type="line"/>
      <point x="305" y="364" type="line"/>
      <point x="305" y="334" type="line"/>
    </contour>
    <contour>
      <point x="87" y="700" type="line"/>
      <point x="120" y="700" type="line"/>
      <point x="120" y="0" type="line"/>
      <point x="87" y="0" type="line"/>
    </contour>
    <contour>
      <point x="262" y="0" type="curve" smooth="yes"/>
      <point x="104" y="0" type="line"/>
      <point x="104" y="33" type="line"/>
      <point x="262" y="33" type="line" smooth="yes"/>
      <point x="448" y="33"/>
      <point x="568" y="159"/>
      <point x="568" y="350" type="curve" smooth="yes"/>
      <point x="568" y="541"/>
      <point x="448" y="667"/>
      <point x="262" y="667" type="curve" smooth="yes"/>
      <point x="104" y="667" type="line"/>
      <point x="104" y="700" type="line"/>
      <point x="262" y="700" type="line" smooth="yes"/>
      <point x="466" y="700"/>
      <point x="602" y="559"/>
      <point x="602" y="350" type="curve" smooth="yes"/>
      <point x="602" y="141"/>
      <point x="466" y="0"/>
    </contour>
  </outline>
</glyph>
<glyph name="Ograve" format="2">
  <advance width="778"/>
  <unicode hex="00D2"/>
  <outline>
    <contour>
      <point x="82" y="350" type="curve" smooth="yes"/>
      <point x="82" y="162"/>
      <point x="210" y="24"/>
      <point x="390" y="24" type="curve" smooth="yes"/>
      <point x="570" y="24"/>
      <point x="697" y="162"/>
      <point x="697" y="350" type="curve" smooth="yes"/>
      <point x="697" y="538"/>
      <point x="570" y="676"/>
      <point x="390" y="676" type="curve" smooth="yes"/>
      <point x="210" y="676"/>
      <point x="82" y="538"/>
    </contour>
    <contour>
      <point x="47" y="350" type="curve" smooth="yes"/>
      <point x="47" y="558"/>
      <point x="193" y="708"/>
      <point x="390" y="708" type="curve" smooth="yes"/>
      <point x="587" y="708"/>
      <point x="732" y="558"/>
      <point x="732" y="350" type="curve" smooth="yes"/>
      <point x="732" y="142"/>
      <point x="587" y="-8"/>
      <point x="390" y="-8" type="curve" smooth="yes"/>
      <point x="193" y="-8"/>
      <point x="47" y="142"/>
    </contour>
    <contour>
      <point x="259" y="924" type="line"/>
      <point x="287" y="941" type="line"/>
      <point x="451" y="781" type="line"/>
      <point x="434" y="768" type="line"/>
    </contour>
  </outline>
</glyph>
<glyph name="Oacute" format="2">
  <advance width="778"/>
  <unicode hex="00D3"/>
  <outline>
    <contour>
      <point x="82" y="350" type="curve" smooth="yes"/>
      <point x="82" y="162"/>
      <point x="210" y="24"/>
      <point x="390" y="24" type="curve" smooth="yes"/>
      <point x="570" y="24"/>
      <point x="697" y="162"/>
      <point x="697" y="350" type="curve" smooth="yes"/>
      <point x="697" y="538"/>
      <point x="570" y="676"/>
      <point x="390" y="676" type="curve" smooth="yes"/>
      <point x="210" y="676"/>
      <point x="82" y="538"/>
    </contour>
    <contour>
      <point x="47" y="350" type="curve" smooth="yes"/>
      <point x="47" y="558"/>
      <point x="193" y="708"/>
      <point x="390" y="708" type="curve" smooth="yes"/>
      <point x="587" y="708"/>
      <point x="732" y="558"/>
      <point x="732" y="350" type="curve" smooth="yes"/>
      <point x="732" y="142"/>
      <point x="587" y="-8"/>
      <point x="390" y="-8" type="curve" smooth="yes"/>
      <point x="193" y="-8"/>
      <point x="47" y="142"/>
    </contour>
    <contour>
      <point x="520" y="924" type="line"/>
      <point x="346" y="768" type="line"/>
      <point x="328" y="781" type="line"/>
      <point x="492" y="941" type="line"/>
    </contour>
  </outline>
</glyph>
<glyph name="Ocircumflex" format="2">
  <advance width="778"/>
  <unicode hex="00D4"/>
  <outline>
    <contour>
      <point x="82" y="350" type="curve" smooth="yes"/>
      <point x="82" y="162"/>
      <point x="210" y="24"/>
      <point x="390" y="24" type="curve" smooth="yes"/>
      <point x="570" y="24"/>
      <point x="697" y="162"/>
      <point x="697" y="350" type="curve" smooth="yes"/>
      <point x="697" y="538"/>
      <point x="570" y="676"/>
      <point x="390" y="676" type="curve" smooth="yes"/>
      <point x="210" y="676"/>
      <point x="82" y="538"/>
    </contour>
    <contour>
      <point x="47" y="350" type="curve" smooth="yes"/>
      <point x="47" y="558"/>
      <point x="193" y="708"/>
      <point x="390" y="708" type="curve" smooth="yes"/>
      <point x="587" y="708"/>
      <point x="732" y="558"/>
      <point x="732" y="350" type="curve" smooth="yes"/>
      <point x="732" y="142"/>
      <point x="587" y="-8"/>
      <point x="390" y="-8" type="curve" smooth="yes"/>
      <point x="193" y="-8"/>
      <point x="47" y="142"/>
    </contour>
    <contour>
      <point x="390" y="892" type="line"/>
      <point x="250" y="768" type="line"/>
      <point x="230" y="786" type="line"/>
      <point x="390" y="926" type="line"/>
      <point x="550" y="786" type="line"/>
      <point x="530" y="768" type="line"/>
    </contour>
  </outline>
</glyph>
<glyph name="Odieresis" format="2">
  <advance width="778"/>
  <unicode hex="00D6"/>
  <outline>
    <contour>
      <point x="82" y="350" type="curve" smooth="yes"/>
      <point x="82" y="162"/>
      <point x="210" y="24"/>
      <point x="390" y="24" type="curve" smooth="yes"/>
      <point x="570" y="24"/>
      <point x="697" y="162"/>
      <point x="697" y="350" type="curve" smooth="yes"/>
      <point x="697" y="538"/>
      <point x="570" y="676"/>
      <point x="390" y="676" type="curve" smooth="yes"/>
      <point x="210" y="676"/>
      <point x="82" y="538"/>
    </contour>
    <contour>
      <point x="47" y="350" type="curve" smooth="yes"/>
      <point x="47" y="558"/>
      <point x="193" y="708"/>
      <point x="390" y="708" type="curve" smooth="yes"/>
      <point x="587" y="708"/>
      <point x="732" y="558"/>
      <point x="732" y="350" type="curve" smooth="yes"/>
      <point x="732" y="142"/>
      <point x="587" y="-8"/>
      <point x="390" y="-8" type="curve" smooth="yes"/>
      <point x="193" y="-8"/>
      <point x="47" y="142"/>
    </contour>
    <contour>
      <point x="472" y="814" type="curve" smooth="yes"/>
      <point x="472" y="828"/>
      <point x="483" y="838"/>
      <point x="496" y="838" type="curve" smooth="yes"/>
      <point x="509" y="838"/>
      <point x="520" y="828"/>
      <point x="520" y="814" type="curve" smooth="yes"/>
      <point x="520" y="800"/>
      <point x="509" y="790"/>
      <point x="496" y="790" type="curve" smooth="yes"/>
      <point x="483" y="790"/>
      <point x="472" y="800"/>
    </contour>
    <contour>
      <point x="258" y="814" type="curve" smooth="yes"/>
      <point x="258" y="828"/>
      <point x="269" y="838"/>
      <point x="282" y="838" type="curve" smooth="yes"/>
      <point x="295" y="838"/>
      <point x="306" y="828"/>
      <point x="306" y="814" type="curve" smooth="yes"/>
      <point x="306" y="800"/>
      <point x="295" y="790"/>
      <point x="282" y="790" type="curve" smooth="yes"/>
      <point x="269" y="790"/>
      <point x="258" y="800"/>
    </contour>
  </outline>
</glyph>
<glyph name="multiply" format="2">
  <advance width="583"/>
  <unicode hex="00D7"/>
  <outline>
    <contour>
      <point x="98" y="39" type="line"/>
      <point x="76" y="60" type="line"/>
      <point x="272" y="254" type="line"/>
      <point x="76" y="449" type="line"/>
      <point x="97" y="470" type="line"/>
      <point x="292" y="274" type="line"/>
      <point x="486" y="470" type="line"/>
      <point x="508" y="449" type="line"/>
      <point x="311" y="254" type="line"/>
      <point x="507" y="60" type="line"/>
      <point x="486" y="39" type="line"/>
      <point x="292" y="235" type="line"/>
    </contour>
  </outline>
</glyph>
<glyph name="Ugrave" format="2">
  <advance width="591"/>
  <unicode hex="00D9"/>
  <outline>
    <contour>
      <point x="82" y="700" type="line"/>
      <point x="115" y="700" type="line"/>
      <point x="115" y="223" type="line" smooth="yes"/>
      <point x="115" y="99"/>
      <point x="182" y="22"/>
      <point x="296" y="22" type="curve" smooth="yes"/>
      <point x="410" y="22"/>
      <point x="476" y="99"/>
      <point x="476" y="223" type="curve" smooth="yes"/>
      <point x="476" y="700" type="line"/>
      <point x="509" y="700" type="line"/>
      <point x="509" y="223" type="line" smooth="yes"/>
      <point x="509" y="84"/>
      <point x="434" y="-10"/>
      <point x="296" y="-10" type="curve" smooth="yes"/>
      <point x="158" y="-10"/>
      <point x="82" y="84"/>
      <point x="82" y="223" type="curve" smooth="yes"/>
    </contour>
    <contour>
      <point x="162" y="924" type="line"/>
      <point x="190" y="941" type="line"/>
      <point x="354" y="781" type="line"/>
      <point x="337" y="768" type="line"/>
    </contour>
  </outline>
</glyph>
<glyph name="Ucircumflex" format="2">
  <advance width="591"/>
  <unicode hex="00DB"/>
  <outline>
    <contour>
      <point x="82" y="700" type="line"/>
      <point x="115" y="700" type="line"/>
      <point x="115" y="223" type="line" smooth="yes"/>
      <point x="115" y="99"/>
      <point x="182" y="22"/>
      <point x="296" y="22" type="curve" smooth="yes"/>
      <point x="410" y="22"/>
      <point x="476" y="99"/>
      <point x="476" y="223" type="curve" smooth="yes"/>
      <point x="476" y="700" type="line"/>
      <point x="509" y="700" type="line"/>
      <point x="509" y="223" type="line" smooth="yes"/>
      <point x="509" y="84"/>
      <point x="434" y="-10"/>
      <point x="296" y="-10" type="curve" smooth="yes"/>
      <point x="158" y="-10"/>
      <point x="82" y="84"/>
      <point x="82" y="223" type="curve" smooth="yes"/>
    </contour>
    <contour>
      <point x="296" y="892" type="line"/>
      <point x="156" y="768" type="line"/>
      <point x="136" y="786" type="line"/>
      <point x="296" y="926" type="line"/>
      <point x="456" y="786" type="line"/>
      <point x="436" y="768" type="line"/>
    </contour>
  </outline>
</glyph>
<glyph name="germandbls" format="2">
  <advance width="540"/>
  <unicode hex="00DF"/>
  <outline>
    <contour>
      <point x="312" y="-10" type="curve" smooth="yes"/>
      <point x="254" y="-10"/>
      <point x="186" y="13"/>
      <point x="153" y="49" type="curve"/>
      <point x="172" y="71" type="line"/>
      <point x="204" y="39"/>
      <point x="264" y="19"/>
      <point x="314" y="19" type="curve" smooth="yes"/>
      <point x="406" y="19"/>
      <point x="469" y="95"/>
      <point x="469" y="192" type="curve" smooth="yes"/>
      <point x="469" y="362"/>
      <point x="274" y="322"/>
      <point x="274" y="418" type="curve" smooth="yes"/>
      <point x="274" y="491"/>
      <point x="399" y="525"/>
      <point x="399" y="637" type="curve" smooth="yes"/>
      <point x="399" y="714"/>
      <point x="336" y="765"/>
      <point x="262" y="765" type="curve" smooth="yes"/>
      <point x="172" y="765"/>
      <point x="108" y="692"/>
      <point x="108" y="582" type="curve" smooth="yes"/>
      <point x="109" y="0" type="line"/>
      <point x="78" y="0" type="line"/>
      <point x="78" y="585" type="line" smooth="yes"/>
      <point x="78" y="705"/>
      <point x="154" y="794"/>
      <point x="266" y="794" type="curve" smooth="yes"/>
      <point x="358" y="794"/>
      <point x="431" y="734"/>
      <point x="431" y="639" type="curve" smooth="yes"/>
      <point x="431" y="513"/>
      <point x="307" y="485"/>
      <point x="307" y="418" type="curve" smooth="yes"/>
      <point x="307" y="344"/>
      <point x="501" y="378"/>
      <point x="501" y="196" type="curve" smooth="yes"/>
      <point x="501" y="77"/>
      <point x="422" y="-10"/>
    </contour>
  </outline>
</glyph>
<glyph name="acircumflex" format="2">
  <advance width="450"/>
  <unicode hex="00E2"/>
  <outline>
    <contour>
      <point x="68" y="135" type="curve" smooth="yes"/>
      <point x="68" y="51"/>
      <point x="130" y="18"/>
      <point x="198" y="18" type="curve" smooth="yes"/>
      <point x="285" y="18"/>
      <point x="352" y="80"/>
      <point x="352" y="166" type="curve"/>
      <point x="360" y="151" type="line"/>
      <point x="360" y="62"/>
      <point x="292" y="-10"/>
      <point x="192" y="-10" type="curve" smooth="yes"/>
      <point x="111" y="-10"/>
      <point x="37" y="34"/>
      <point x="37" y="132" type="curve" smooth="yes"/>
      <point x="37" y="232"/>
      <point x="125" y="282"/>
      <point x="222" y="282" type="curve" smooth="yes"/>
      <point x="303" y="282"/>
      <point x="345" y="250"/>
      <point x="364" y="232" type="curve"/>
      <point x="364" y="211" type="line"/>
      <point x="334" y="236"/>
      <point x="289" y="257"/>
      <point x="224" y="257" type="curve" smooth="yes"/>
      <point x="142" y="257"/>
      <point x="68" y="216"/>
    </contour>
    <contour>
      <point x="92" y="382" type="curve"/>
      <point x="76" y="406" type="line"/>
      <point x="110" y="435"/>
      <point x="162" y="470"/>
      <point x="238" y="470" type="curve" smooth="yes"/>
      <point x="332" y="470"/>
      <point x="383" y="412"/>
      <point x="383" y="323" type="curve" smooth="yes"/>
      <point x="383" y="0" type="line"/>
      <point x="352" y="0" type="line"/>
      <point x="352" y="323" type="line" smooth="yes"/>
      <point x="352" y="397"/>
      <point x="311" y="442"/>
      <point x="238" y="442" type="curve" smooth="yes"/>
      <point x="172" y="442"/>
      <point x="124" y="412"/>
    </contour>
    <contour>
      <point x="238" y="660" type="line"/>
      <point x="98" y="537" type="line"/>
      <point x="78" y="554" type="line"/>
      <point x="238" y="694" type="line"/>
      <point x="398" y="554" type="line"/>
      <point x="378" y="537" type="line"/>
    </contour>
  </outline>
</glyph>
<glyph name="ae" format="2">
  <advance width="825"/>
  <unicode hex="00E6"/>
  <outline>
    <contour>
      <point x="198" y="-10" type="curve" smooth="yes"/>
      <point x="102" y="-10"/>
      <point x="37" y="48"/>
      <point x="37" y="130" type="curve" smooth="yes"/>
      <point x="37" y="222"/>
      <point x="114" y="282"/>
      <point x="226" y="282" type="curve" smooth="yes"/>
      <point x="282" y="282"/>
      <point x="328" y="266"/>
      <point x="368" y="233" type="curve"/>
      <point x="352" y="232" type="line"/>
      <point x="352" y="314" type="line" smooth="yes"/>
      <point x="352" y="397"/>
      <point x="312" y="442"/>
      <point x="239" y="442" type="curve" smooth="yes"/>
      <point x="187" y="442"/>
      <point x="134" y="420"/>
      <point x="92" y="382" type="curve"/>
      <point x="76" y="406" type="line"/>
      <point x="122" y="446"/>
      <point x="181" y="470"/>
      <point x="241" y="470" type="curve" smooth="yes"/>
      <point x="333" y="470"/>
      <point x="378" y="414"/>
      <point x="376" y="304" type="curve"/>
      <point x="370" y="304" type="line"/>
      <point x="395" y="402"/>
      <point x="482" y="470"/>
      <point x="583" y="470" type="curve" smooth="yes"/>
      <point x="699" y="470"/>
      <point x="788" y="374"/>
      <point x="788" y="248" type="curve" smooth="yes"/>
      <point x="788" y="238"/>
      <point x="787" y="232"/>
      <point x="785" y="222" type="curve"/>
      <point x="374" y="222" type="line"/>
      <point x="384" y="230" type="line"/>
      <point x="384" y="101"/>
      <point x="454" y="20"/>
      <point x="566" y="20" type="curve" smooth="yes"/>
      <point x="644" y="20"/>
      <point x="712" y="57"/>
      <point x="755" y="124" type="curve"/>
      <point x="780" y="107" type="line"/>
      <point x="734" y="32"/>
      <point x="654" y="-10"/>
      <point x="563" y="-10" type="curve" smooth="yes"/>
      <point x="457" y="-10"/>
      <point x="390" y="49"/>
      <point x="366" y="158" type="curve"/>
      <point x="373" y="158" type="line"/>
      <point x="361" y="52"/>
      <point x="295" y="-10"/>
    </contour>
    <contour>
      <point x="198" y="18" type="curve" smooth="yes"/>
      <point x="291" y="18"/>
      <point x="348" y="82"/>
      <point x="358" y="196" type="curve"/>
      <point x="356" y="160" type="line"/>
      <point x="352" y="228" type="line"/>
      <point x="357" y="215" type="line"/>
      <point x="327" y="241"/>
      <point x="279" y="257"/>
      <point x="226" y="257" type="curve" smooth="yes"/>
      <point x="130" y="257"/>
      <point x="68" y="208"/>
      <point x="68" y="133" type="curve" smooth="yes"/>
      <point x="68" y="65"/>
      <point x="120" y="18"/>
    </contour>
    <contour>
      <point x="384" y="237" type="curve"/>
      <point x="374" y="250" type="line"/>
      <point x="764" y="250" type="line"/>
      <point x="752" y="239" type="line"/>
      <point x="754" y="243"/>
      <point x="754" y="248"/>
      <point x="754" y="256" type="curve" smooth="yes"/>
      <point x="754" y="362"/>
      <point x="678" y="442"/>
      <point x="576" y="442" type="curve" smooth="yes"/>
      <point x="467" y="442"/>
      <point x="384" y="353"/>
    </contour>
  </outline>
</glyph>
<glyph name="ccedilla" format="2">
  <advance width="485"/>
  <unicode hex="00E7"/>
  <outline>
    <contour>
      <point x="68" y="230" type="curve" smooth="yes"/>
      <point x="68" y="108"/>
      <point x="158" y="20"/>
      <point x="272" y="20" type="curve" smooth="yes"/>
      <point x="346" y="20"/>
      <point x="407" y="58"/>
      <point x="428" y="88" type="curve"/>
      <point x="428" y="48" type="line"/>
      <point x="403" y="19"/>
      <point x="342" y="-10"/>
      <point x="272" y="-10" type="curve" smooth="yes"/>
      <point x="139" y="-10"/>
      <point x="37" y="91"/>
      <point x="37" y="230" type="curve" smooth="yes"/>
      <point x="37" y="369"/>
      <point x="139" y="470"/>
      <point x="272" y="470" type="curve" smooth="yes"/>
      <point x="342" y="470"/>
      <point x="403" y="440"/>
      <point x="428" y="412" type="curve"/>
      <point x="428" y="372" type="line"/>
      <point x="407" y="402"/>
      <point x="346" y="440"/>
      <point x="272" y="440" type="curve" smooth="yes"/>
      <point x="158" y="440"/>
      <point x="68" y="352"/>
    </contour>
    <contour>
      <point x="264" y="16" type="line"/>
      <point x="290" y="16" type="line"/>
      <point x="232" y="-71" type="line"/>
      <point x="251" y="-60"/>
      <point x="260" y="-54"/>
      <point x="284" y="-54" type="curve" smooth="yes"/>
      <point x="317" y="-54"/>
      <point x="357" y="-79"/>
      <point x="357" y="-128" type="curve" smooth="yes"/>
      <point x="357" y="-189"/>
      <point x="305" y="-222"/>
      <point x="250" y="-222" type="curve" smooth="yes"/>
      <point x="213" y="-222"/>
      <point x="189" y="-212"/>
      <point x="161" y="-184" type="curve"/>
      <point x="176" y="-168" type="line"/>
      <point x="202" y="-190"/>
      <point x="219" y="-199"/>
      <point x="250" y="-199" type="curve" smooth="yes"/>
      <point x="293" y="-199"/>
      <point x="333" y="-174"/>
      <point x="333" y="-128" type="curve" smooth="yes"/>
      <point x="333" y="-90"/>
      <point x="304" y="-73"/>
      <point x="274" y="-73" type="curve" smooth="yes"/>
      <point x="250" y="-73"/>
      <point x="222" y="-80"/>
      <point x="200" y="-96" type="curve"/>
    </contour>
  </outline>
</glyph>
<glyph name="egrave" format="2">
  <advance width="505"/>
  <unicode hex="00E8"/>
  <outline>
    <contour>
      <point x="62" y="222" type="line"/>
      <point x="62" y="250" type="line"/>
      <point x="430" y="250" type="line"/>
      <point x="434" y="361"/>
      <point x="355" y="442"/>
      <point x="258" y="442" type="curve" smooth="yes"/>
      <point x="162" y="442"/>
      <point x="74" y="366"/>
      <point x="74" y="240" type="curve"/>
      <point x="74" y="232" type="line"/>
      <point x="74" y="108"/>
      <point x="150" y="20"/>
      <point x="254" y="20" type="curve" smooth="yes"/>
      <point x="356" y="20"/>
      <point x="401" y="74"/>
      <point x="431" y="124" type="curve"/>
      <point x="456" y="107" type="line"/>
      <point x="421" y="53"/>
      <point x="374" y="-10"/>
      <point x="251" y="-10" type="curve" smooth="yes"/>
      <point x="133" y="-10"/>
      <point x="42" y="93"/>
      <point x="42" y="232" type="curve" smooth="yes"/>
      <point x="42" y="256"/>
      <point x="44" y="278"/>
      <point x="50" y="300" type="curve" smooth="yes"/>
      <point x="74" y="400"/>
      <point x="154" y="470"/>
      <point x="258" y="470" type="curve" smooth="yes"/>
      <point x="370" y="470"/>
      <point x="464" y="379"/>
      <point x="464" y="248" type="curve" smooth="yes"/>
      <point x="464" y="240"/>
      <point x="463" y="230"/>
      <point x="462" y="222" type="curve"/>
    </contour>
    <contour>
      <point x="114" y="688" type="line"/>
      <point x="142" y="706" type="line"/>
      <point x="306" y="546" type="line"/>
      <point x="288" y="533" type="line"/>
    </contour>
  </outline>
</glyph>
<glyph name="edieresis" format="2">
  <advance width="505"/>
  <unicode hex="00EB"/>
  <outline>
    <contour>
      <point x="62" y="222" type="line"/>
      <point x="62" y="250" type="line"/>
      <point x="430" y="250" type="line"/>
      <point x="434" y="361"/>
      <point x="355" y="442"/>
      <point x="258" y="442" type="curve" smooth="yes"/>
      <point x="162" y="442"/>
      <point x="74" y="366"/>
      <point x="74" y="240" type="curve"/>
      <point x="74" y="232" type="line"/>
      <point x="74" y="108"/>
      <point x="150" y="20"/>
      <point x="254" y="20" type="curve" smooth="yes"/>
      <point x="356" y="20"/>
      <point x="401" y="74"/>
      <point x="431" y="124" type="curve"/>
      <point x="456" y="107" type="line"/>
      <point x="421" y="53"/>
      <point x="374" y="-10"/>
      <point x="251" y="-10" type="curve" smooth="yes"/>
      <point x="133" y="-10"/>
      <point x="42" y="93"/>
      <point x="42" y="232" type="curve" smooth="yes"/>
      <point x="42" y="256"/>
      <point x="44" y="278"/>
      <point x="50" y="300" type="curve" smooth="yes"/>
      <point x="74" y="400"/>
      <point x="154" y="470"/>
      <point x="258" y="470" type="curve" smooth="yes"/>
      <point x="370" y="470"/>
      <point x="464" y="379"/>
      <point x="464" y="248" type="curve" smooth="yes"/>
      <point x="464" y="240"/>
      <point x="463" y="230"/>
      <point x="462" y="222" type="curve"/>
    </contour>
    <contour>
      <point x="333" y="554" type="curve" smooth="yes"/>
      <point x="333" y="568"/>
      <point x="345" y="578"/>
      <point x="358" y="578" type="curve" smooth="yes"/>
      <point x="371" y="578"/>
      <point x="382" y="568"/>
      <point x="382" y="554" type="curve" smooth="yes"/>
      <point x="382" y="540"/>
      <point x="371" y="530"/>
      <point x="358" y="530" type="curve" smooth="yes"/>
      <point x="345" y="530"/>
      <point x="333" y="540"/>
    </contour>
    <contour>
      <point x="133" y="554" type="curve" smooth="yes"/>
      <point x="133" y="568"/>
      <point x="145" y="578"/>
      <point x="158" y="578" type="curve" smooth="yes"/>
      <point x="171" y="578"/>
      <point x="182" y="568"/>
      <point x="182" y="554" type="curve" smooth="yes"/>
      <point x="182" y="540"/>
      <point x="171" y="530"/>
      <point x="158" y="530" type="curve" smooth="yes"/>
      <point x="145" y="530"/>
      <point x="133" y="540"/>
    </contour>
  </outline>
</glyph>
<glyph name="igrave" format="2">
  <advance width="211"/>
  <unicode hex="00EC"/>
  <outline>
    <contour>
      <point x="90" y="460" type="line"/>
      <point x="121" y="460" type="line"/>
      <point x="121" y="0" type="line"/>
      <point x="90" y="0" type="line"/>
    </contour>
    <contour>
      <point x="-51" y="691" type="line"/>
      <point x="-23" y="708" type="line"/>
      <point x="141" y="548" type="line"/>
      <point x="124" y="536" type="line"/>
    </contour>
  </outline>
</glyph>
<glyph name="icircumflex" format="2">
  <advance width="211"/>
  <unicode hex="00EE"/>
  <outline>
    <contour>
      <point x="90" y="460" type="line"/>
      <point x="121" y="460" type="line"/>
      <point x="121" y="0" type="line"/>
      <point x="90" y="0" type="line"/>
    </contour>
    <contour>
      <point x="106" y="656" type="line"/>
      <point x="-34" y="533" type="line"/>
      <point x="-54" y="550" type="line"/>
      <point x="106" y="690" type="line"/>
      <point x="266" y="550" type="line"/>
      <point x="246" y="533" type="line"/>
    </contour>
  </outline>
</glyph>
<glyph name="idieresis" format="2">
  <advance width="211"/>
  <unicode hex="00EF"/>
  <outline>
    <contour>
      <point x="90" y="460" type="line"/>
      <point x="121" y="460" type="line"/>
      <point x="121" y="0" type="line"/>
      <point x="90" y="0" type="line"/>
    </contour>
    <contour>
      <point x="168" y="563" type="curve" smooth="yes"/>
      <point x="168" y="577"/>
      <point x="179" y="588"/>
      <point x="192" y="588" type="curve" smooth="yes"/>
      <point x="205" y="588"/>
      <point x="216" y="577"/>
      <point x="216" y="563" type="curve" smooth="yes"/>
      <point x="216" y="549"/>
      <point x="205" y="539"/>
      <point x="192" y="539" type="curve" smooth="yes"/>
      <point x="179" y="539"/>
      <point x="168" y="549"/>
    </contour>
    <contour>
      <point x="-4" y="563" type="curve" smooth="yes"/>
      <point x="-4" y="577"/>
      <point x="7" y="588"/>
      <point x="20" y="588" type="curve" smooth="yes"/>
      <point x="33" y="588"/>
      <point x="44" y="577"/>
      <point x="44" y="563" type="curve" smooth="yes"/>
      <point x="44" y="549"/>
      <point x="33" y="539"/>
      <point x="20" y="539" type="curve" smooth="yes"/>
      <point x="7" y="539"/>
      <point x="-4" y="549"/>
    </contour>
  </outline>
</glyph>
<glyph name="eth" format="2">
  <advance width="548"/>
  <unicode hex="00F0"/>
  <outline>
    <contour>
      <point x="274" y="-10" type="curve" smooth="yes"/>
      <point x="140" y="-10"/>
      <point x="50" y="85"/>
      <point x="50" y="223" type="curve" smooth="yes"/>
      <point x="50" y="347"/>
      <point x="141" y="443"/>
      <point x="257" y="443" type="curve" smooth="yes"/>
      <point x="327" y="443"/>
      <point x="390" y="416"/>
      <point x="440" y="364" type="curve"/>
      <point x="426" y="364" type="line"/>
      <point x="362" y="472"/>
      <point x="321" y="526"/>
      <point x="191" y="686" type="curve"/>
      <point x="210" y="708" type="line"/>
      <point x="442" y="413"/>
      <point x="498" y="333"/>
      <point x="498" y="223" type="curve" smooth="yes"/>
      <point x="498" y="85"/>
      <point x="408" y="-10"/>
    </contour>
    <contour>
      <point x="274" y="20" type="curve" smooth="yes"/>
      <point x="387" y="20"/>
      <point x="466" y="105"/>
      <point x="466" y="223" type="curve" smooth="yes"/>
      <point x="466" y="335"/>
      <point x="381" y="418"/>
      <point x="266" y="418" type="curve" smooth="yes"/>
      <point x="164" y="418"/>
      <point x="82" y="330"/>
      <point x="82" y="223" type="curve" smooth="yes"/>
      <point x="82" y="105"/>
      <point x="161" y="20"/>
    </contour>
    <contour>
      <point x="180" y="515" type="line"/>
      <point x="172" y="536" type="line"/>
      <point x="429" y="645" type="line"/>
      <point x="438" y="624" type="line"/>
    </contour>
  </outline>
</glyph>
<glyph name="ograve" format="2">
  <advance width="553"/>
  <unicode hex="00F2"/>
  <outline>
    <contour>
      <point x="42" y="230" type="curve" smooth="yes"/>
      <point x="42" y="369"/>
      <point x="143" y="470"/>
      <point x="276" y="470" type="curve" smooth="yes"/>
      <point x="409" y="470"/>
      <point x="511" y="369"/>
      <point x="511" y="230" type="curve" smooth="yes"/>
      <point x="511" y="91"/>
      <point x="409" y="-10"/>
      <point x="276" y="-10" type="curve" smooth="yes"/>
      <point x="143" y="-10"/>
      <point x="42" y="91"/>
    </contour>
    <contour>
      <point x="74" y="230" type="curve" smooth="yes"/>
      <point x="74" y="108"/>
      <point x="162" y="20"/>
      <point x="276" y="20" type="curve" smooth="yes"/>
      <point x="390" y="20"/>
      <point x="480" y="108"/>
      <point x="480" y="230" type="curve" smooth="yes"/>
      <point x="480" y="352"/>
      <point x="390" y="440"/>
      <point x="276" y="440" type="curve" smooth="yes"/>
      <point x="162" y="440"/>
      <point x="74" y="352"/>
    </contour>
    <contour>
      <point x="134" y="691" type="line"/>
      <point x="162" y="708" type="line"/>
      <point x="326" y="548" type="line"/>
      <point x="309" y="536" type="line"/>
    </contour>
  </outline>
</glyph>
<glyph name="divide" format="2">
  <advance width="623"/>
  <unicode hex="00F7"/>
  <outline>
    <contour>
      <point x="286" y="450" type="curve" smooth="yes"/>
      <point x="286" y="464"/>
      <point x="297" y="475"/>
      <point x="310" y="475" type="curve" smooth="yes"/>
      <point x="323" y="475"/>
      <point x="334" y="464"/>
      <point x="334" y="450" type="curve" smooth="yes"/>
      <point x="334" y="436"/>
      <point x="323" y="426"/>
      <point x="310" y="426" type="curve" smooth="yes"/>
      <point x="297" y="426"/>
      <point x="286" y="436"/>
    </contour>
    <contour>
      <point x="286" y="42" type="curve" smooth="yes"/>
      <point x="286" y="56"/>
      <point x="297" y="67"/>
      <point x="310" y="67" type="curve" smooth="yes"/>
      <point x="323" y="67"/>
      <point x="334" y="56"/>
      <point x="334" y="42" type="curve" smooth="yes"/>
      <point x="334" y="28"/>
      <point x="323" y="18"/>
      <point x="310" y="18" type="curve" smooth="yes"/>
      <point x="297" y="18"/>
      <point x="286" y="28"/>
    </contour>
    <contour>
      <point x="60" y="232" type="line"/>
      <point x="60" y="263" type="line"/>
      <point x="560" y="263" type="line"/>
      <point x="560" y="232" type="line"/>
    </contour>
  </outline>
</glyph>
<glyph name="Abreve" format="2">
  <advance width="618"/>
  <unicode hex="0102"/>
  <outline>
    <contour>
      <point x="133" y="254" type="line"/>
      <point x="142" y="284" type="line"/>
      <point x="476" y="284" type="line"/>
      <point x="486" y="254" type="line"/>
    </contour>
    <contour>
      <point x="309" y="644" type="line"/>
      <point x="159" y="273" type="line"/>
      <point x="156" y="265" type="line"/>
      <point x="49" y="0" type="line"/>
      <point x="12" y="0" type="line"/>
      <point x="309" y="721" type="line"/>
      <point x="606" y="0" type="line"/>
      <point x="569" y="0" type="line"/>
      <point x="464" y="263" type="line"/>
      <point x="460" y="271" type="line"/>
    </contour>
    <contour>
      <point x="151" y="928" type="curve"/>
      <point x="180" y="928" type="line"/>
      <point x="180" y="874"/>
      <point x="223" y="814"/>
      <point x="309" y="814" type="curve" smooth="yes"/>
      <point x="395" y="814"/>
      <point x="438" y="874"/>
      <point x="438" y="928" type="curve"/>
      <point x="467" y="928" type="line"/>
      <point x="467" y="859"/>
      <point x="414" y="788"/>
      <point x="309" y="788" type="curve" smooth="yes"/>
      <point x="204" y="788"/>
      <point x="151" y="859"/>
    </contour>
  </outline>
</glyph>
<glyph name="Aogonek" format="2">
  <advance width="618"/>
  <unicode hex="0104"/>
  <outline>
    <contour>
      <point x="134" y="254" type="line"/>
      <point x="144" y="284" type="line"/>
      <point x="476" y="284" type="line"/>
      <point x="486" y="254" type="line"/>
    </contour>
    <contour>
      <point x="309" y="644" type="line"/>
      <point x="159" y="273" type="line"/>
      <point x="156" y="265" type="line"/>
      <point x="49" y="0" type="line"/>
      <point x="12" y="0" type="line"/>
      <point x="309" y="721" type="line"/>
      <point x="606" y="0" type="line"/>
      <point x="569" y="0" type="line"/>
      <point x="464" y="263" type="line"/>
      <point x="460" y="271" type="line"/>
    </contour>
    <contour>
      <point x="632" y="-160" type="curve"/>
      <point x="646" y="-180" type="line"/>
      <point x="631" y="-200"/>
      <point x="594" y="-220"/>
      <point x="551" y="-220" type="curve" smooth="yes"/>
      <point x="481" y="-220"/>
      <point x="442" y="-186"/>
      <point x="442" y="-134" type="curve" smooth="yes"/>
      <point x="442" y="-68"/>
      <point x="519" y="-22"/>
      <point x="589" y="14" type="curve"/>
      <point x="606" y="0" type="line"/>
      <point x="543" y="-29"/>
      <point x="473" y="-77"/>
      <point x="473" y="-128" type="curve" smooth="yes"/>
      <point x="473" y="-171"/>
      <point x="508" y="-192"/>
      <point x="552" y="-192" type="curve" smooth="yes"/>
      <point x="588" y="-192"/>
      <point x="618" y="-176"/>
    </contour>
  </outline>
</glyph>
<glyph name="ccircumflex" format="2">
  <advance width="485"/>
  <unicode hex="0109"/>
  <outline>
    <contour>
      <point x="68" y="230" type="curve" smooth="yes"/>
      <point x="68" y="108"/>
      <point x="158" y="20"/>
      <point x="272" y="20" type="curve" smooth="yes"/>
      <point x="346" y="20"/>
      <point x="407" y="58"/>
      <point x="428" y="88" type="curve"/>
      <point x="428" y="48" type="line"/>
      <point x="403" y="19"/>
      <point x="342" y="-10"/>
      <point x="272" y="-10" type="curve" smooth="yes"/>
      <point x="139" y="-10"/>
      <point x="37" y="91"/>
      <point x="37" y="230" type="curve" smooth="yes"/>
      <point x="37" y="369"/>
      <point x="139" y="470"/>
      <point x="272" y="470" type="curve" smooth="yes"/>
      <point x="342" y="470"/>
      <point x="403" y="440"/>
      <point x="428" y="412" type="curve"/>
      <point x="428" y="372" type="line"/>
      <point x="407" y="402"/>
      <point x="346" y="440"/>
      <point x="272" y="440" type="curve" smooth="yes"/>
      <point x="158" y="440"/>
      <point x="68" y="352"/>
    </contour>
    <contour>
      <point x="272" y="653" type="line"/>
      <point x="132" y="530" type="line"/>
      <point x="112" y="547" type="line"/>
      <point x="272" y="687" type="line"/>
      <point x="432" y="547" type="line"/>
      <point x="412" y="530" type="line"/>
    </contour>
  </outline>
</glyph>
<glyph name="ccaron" format="2">
  <advance width="485"/>
  <unicode hex="010D"/>
  <outline>
    <contour>
      <point x="68" y="230" type="curve" smooth="yes"/>
      <point x="68" y="108"/>
      <point x="158" y="20"/>
      <point x="272" y="20" type="curve" smooth="yes"/>
      <point x="346" y="20"/>
      <point x="407" y="58"/>
      <point x="428" y="88" type="curve"/>
      <point x="428" y="48" type="line"/>
      <point x="403" y="19"/>
      <point x="342" y="-10"/>
      <point x="272" y="-10" type="curve" smooth="yes"/>
      <point x="139" y="-10"/>
      <point x="37" y="91"/>
      <point x="37" y="230" type="curve" smooth="yes"/>
      <point x="37" y="369"/>
      <point x="139" y="470"/>
      <point x="272" y="470" type="curve" smooth="yes"/>
      <point x="342" y="470"/>
      <point x="403" y="440"/>
      <point x="428" y="412" type="curve"/>
      <point x="428" y="372" type="line"/>
      <point x="407" y="402"/>
      <point x="346" y="440"/>
      <point x="272" y="440" type="curve" smooth="yes"/>
      <point x="158" y="440"/>
      <point x="68" y="352"/>
    </contour>
    <contour>
      <point x="272" y="578" type="line"/>
      <point x="411" y="702" type="line"/>
      <point x="432" y="684" type="line"/>
      <point x="272" y="544" type="line"/>
      <point x="112" y="684" type="line"/>
      <point x="132" y="702" type="line"/>
    </contour>
  </outline>
</glyph>
<glyph name="dcaron" format="2">
  <advance width="570"/>
  <unicode hex="010F"/>
  <outline>
    <contour>
      <point x="442" y="780" type="line"/>
      <point x="472" y="780" type="line"/>
      <point x="472" y="0" type="line"/>
      <point x="442" y="0" type="line"/>
    </contour>
    <contour>
      <point x="42" y="230" type="curve" smooth="yes"/>
      <point x="42" y="378"/>
      <point x="138" y="470"/>
      <point x="260" y="470" type="curve" smooth="yes"/>
      <point x="380" y="470"/>
      <point x="456" y="358"/>
      <point x="456" y="230" type="curve" smooth="yes"/>
      <point x="456" y="102"/>
      <point x="380" y="-10"/>
      <point x="260" y="-10" type="curve" smooth="yes"/>
      <point x="138" y="-10"/>
      <point x="42" y="82"/>
    </contour>
    <contour>
      <point x="74" y="230" type="curve" smooth="yes"/>
      <point x="74" y="100"/>
      <point x="158" y="20"/>
      <point x="264" y="20" type="curve" smooth="yes"/>
      <point x="362" y="20"/>
      <point x="442" y="117"/>
      <point x="442" y="230" type="curve" smooth="yes"/>
      <point x="442" y="343"/>
      <point x="362" y="440"/>
      <point x="264" y="440" type="curve" smooth="yes"/>
      <point x="158" y="440"/>
      <point x="74" y="360"/>
    </contour>
    <contour>
      <point x="644" y="769" type="line"/>
      <point x="676" y="756" type="line"/>
      <point x="566" y="506" type="line"/>
      <point x="544" y="514" type="line"/>
    </contour>
  </outline>
</glyph>
<glyph name="Ecaron" format="2">
  <advance width="522"/>
  <unicode hex="011A"/>
  <outline>
    <contour>
      <point x="102" y="0" type="line"/>
      <point x="102" y="31" type="line"/>
      <point x="445" y="31" type="line"/>
      <point x="445" y="0" type="line"/>
    </contour>
    <contour>
      <point x="102" y="669" type="line"/>
      <point x="102" y="700" type="line"/>
      <point x="445" y="700" type="line"/>
      <point x="445" y="669" type="line"/>
    </contour>
    <contour>
      <point x="102" y="371" type="line"/>
      <point x="102" y="402" type="line"/>
      <point x="425" y="402" type="line"/>
      <point x="425" y="371" type="line"/>
    </contour>
    <contour>
      <point x="87" y="700" type="line"/>
      <point x="120" y="700" type="line"/>
      <point x="120" y="0" type="line"/>
      <point x="87" y="0" type="line"/>
    </contour>
    <contour>
      <point x="266" y="802" type="line"/>
      <point x="406" y="926" type="line"/>
      <point x="426" y="908" type="line"/>
      <point x="266" y="768" type="line"/>
      <point x="106" y="908" type="line"/>
      <point x="126" y="926" type="line"/>
    </contour>
  </outline>
</glyph>
<glyph name="Gcircumflex" format="2">
  <advance width="768"/>
  <unicode hex="011C"/>
  <outline>
    <contour>
      <point x="416" y="314" type="line"/>
      <point x="416" y="344" type="line"/>
      <point x="716" y="344" type="line"/>
      <point x="716" y="157"/>
      <point x="592" y="-8"/>
      <point x="392" y="-8" type="curve" smooth="yes"/>
      <point x="195" y="-8"/>
      <point x="47" y="141"/>
      <point x="47" y="350" type="curve" smooth="yes"/>
      <point x="47" y="559"/>
      <point x="195" y="708"/>
      <point x="392" y="708" type="curve" smooth="yes"/>
      <point x="521" y="708"/>
      <point x="614" y="648"/>
      <point x="674" y="558" type="curve"/>
      <point x="648" y="537" type="line"/>
      <point x="600" y="617"/>
      <point x="510" y="676"/>
      <point x="392" y="676" type="curve" smooth="yes"/>
      <point x="214" y="676"/>
      <point x="82" y="541"/>
      <point x="82" y="350" type="curve" smooth="yes"/>
      <point x="82" y="161"/>
      <point x="213" y="24"/>
      <point x="392" y="24" type="curve" smooth="yes"/>
      <point x="562" y="24"/>
      <point x="670" y="159"/>
      <point x="680" y="314" type="curve"/>
    </contour>
    <contour>
      <point x="392" y="892" type="line"/>
      <point x="252" y="768" type="line"/>
      <point x="232" y="786" type="line"/>
      <point x="392" y="926" type="line"/>
      <point x="552" y="786" type="line"/>
      <point x="532" y="768" type="line"/>
    </contour>
  </outline>
</glyph>
<glyph name="gbreve" format="2">
  <advance width="549"/>
  <unicode hex="011F"/>
  <outline>
    <contour>
      <point x="55" y="-30" type="curve"/>
      <point x="86" y="-30" type="line"/>
      <point x="86" y="-131"/>
      <point x="156" y="-200"/>
      <point x="258" y="-200" type="curve" smooth="yes"/>
      <point x="354" y="-200"/>
      <point x="442" y="-134"/>
      <point x="442" y="10" type="curve" smooth="yes"/>
      <point x="442" y="460" type="line"/>
      <point x="472" y="460" type="line"/>
      <point x="472" y="10" type="line" smooth="yes"/>
      <point x="472" y="-149"/>
      <point x="373" y="-230"/>
      <point x="258" y="-230" type="curve" smooth="yes"/>
      <point x="137" y="-230"/>
      <point x="55" y="-149"/>
    </contour>
    <contour>
      <point x="42" y="230" type="curve" smooth="yes"/>
      <point x="42" y="378"/>
      <point x="138" y="470"/>
      <point x="260" y="470" type="curve" smooth="yes"/>
      <point x="380" y="470"/>
      <point x="456" y="358"/>
      <point x="456" y="230" type="curve" smooth="yes"/>
      <point x="456" y="102"/>
      <point x="380" y="-10"/>
      <point x="260" y="-10" type="curve" smooth="yes"/>
      <point x="138" y="-10"/>
      <point x="42" y="82"/>
    </contour>
    <contour>
      <point x="74" y="230" type="curve" smooth="yes"/>
      <point x="74" y="100"/>
      <point x="158" y="20"/>
      <point x="264" y="20" type="curve" smooth="yes"/>
      <point x="362" y="20"/>
      <point x="442" y="118"/>
      <point x="442" y="234" type="curve" smooth="yes"/>
      <point x="442" y="340"/>
      <point x="362" y="440"/>
      <point x="264" y="440" type="curve" smooth="yes"/>
      <point x="158" y="440"/>
      <point x="74" y="360"/>
    </contour>
    <contour>
      <point x="102" y="670" type="curve"/>
      <point x="130" y="670" type="line"/>
      <point x="130" y="616"/>
      <point x="174" y="556"/>
      <point x="260" y="556" type="curve" smooth="yes"/>
      <point x="346" y="556"/>
      <point x="389" y="616"/>
      <point x="389" y="670" type="curve"/>
      <point x="418" y="670" type="line"/>
      <point x="418" y="601"/>
      <point x="365" y="530"/>
      <point x="260" y="530" type="curve" smooth="yes"/>
      <point x="155" y="530"/>
      <point x="102" y="601"/>
    </contour>
  </outline>
</glyph>
<glyph name="gdotaccent" format="2">
  <advance width="549"/>
  <unicode hex="0121"/>
  <outline>
    <contour>
      <point x="55" y="-30" type="curve"/>
      <point x="86" y="-30" type="line"/>
      <point x="86" y="-131"/>
      <point x="156" y="-200"/>
      <point x="258" y="-200" type="curve" smooth="yes"/>
      <point x="354" y="-200"/>
      <point x="442" y="-134"/>
      <point x="442" y="10" type="curve" smooth="yes"/>
      <point x="442" y="460" type="line"/>
      <point x="472" y="460" type="line"/>
      <point x="472" y="10" type="line" smooth="yes"/>
      <point x="472" y="-149"/>
      <point x="373" y="-230"/>
      <point x="258" y="-230" type="curve" smooth="yes"/>
      <point x="137" y="-230"/>
      <point x="55" y="-149"/>
    </contour>
    <contour>
      <point x="42" y="230" type="curve" smooth="yes"/>
      <point x="42" y="378"/>
      <point x="138" y="470"/>
      <point x="260" y="470" type="curve" smooth="yes"/>
      <point x="380" y="470"/>
      <point x="456" y="358"/>
      <point x="456" y="230" type="curve" smooth="yes"/>
      <point x="456" y="102"/>
      <point x="380" y="-10"/>
      <point x="260" y="-10" type="curve" smooth="yes"/>
      <point x="138" y="-10"/>
      <point x="42" y="82"/>
    </contour>
    <contour>
      <point x="74" y="230" type="curve" smooth="yes"/>
      <point x="74" y="100"/>
      <point x="158" y="20"/>
      <point x="264" y="20" type="curve" smooth="yes"/>
      <point x="362" y="20"/>
      <point x="442" y="118"/>
      <point x="442" y="234" type="curve" smooth="yes"/>
      <point x="442" y="340"/>
      <point x="362" y="440"/>
      <point x="264" y="440" type="curve" smooth="yes"/>
      <point x="158" y="440"/>
      <point x="74" y="360"/>
    </contour>
    <contour>
      <point x="242" y="566" type="curve" smooth="yes"/>
      <point x="242" y="580"/>
      <point x="253" y="590"/>
      <point x="266" y="590" type="curve" smooth="yes"/>
      <point x="279" y="590"/>
      <point x="290" y="580"/>
      <point x="290" y="566" type="curve" smooth="yes"/>
      <point x="290" y="552"/>
      <point x="279" y="542"/>
      <point x="266" y="542" type="curve" smooth="yes"/>
      <point x="253" y="542"/>
      <point x="242" y="552"/>
    </contour>
  </outline>
</glyph>
<glyph name="Hcircumflex" format="2">
  <advance width="667"/>
  <unicode hex="0124"/>
  <outline>
    <contour>
      <point x="103" y="366" type="line"/>
      <point x="103" y="397" type="line"/>
      <point x="569" y="397" type="line"/>
      <point x="569" y="366" type="line"/>
    </contour>
    <contour>
      <point x="547" y="700" type="line"/>
      <point x="580" y="700" type="line"/>
      <point x="580" y="0" type="line"/>
      <point x="547" y="0" type="line"/>
    </contour>
    <contour>
      <point x="87" y="700" type="line"/>
      <point x="120" y="700" type="line"/>
      <point x="120" y="0" type="line"/>
      <point x="87" y="0" type="line"/>
    </contour>
    <contour>
      <point x="334" y="892" type="line"/>
      <point x="194" y="768" type="line"/>
      <point x="174" y="786" type="line"/>
      <point x="334" y="926" type="line"/>
      <point x="494" y="786" type="line"/>
      <point x="474" y="768" type="line"/>
    </contour>
  </outline>
</glyph>
<glyph name="Idotaccent" format="2">
  <advance width="199"/>
  <unicode hex="0130"/>
  <outline>
    <contour>
      <point x="84" y="700" type="line"/>
      <point x="116" y="700" type="line"/>
      <point x="116" y="0" type="line"/>
      <point x="84" y="0" type="line"/>
    </contour>
    <contour>
      <point x="76" y="798" type="curve" smooth="yes"/>
      <point x="76" y="812"/>
      <point x="87" y="822"/>
      <point x="100" y="822" type="curve" smooth="yes"/>
      <point x="113" y="822"/>
      <point x="124" y="812"/>
      <point x="124" y="798" type="curve" smooth="yes"/>
      <point x="124" y="784"/>
      <point x="113" y="774"/>
      <point x="100" y="774" type="curve" smooth="yes"/>
      <point x="87" y="774"/>
      <point x="76" y="784"/>
    </contour>
  </outline>
</glyph>
<glyph name="IJ" format="2">
  <advance width="490"/>
  <unicode hex="0132"/>
  <outline>
    <contour>
      <point x="141" y="-142" type="line"/>
      <point x="162" y="-166"/>
      <point x="199" y="-188"/>
      <point x="242" y="-188" type="curve" smooth="yes"/>
      <point x="314" y="-188"/>
      <point x="341" y="-151"/>
      <point x="341" y="-50" type="curve" smooth="yes"/>
      <point x="341" y="700" type="line"/>
      <point x="373" y="700" type="line"/>
      <point x="373" y="-60" type="line" smooth="yes"/>
      <point x="373" y="-169"/>
      <point x="335" y="-220"/>
      <point x="241" y="-220" type="curve" smooth="yes"/>
      <point x="188" y="-220"/>
      <point x="138" y="-186"/>
      <point x="123" y="-166" type="curve"/>
    </contour>
    <contour>
      <point x="84" y="700" type="line"/>
      <point x="116" y="700" type="line"/>
      <point x="116" y="0" type="line"/>
      <point x="84" y="0" type="line"/>
    </contour>
  </outline>
</glyph>
<glyph name="ij" format="2">
  <advance width="510"/>
  <unicode hex="0133"/>
  <outline>
    <contour>
      <point x="332" y="682" type="curve" smooth="yes"/>
      <point x="332" y="695"/>
      <point x="342" y="705"/>
      <point x="356" y="705" type="curve" smooth="yes"/>
      <point x="370" y="705"/>
      <point x="379" y="695"/>
      <point x="379" y="682" type="curve" smooth="yes"/>
      <point x="379" y="669"/>
      <point x="370" y="658"/>
      <point x="356" y="658" type="curve" smooth="yes"/>
      <point x="342" y="658"/>
      <point x="332" y="669"/>
    </contour>
    <contour>
      <point x="188" y="-150" type="line"/>
      <point x="204" y="-171"/>
      <point x="227" y="-189"/>
      <point x="257" y="-189" type="curve" smooth="yes"/>
      <point x="322" y="-189"/>
      <point x="340" y="-131"/>
      <point x="340" y="-72" type="curve" smooth="yes"/>
      <point x="340" y="460" type="line"/>
      <point x="371" y="460" type="line"/>
      <point x="371" y="-76" type="line" smooth="yes"/>
      <point x="371" y="-157"/>
      <point x="340" y="-220"/>
      <point x="256" y="-220" type="curve" smooth="yes"/>
      <point x="213" y="-220"/>
      <point x="185" y="-194"/>
      <point x="170" y="-174" type="curve"/>
    </contour>
    <contour>
      <point x="82" y="682" type="curve" smooth="yes"/>
      <point x="82" y="695"/>
      <point x="92" y="705"/>
      <point x="106" y="705" type="curve" smooth="yes"/>
      <point x="120" y="705"/>
      <point x="129" y="695"/>
      <point x="129" y="682" type="curve" smooth="yes"/>
      <point x="129" y="669"/>
      <point x="120" y="658"/>
      <point x="106" y="658" type="curve" smooth="yes"/>
      <point x="92" y="658"/>
      <point x="82" y="669"/>
    </contour>
    <contour>
      <point x="90" y="460" type="line"/>
      <point x="121" y="460" type="line"/>
      <point x="121" y="0" type="line"/>
      <point x="90" y="0" type="line"/>
    </contour>
  </outline>
</glyph>
<glyph name="jcircumflex" format="2">
  <advance width="201"/>
  <unicode hex="0135"/>
  <outline>
    <contour>
      <point x="-72" y="-150" type="line"/>
      <point x="-56" y="-171"/>
      <point x="-33" y="-189"/>
      <point x="-3" y="-189" type="curve" smooth="yes"/>
      <point x="62" y="-189"/>
      <point x="80" y="-131"/>
      <point x="80" y="-72" type="curve" smooth="yes"/>
      <point x="80" y="460" type="line"/>
      <point x="111" y="460" type="line"/>
      <point x="111" y="-76" type="line" smooth="yes"/>
      <point x="111" y="-157"/>
      <point x="80" y="-220"/>
      <point x="-4" y="-220" type="curve" smooth="yes"/>
      <point x="-47" y="-220"/>
      <point x="-75" y="-194"/>
      <point x="-90" y="-174" type="curve"/>
    </contour>
    <contour>
      <point x="96" y="653" type="line"/>
      <point x="-44" y="530" type="line"/>
      <point x="-64" y="547" type="line"/>
      <point x="96" y="687" type="line"/>
      <point x="256" y="547" type="line"/>
      <point x="236" y="530" type="line"/>
    </contour>
  </outline>
</glyph>
<glyph name="uni0137" format="2">
  <advance width="392"/>
  <unicode hex="0137"/>
  <outline>
    <contour>
      <point x="77" y="780" type="line"/>
      <point x="108" y="780" type="line"/>
      <point x="108" y="0" type="line"/>
      <point x="77" y="0" type="line"/>
    </contour>
    <contour>
      <point x="326" y="460" type="line"/>
      <point x="367" y="460" type="line"/>
      <point x="138" y="270" type="line"/>
      <point x="386" y="0" type="line"/>
      <point x="346" y="0" type="line"/>
      <point x="98" y="270" type="line"/>
    </contour>
    <contour>
      <point x="266" y="-60" type="line"/>
      <point x="297" y="-72" type="line"/>
      <point x="187" y="-322" type="line"/>
      <point x="166" y="-315" type="line"/>
    </contour>
  </outline>
</glyph>
<glyph name="lacute" format="2">
  <advance width="195"/>
  <unicode hex="013A"/>
  <outline>
    <contour>
      <point x="82" y="780" type="line"/>
      <point x="113" y="780" type="line"/>
      <point x="113" y="0" type="line"/>
      <point x="82" y="0" type="line"/>
    </contour>
    <contour>
      <point x="260" y="995" type="line"/>
      <point x="84" y="840" type="line"/>
      <point x="68" y="852" type="line"/>
      <point x="232" y="1012" type="line"/>
    </contour>
  </outline>
</glyph>
<glyph name="uni013B" format="2">
  <advance width="436"/>
  <unicode hex="013B"/>
  <outline>
    <contour>
      <point x="87" y="700" type="line"/>
      <point x="120" y="700" type="line"/>
      <point x="120" y="31" type="line"/>
      <point x="419" y="31" type="line"/>
      <point x="419" y="0" type="line"/>
      <point x="87" y="0" type="line"/>
    </contour>
    <contour>
      <point x="259" y="-60" type="line"/>
      <point x="291" y="-72" type="line"/>
      <point x="181" y="-322" type="line"/>
      <point x="159" y="-315" type="line"/>
    </contour>
  </outline>
</glyph>
<glyph name="Lcaron" format="2">
  <advance width="436"/>
  <unicode hex="013D"/>
  <outline>
    <contour>
      <point x="87" y="700" type="line"/>
      <point x="120" y="700" type="line"/>
      <point x="120" y="31" type="line"/>
      <point x="419" y="31" type="line"/>
      <point x="419" y="0" type="line"/>
      <point x="87" y="0" type="line"/>
    </contour>
    <contour>
      <point x="340" y="708" type="line"/>
      <point x="372" y="696" type="line"/>
      <point x="262" y="446" type="line"/>
      <point x="240" y="454" type="line"/>
    </contour>
  </outline>
</glyph>
<glyph name="lslash" format="2">
  <advance width="181"/>
  <unicode hex="0142"/>
  <outline>
    <contour>
      <point x="-4" y="373" type="line"/>
      <point x="-15" y="395" type="line"/>
      <point x="186" y="545" type="line"/>
      <point x="197" y="523" type="line"/>
    </contour>
    <contour>
      <point x="75" y="780" type="line"/>
      <point x="106" y="780" type="line"/>
      <point x="106" y="0" type="line"/>
      <point x="75" y="0" type="line"/>
    </contour>
  </outline>
</glyph>
<glyph name="uni0145" format="2">
  <advance width="698"/>
  <unicode hex="0145"/>
  <outline>
    <contour>
      <point x="359" y="-42" type="line"/>
      <point x="391" y="-54" type="line"/>
      <point x="281" y="-304" type="line"/>
      <point x="259" y="-297" type="line"/>
    </contour>
    <contour>
      <point x="592" y="700" type="line"/>
      <point x="625" y="700" type="line"/>
      <point x="625" y="-21" type="line"/>
      <point x="92" y="631" type="line"/>
      <point x="92" y="0" type="line"/>
      <point x="59" y="0" type="line"/>
      <point x="59" y="721" type="line"/>
      <point x="592" y="66" type="line"/>
    </contour>
  </outline>
</glyph>
<glyph name="ncaron" format="2">
  <advance width="490"/>
  <unicode hex="0148"/>
  <outline>
    <contour>
      <point x="113" y="460" type="line"/>
      <point x="113" y="0" type="line"/>
      <point x="82" y="0" type="line"/>
      <point x="82" y="460" type="line"/>
    </contour>
    <contour>
      <point x="377" y="308" type="line" smooth="yes"/>
      <point x="377" y="388"/>
      <point x="344" y="440"/>
      <point x="262" y="440" type="curve" smooth="yes"/>
      <point x="178" y="440"/>
      <point x="113" y="366"/>
      <point x="113" y="280" type="curve"/>
      <point x="98" y="280" type="line"/>
      <point x="98" y="389"/>
      <point x="173" y="470"/>
      <point x="268" y="470" type="curve" smooth="yes"/>
      <point x="363" y="470"/>
      <point x="408" y="409"/>
      <point x="408" y="311" type="curve" smooth="yes"/>
      <point x="408" y="0" type="line"/>
      <point x="377" y="0" type="line"/>
    </contour>
    <contour>
      <point x="245" y="564" type="line"/>
      <point x="384" y="688" type="line"/>
      <point x="405" y="670" type="line"/>
      <point x="245" y="530" type="line"/>
      <point x="85" y="670" type="line"/>
      <point x="106" y="688" type="line"/>
    </contour>
  </outline>
</glyph>
<glyph name="Eng" format="2">
  <advance width="740"/>
  <unicode hex="014A"/>
  <outline>
    <contour>
      <point x="538" y="-220" type="curve" smooth="yes"/>
      <point x="496" y="-220"/>
      <point x="468" y="-196"/>
      <point x="452" y="-174" type="curve"/>
      <point x="470" y="-150" type="line"/>
      <point x="484" y="-169"/>
      <point x="507" y="-189"/>
      <point x="539" y="-189" type="curve" smooth="yes"/>
      <point x="605" y="-189"/>
      <point x="622" y="-130"/>
      <point x="622" y="-72" type="curve" smooth="yes"/>
      <point x="622" y="14" type="line"/>
      <point x="120" y="631" type="line"/>
      <point x="120" y="0" type="line"/>
      <point x="87" y="0" type="line"/>
      <point x="87" y="721" type="line"/>
      <point x="620" y="66" type="line"/>
      <point x="620" y="700" type="line"/>
      <point x="653" y="700" type="line"/>
      <point x="653" y="-76" type="line" smooth="yes"/>
      <point x="653" y="-154"/>
      <point x="622" y="-220"/>
    </contour>
  </outline>
</glyph>
<glyph name="eng" format="2">
  <advance width="490"/>
  <unicode hex="014B"/>
  <outline>
    <contour>
      <point x="292" y="-220" type="curve" smooth="yes"/>
      <point x="259" y="-220"/>
      <point x="228" y="-203"/>
      <point x="206" y="-174" type="curve"/>
      <point x="224" y="-150" type="line"/>
      <point x="244" y="-176"/>
      <point x="268" y="-189"/>
      <point x="294" y="-189" type="curve" smooth="yes"/>
      <point x="347" y="-189"/>
      <point x="377" y="-146"/>
      <point x="377" y="-72" type="curve" smooth="yes"/>
      <point x="377" y="308" type="line" smooth="yes"/>
      <point x="377" y="395"/>
      <point x="338" y="440"/>
      <point x="262" y="440" type="curve" smooth="yes"/>
      <point x="180" y="440"/>
      <point x="113" y="369"/>
      <point x="113" y="280" type="curve" smooth="yes"/>
      <point x="113" y="0" type="line"/>
      <point x="82" y="0" type="line"/>
      <point x="82" y="460" type="line"/>
      <point x="113" y="460" type="line"/>
      <point x="113" y="346" type="line"/>
      <point x="135" y="421"/>
      <point x="196" y="470"/>
      <point x="268" y="470" type="curve" smooth="yes"/>
      <point x="359" y="470"/>
      <point x="408" y="414"/>
      <point x="408" y="311" type="curve" smooth="yes"/>
      <point x="408" y="-76" type="line" smooth="yes"/>
      <point x="408" y="-169"/>
      <point x="366" y="-220"/>
    </contour>
  </outline>
</glyph>
<glyph name="omacron" format="2">
  <advance width="553"/>
  <unicode hex="014D"/>
  <outline>
    <contour>
      <point x="42" y="230" type="curve" smooth="yes"/>
      <point x="42" y="369"/>
      <point x="143" y="470"/>
      <point x="276" y="470" type="curve" smooth="yes"/>
      <point x="409" y="470"/>
      <point x="511" y="369"/>
      <point x="511" y="230" type="curve" smooth="yes"/>
      <point x="511" y="91"/>
      <point x="409" y="-10"/>
      <point x="276" y="-10" type="curve" smooth="yes"/>
      <point x="143" y="-10"/>
      <point x="42" y="91"/>
    </contour>
    <contour>
      <point x="74" y="230" type="curve" smooth="yes"/>
      <point x="74" y="108"/>
      <point x="162" y="20"/>
      <point x="276" y="20" type="curve" smooth="yes"/>
      <point x="390" y="20"/>
      <point x="480" y="108"/>
      <point x="480" y="230" type="curve" smooth="yes"/>
      <point x="480" y="352"/>
      <point x="390" y="440"/>
      <point x="276" y="440" type="curve" smooth="yes"/>
      <point x="162" y="440"/>
      <point x="74" y="352"/>
    </contour>
    <contour>
      <point x="102" y="544" type="line"/>
      <point x="102" y="574" type="line"/>
      <point x="452" y="574" type="line"/>
      <point x="452" y="544" type="line"/>
    </contour>
  </outline>
</glyph>
<glyph name="scircumflex" format="2">
  <advance width="403"/>
  <unicode hex="015D"/>
  <outline>
    <contour>
      <point x="62" y="151" type="line"/>
      <point x="76" y="85"/>
      <point x="117" y="20"/>
      <point x="202" y="20" type="curve" smooth="yes"/>
      <point x="268" y="20"/>
      <point x="312" y="57"/>
      <point x="312" y="119" type="curve" smooth="yes"/>
      <point x="312" y="180"/>
      <point x="258" y="206"/>
      <point x="194" y="226" type="curve" smooth="yes"/>
      <point x="124" y="248"/>
      <point x="63" y="272"/>
      <point x="63" y="356" type="curve" smooth="yes"/>
      <point x="63" y="428"/>
      <point x="127" y="468"/>
      <point x="199" y="468" type="curve" smooth="yes"/>
      <point x="277" y="468"/>
      <point x="324" y="423"/>
      <point x="342" y="372" type="curve"/>
      <point x="316" y="357" type="line"/>
      <point x="298" y="400"/>
      <point x="261" y="439"/>
      <point x="199" y="439" type="curve" smooth="yes"/>
      <point x="141" y="439"/>
      <point x="94" y="410"/>
      <point x="94" y="354" type="curve" smooth="yes"/>
      <point x="94" y="286"/>
      <point x="152" y="268"/>
      <point x="216" y="248" type="curve" smooth="yes"/>
      <point x="282" y="226"/>
      <point x="344" y="191"/>
      <point x="344" y="121" type="curve" smooth="yes"/>
      <point x="344" y="36"/>
      <point x="285" y="-10"/>
      <point x="200" y="-10" type="curve" smooth="yes"/>
      <point x="101" y="-10"/>
      <point x="50" y="63"/>
      <point x="36" y="138" type="curve"/>
    </contour>
    <contour>
      <point x="199" y="653" type="line"/>
      <point x="58" y="530" type="line"/>
      <point x="39" y="547" type="line"/>
      <point x="199" y="687" type="line"/>
      <point x="359" y="547" type="line"/>
      <point x="339" y="530" type="line"/>
    </contour>
  </outline>
</glyph>
<glyph name="Scedilla" format="2">
  <advance width="506"/>
  <unicode hex="015E"/>
  <outline>
    <contour>
      <point x="68" y="206" type="line"/>
      <point x="100" y="116"/>
      <point x="156" y="23"/>
      <point x="267" y="23" type="curve" smooth="yes"/>
      <point x="382" y="23"/>
      <point x="427" y="88"/>
      <point x="427" y="178" type="curve" smooth="yes"/>
      <point x="427" y="277"/>
      <point x="339" y="324"/>
      <point x="262" y="352" type="curve" smooth="yes"/>
      <point x="185" y="380"/>
      <point x="78" y="430"/>
      <point x="78" y="544" type="curve" smooth="yes"/>
      <point x="78" y="643"/>
      <point x="157" y="708"/>
      <point x="260" y="708" type="curve" smooth="yes"/>
      <point x="373" y="708"/>
      <point x="432" y="627"/>
      <point x="456" y="553" type="curve"/>
      <point x="428" y="538" type="line"/>
      <point x="406" y="602"/>
      <point x="356" y="676"/>
      <point x="258" y="676" type="curve" smooth="yes"/>
      <point x="174" y="676"/>
      <point x="113" y="622"/>
      <point x="113" y="544" type="curve" smooth="yes"/>
      <point x="113" y="454"/>
      <point x="204" y="408"/>
      <point x="289" y="376" type="curve" smooth="yes"/>
      <point x="369" y="347"/>
      <point x="461" y="294"/>
      <point x="461" y="180" type="curve" smooth="yes"/>
      <point x="461" y="75"/>
      <point x="402" y="-8"/>
      <point x="266" y="-8" type="curve" smooth="yes"/>
      <point x="144" y="-8"/>
      <point x="74" y="88"/>
      <point x="40" y="190" type="curve"/>
    </contour>
    <contour>
      <point x="264" y="17" type="line"/>
      <point x="290" y="17" type="line"/>
      <point x="232" y="-70" type="line"/>
      <point x="251" y="-59"/>
      <point x="260" y="-53"/>
      <point x="284" y="-53" type="curve" smooth="yes"/>
      <point x="317" y="-53"/>
      <point x="357" y="-78"/>
      <point x="357" y="-127" type="curve" smooth="yes"/>
      <point x="357" y="-188"/>
      <point x="305" y="-221"/>
      <point x="250" y="-221" type="curve" smooth="yes"/>
      <point x="213" y="-221"/>
      <point x="189" y="-211"/>
      <point x="161" y="-183" type="curve"/>
      <point x="176" y="-167" type="line"/>
      <point x="202" y="-189"/>
      <point x="219" y="-198"/>
      <point x="250" y="-198" type="curve" smooth="yes"/>
      <point x="293" y="-198"/>
      <point x="333" y="-173"/>
      <point x="333" y="-127" type="curve" smooth="yes"/>
      <point x="333" y="-89"/>
      <point x="304" y="-72"/>
      <point x="274" y="-72" type="curve" smooth="yes"/>
      <point x="250" y="-72"/>
      <point x="222" y="-79"/>
      <point x="200" y="-95" type="curve"/>
    </contour>
  </outline>
</glyph>
<glyph name="scedilla" format="2">
  <advance width="403"/>
  <unicode hex="015F"/>
  <outline>
    <contour>
      <point x="62" y="152" type="line"/>
      <point x="82" y="86"/>
      <point x="122" y="20"/>
      <point x="203" y="20" type="curve" smooth="yes"/>
      <point x="267" y="20"/>
      <point x="312" y="56"/>
      <point x="312" y="118" type="curve" smooth="yes"/>
      <point x="312" y="178"/>
      <point x="258" y="206"/>
      <point x="194" y="226" type="curve" smooth="yes"/>
      <point x="124" y="248"/>
      <point x="63" y="269"/>
      <point x="63" y="356" type="curve" smooth="yes"/>
      <point x="63" y="432"/>
      <point x="127" y="469"/>
      <point x="199" y="469" type="curve" smooth="yes"/>
      <point x="277" y="469"/>
      <point x="321" y="423"/>
      <point x="342" y="372" type="curve"/>
      <point x="316" y="358" type="line"/>
      <point x="298" y="401"/>
      <point x="261" y="440"/>
      <point x="199" y="440" type="curve" smooth="yes"/>
      <point x="141" y="440"/>
      <point x="94" y="412"/>
      <point x="94" y="356" type="curve" smooth="yes"/>
      <point x="94" y="286"/>
      <point x="152" y="270"/>
      <point x="216" y="250" type="curve" smooth="yes"/>
      <point x="282" y="228"/>
      <point x="344" y="195"/>
      <point x="344" y="121" type="curve" smooth="yes"/>
      <point x="344" y="36"/>
      <point x="285" y="-10"/>
      <point x="203" y="-10" type="curve" smooth="yes"/>
      <point x="104" y="-10"/>
      <point x="56" y="63"/>
      <point x="36" y="138" type="curve"/>
    </contour>
    <contour>
      <point x="202" y="16" type="line"/>
      <point x="228" y="16" type="line"/>
      <point x="170" y="-71" type="line"/>
      <point x="189" y="-60"/>
      <point x="198" y="-54"/>
      <point x="222" y="-54" type="curve" smooth="yes"/>
      <point x="255" y="-54"/>
      <point x="295" y="-79"/>
      <point x="295" y="-128" type="curve" smooth="yes"/>
      <point x="295" y="-189"/>
      <point x="243" y="-222"/>
      <point x="188" y="-222" type="curve" smooth="yes"/>
      <point x="151" y="-222"/>
      <point x="127" y="-212"/>
      <point x="99" y="-184" type="curve"/>
      <point x="114" y="-168" type="line"/>
      <point x="140" y="-190"/>
      <point x="157" y="-199"/>
      <point x="188" y="-199" type="curve" smooth="yes"/>
      <point x="231" y="-199"/>
      <point x="270" y="-174"/>
      <point x="270" y="-128" type="curve" smooth="yes"/>
      <point x="270" y="-90"/>
      <point x="242" y="-72"/>
      <point x="212" y="-72" type="curve" smooth="yes"/>
      <point x="188" y="-72"/>
      <point x="160" y="-80"/>
      <point x="138" y="-96" type="curve"/>
    </contour>
  </outline>
</glyph>
<glyph name="Scaron" format="2">
  <advance width="506"/>
  <unicode hex="0160"/>
  <outline>
    <contour>
      <point x="68" y="206" type="line"/>
      <point x="100" y="116"/>
      <point x="156" y="23"/>
      <point x="267" y="23" type="curve" smooth="yes"/>
      <point x="382" y="23"/>
      <point x="427" y="88"/>
      <point x="427" y="178" type="curve" smooth="yes"/>
      <point x="427" y="277"/>
      <point x="339" y="324"/>
      <point x="262" y="352" type="curve" smooth="yes"/>
      <point x="185" y="380"/>
      <point x="78" y="434"/>
      <point x="78" y="546" type="curve" smooth="yes"/>
      <point x="78" y="645"/>
      <point x="160" y="708"/>
      <point x="260" y="708" type="curve" smooth="yes"/>
      <point x="373" y="708"/>
      <point x="435" y="624"/>
      <point x="456" y="553" type="curve"/>
      <point x="428" y="538" type="line"/>
      <point x="406" y="602"/>
      <point x="359" y="676"/>
      <point x="261" y="676" type="curve" smooth="yes"/>
      <point x="177" y="676"/>
      <point x="113" y="622"/>
      <point x="113" y="544" type="curve" smooth="yes"/>
      <point x="113" y="454"/>
      <point x="204" y="408"/>
      <point x="289" y="376" type="curve" smooth="yes"/>
      <point x="369" y="347"/>
      <point x="461" y="294"/>
      <point x="461" y="180" type="curve" smooth="yes"/>
      <point x="461" y="75"/>
      <point x="405" y="-8"/>
      <point x="266" y="-8" type="curve" smooth="yes"/>
      <point x="144" y="-8"/>
      <point x="74" y="88"/>
      <point x="40" y="190" type="curve"/>
    </contour>
    <contour>
      <point x="260" y="810" type="line"/>
      <point x="400" y="933" type="line"/>
      <point x="420" y="916" type="line"/>
      <point x="260" y="776" type="line"/>
      <point x="100" y="916" type="line"/>
      <point x="121" y="933" type="line"/>
    </contour>
  </outline>
</glyph>
<glyph name="Utilde" format="2">
  <advance width="591"/>
  <unicode hex="0168"/>
  <outline>
    <contour>
      <point x="82" y="700" type="line"/>
      <point x="115" y="700" type="line"/>
      <point x="115" y="223" type="line" smooth="yes"/>
      <point x="115" y="99"/>
      <point x="182" y="22"/>
      <point x="296" y="22" type="curve" smooth="yes"/>
      <point x="410" y="22"/>
      <point x="476" y="99"/>
      <point x="476" y="223" type="curve" smooth="yes"/>
      <point x="476" y="700" type="line"/>
      <point x="509" y="700" type="line"/>
      <point x="509" y="223" type="line" smooth="yes"/>
      <point x="509" y="84"/>
      <point x="434" y="-10"/>
      <point x="296" y="-10" type="curve" smooth="yes"/>
      <point x="158" y="-10"/>
      <point x="82" y="84"/>
      <point x="82" y="223" type="curve" smooth="yes"/>
    </contour>
    <contour>
      <point x="158" y="780" type="line"/>
      <point x="161" y="815"/>
      <point x="188" y="846"/>
      <point x="233" y="846" type="curve" smooth="yes"/>
      <point x="291" y="846"/>
      <point x="303" y="798"/>
      <point x="357" y="798" type="curve" smooth="yes"/>
      <point x="383" y="798"/>
      <point x="397" y="814"/>
      <point x="413" y="846" type="curve"/>
      <point x="433" y="832" type="line"/>
      <point x="417" y="795"/>
      <point x="391" y="772"/>
      <point x="355" y="772" type="curve" smooth="yes"/>
      <point x="300" y="772"/>
      <point x="279" y="820"/>
      <point x="234" y="820" type="curve" smooth="yes"/>
      <point x="193" y="820"/>
      <point x="180" y="790"/>
      <point x="180" y="768" type="curve"/>
    </contour>
  </outline>
</glyph>
<glyph name="utilde" format="2">
  <advance width="490"/>
  <unicode hex="0169"/>
  <outline>
    <contour>
      <point x="377" y="0" type="line"/>
      <point x="377" y="460" type="line"/>
      <point x="408" y="460" type="line"/>
      <point x="408" y="0" type="line"/>
    </contour>
    <contour>
      <point x="113" y="159" type="line" smooth="yes"/>
      <point x="113" y="73"/>
      <point x="146" y="20"/>
      <point x="228" y="20" type="curve" smooth="yes"/>
      <point x="312" y="20"/>
      <point x="377" y="94"/>
      <point x="377" y="180" type="curve"/>
      <point x="388" y="180" type="line"/>
      <point x="388" y="71"/>
      <point x="317" y="-10"/>
      <point x="222" y="-10" type="curve" smooth="yes"/>
      <point x="127" y="-10"/>
      <point x="82" y="51"/>
      <point x="82" y="156" type="curve" smooth="yes"/>
      <point x="82" y="460" type="line"/>
      <point x="113" y="460" type="line"/>
    </contour>
    <contour>
      <point x="108" y="542" type="line"/>
      <point x="111" y="577"/>
      <point x="137" y="607"/>
      <point x="182" y="607" type="curve" smooth="yes"/>
      <point x="240" y="607"/>
      <point x="252" y="560"/>
      <point x="306" y="560" type="curve" smooth="yes"/>
      <point x="332" y="560"/>
      <point x="346" y="576"/>
      <point x="362" y="608" type="curve"/>
      <point x="382" y="593" type="line"/>
      <point x="366" y="556"/>
      <point x="340" y="534"/>
      <point x="304" y="534" type="curve" smooth="yes"/>
      <point x="249" y="534"/>
      <point x="229" y="581"/>
      <point x="184" y="581" type="curve" smooth="yes"/>
      <point x="143" y="581"/>
      <point x="130" y="552"/>
      <point x="130" y="530" type="curve"/>
    </contour>
  </outline>
</glyph>
<glyph name="umacron" format="2">
  <advance width="490"/>
  <unicode hex="016B"/>
  <outline>
    <contour>
      <point x="377" y="0" type="line"/>
      <point x="377" y="460" type="line"/>
      <point x="408" y="460" type="line"/>
      <point x="408" y="0" type="line"/>
    </contour>
    <contour>
      <point x="113" y="159" type="line" smooth="yes"/>
      <point x="113" y="73"/>
      <point x="146" y="20"/>
      <point x="228" y="20" type="curve" smooth="yes"/>
      <point x="312" y="20"/>
      <point x="377" y="94"/>
      <point x="377" y="180" type="curve"/>
      <point x="388" y="180" type="line"/>
      <point x="388" y="71"/>
      <point x="317" y="-10"/>
      <point x="222" y="-10" type="curve" smooth="yes"/>
      <point x="127" y="-10"/>
      <point x="82" y="51"/>
      <point x="82" y="156" type="curve" smooth="yes"/>
      <point x="82" y="460" type="line"/>
      <point x="113" y="460" type="line"/>
    </contour>
    <contour>
      <point x="70" y="530" type="line"/>
      <point x="70" y="560" type="line"/>
      <point x="420" y="560" type="line"/>
      <point x="420" y="530" type="line"/>
    </contour>
  </outline>
</glyph>
<glyph name="Ubreve" format="2">
  <advance width="591"/>
  <unicode hex="016C"/>
  <outline>
    <contour>
      <point x="82" y="700" type="line"/>
      <point x="115" y="700" type="line"/>
      <point x="115" y="223" type="line" smooth="yes"/>
      <point x="115" y="99"/>
      <point x="182" y="22"/>
      <point x="296" y="22" type="curve" smooth="yes"/>
      <point x="410" y="22"/>
      <point x="476" y="99"/>
      <point x="476" y="223" type="curve" smooth="yes"/>
      <point x="476" y="700" type="line"/>
      <point x="509" y="700" type="line"/>
      <point x="509" y="223" type="line" smooth="yes"/>
      <point x="509" y="84"/>
      <point x="434" y="-10"/>
      <point x="296" y="-10" type="curve" smooth="yes"/>
      <point x="158" y="-10"/>
      <point x="82" y="84"/>
      <point x="82" y="223" type="curve" smooth="yes"/>
    </contour>
    <contour>
      <point x="138" y="908" type="curve"/>
      <point x="166" y="908" type="line"/>
      <point x="166" y="854"/>
      <point x="210" y="795"/>
      <point x="296" y="795" type="curve" smooth="yes"/>
      <point x="382" y="795"/>
      <point x="425" y="854"/>
      <point x="425" y="908" type="curve"/>
      <point x="454" y="908" type="line"/>
      <point x="454" y="839"/>
      <point x="401" y="768"/>
      <point x="296" y="768" type="curve" smooth="yes"/>
      <point x="191" y="768"/>
      <point x="138" y="839"/>
    </contour>
  </outline>
</glyph>
<glyph name="Uring" format="2">
  <advance width="591"/>
  <unicode hex="016E"/>
  <outline>
    <contour>
      <point x="82" y="700" type="line"/>
      <point x="115" y="700" type="line"/>
      <point x="115" y="223" type="line" smooth="yes"/>
      <point x="115" y="99"/>
      <point x="182" y="22"/>
      <point x="296" y="22" type="curve" smooth="yes"/>
      <point x="410" y="22"/>
      <point x="476" y="99"/>
      <point x="476" y="223" type="curve" smooth="yes"/>
      <point x="476" y="700" type="line"/>
      <point x="509" y="700" type="line"/>
      <point x="509" y="223" type="line" smooth="yes"/>
      <point x="509" y="84"/>
      <point x="434" y="-10"/>
      <point x="296" y="-10" type="curve" smooth="yes"/>
      <point x="158" y="-10"/>
      <point x="82" y="84"/>
      <point x="82" y="223" type="curve" smooth="yes"/>
    </contour>
    <contour>
      <point x="194" y="868" type="curve" smooth="yes"/>
      <point x="194" y="928"/>
      <point x="244" y="968"/>
      <point x="296" y="968" type="curve" smooth="yes"/>
      <point x="348" y="968"/>
      <point x="398" y="928"/>
      <point x="398" y="868" type="curve" smooth="yes"/>
      <point x="398" y="808"/>
      <point x="348" y="768"/>
      <point x="296" y="768" type="curve" smooth="yes"/>
      <point x="244" y="768"/>
      <point x="194" y="808"/>
    </contour>
    <contour>
      <point x="216" y="868" type="curve" smooth="yes"/>
      <point x="216" y="821"/>
      <point x="255" y="790"/>
      <point x="296" y="790" type="curve" smooth="yes"/>
      <point x="337" y="790"/>
      <point x="375" y="821"/>
      <point x="375" y="868" type="curve" smooth="yes"/>
      <point x="375" y="915"/>
      <point x="337" y="948"/>
      <point x="296" y="948" type="curve" smooth="yes"/>
      <point x="255" y="948"/>
      <point x="216" y="915"/>
    </contour>
  </outline>
</glyph>
<glyph name="wcircumflex" format="2">
  <advance width="638"/>
  <unicode hex="0175"/>
  <outline>
    <contour>
      <point x="12" y="460" type="line"/>
      <point x="46" y="460" type="line"/>
      <point x="176" y="61" type="line"/>
      <point x="314" y="481" type="line"/>
      <point x="462" y="60" type="line"/>
      <point x="592" y="460" type="line"/>
      <point x="626" y="460" type="line"/>
      <point x="463" y="-21" type="line"/>
      <point x="314" y="398" type="line"/>
      <point x="175" y="-21" type="line"/>
    </contour>
    <contour>
      <point x="314" y="664" type="line"/>
      <point x="174" y="541" type="line"/>
      <point x="154" y="558" type="line"/>
      <point x="314" y="698" type="line"/>
      <point x="474" y="558" type="line"/>
      <point x="454" y="541" type="line"/>
    </contour>
  </outline>
</glyph>
<glyph name="zacute" format="2">
  <advance width="439"/>
  <unicode hex="017A"/>
  <outline>
    <contour>
      <point x="356" y="430" type="line"/>
      <point x="42" y="430" type="line"/>
      <point x="42" y="460" type="line"/>
      <point x="414" y="460" type="line"/>
      <point x="76" y="30" type="line"/>
      <point x="414" y="30" type="line"/>
      <point x="414" y="0" type="line"/>
      <point x="18" y="0" type="line"/>
    </contour>
    <contour>
      <point x="378" y="691" type="line"/>
      <point x="202" y="536" type="line"/>
      <point x="186" y="548" type="line"/>
      <point x="350" y="708" type="line"/>
    </contour>
  </outline>
</glyph>
<glyph name="Zdotaccent" format="2">
  <advance width="538"/>
  <unicode hex="017B"/>
  <outline>
    <contour>
      <point x="38" y="668" type="line"/>
      <point x="38" y="700" type="line"/>
      <point x="522" y="700" type="line"/>
      <point x="76" y="32" type="line"/>
      <point x="508" y="32" type="line"/>
      <point x="508" y="0" type="line"/>
      <point x="18" y="0" type="line"/>
      <point x="464" y="668" type="line"/>
    </contour>
    <contour>
      <point x="256" y="793" type="curve" smooth="yes"/>
      <point x="256" y="807"/>
      <point x="267" y="817"/>
      <point x="280" y="817" type="curve" smooth="yes"/>
      <point x="293" y="817"/>
      <point x="304" y="807"/>
      <point x="304" y="793" type="curve" smooth="yes"/>
      <point x="304" y="779"/>
      <point x="293" y="768"/>
      <point x="280" y="768" type="curve" smooth="yes"/>
      <point x="267" y="768"/>
      <point x="256" y="779"/>
    </contour>
  </outline>
</glyph>
<glyph name="zdotaccent" format="2">
  <advance width="439"/>
  <unicode hex="017C"/>
  <outline>
    <contour>
      <point x="356" y="430" type="line"/>
      <point x="42" y="430" type="line"/>
      <point x="42" y="460" type="line"/>
      <point x="414" y="460" type="line"/>
      <point x="76" y="30" type="line"/>
      <point x="414" y="30" type="line"/>
      <point x="414" y="0" type="line"/>
      <point x="18" y="0" type="line"/>
    </contour>
    <contour>
      <point x="204" y="584" type="curve" smooth="yes"/>
      <point x="204" y="598"/>
      <point x="215" y="608"/>
      <point x="228" y="608" type="curve" smooth="yes"/>
      <point x="241" y="608"/>
      <point x="252" y="598"/>
      <point x="252" y="584" type="curve" smooth="yes"/>
      <point x="252" y="570"/>
      <point x="241" y="560"/>
      <point x="228" y="560" type="curve" smooth="yes"/>
      <point x="215" y="560"/>
      <point x="204" y="570"/>
    </contour>
  </outline>
</glyph>
<glyph name="Zcaron" format="2">
  <advance width="538"/>
  <unicode hex="017D"/>
  <outline>
    <contour>
      <point x="38" y="668" type="line"/>
      <point x="38" y="700" type="line"/>
      <point x="522" y="700" type="line"/>
      <point x="76" y="32" type="line"/>
      <point x="508" y="32" type="line"/>
      <point x="508" y="0" type="line"/>
      <point x="18" y="0" type="line"/>
      <point x="464" y="668" type="line"/>
    </contour>
    <contour>
      <point x="280" y="802" type="line"/>
      <point x="420" y="926" type="line"/>
      <point x="440" y="908" type="line"/>
      <point x="280" y="768" type="line"/>
      <point x="120" y="908" type="line"/>
      <point x="140" y="926" type="line"/>
    </contour>
  </outline>
</glyph>
<glyph name="florin" format="2">
  <advance width="600"/>
  <unicode hex="0192"/>
  <outline>
    <contour>
      <point x="182" y="-200" type="curve" smooth="yes"/>
      <point x="152" y="-200"/>
      <point x="127" y="-186"/>
      <point x="96" y="-154" type="curve"/>
      <point x="112" y="-131" type="line"/>
      <point x="140" y="-159"/>
      <point x="157" y="-170"/>
      <point x="179" y="-170" type="curve" smooth="yes"/>
      <point x="226" y="-170"/>
      <point x="257" y="-126"/>
      <point x="261" y="-54" type="curve" smooth="yes"/>
      <point x="288" y="430" type="line"/>
      <point x="206" y="430" type="line"/>
      <point x="208" y="460" type="line"/>
      <point x="290" y="460" type="line"/>
      <point x="300" y="643" type="line" smooth="yes"/>
      <point x="304" y="731"/>
      <point x="349" y="788"/>
      <point x="412" y="788" type="curve" smooth="yes"/>
      <point x="442" y="788"/>
      <point x="467" y="774"/>
      <point x="498" y="742" type="curve"/>
      <point x="480" y="718" type="line"/>
      <point x="452" y="746"/>
      <point x="436" y="757"/>
      <point x="414" y="757" type="curve" smooth="yes"/>
      <point x="367" y="757"/>
      <point x="336" y="713"/>
      <point x="332" y="641" type="curve" smooth="yes"/>
      <point x="322" y="460" type="line"/>
      <point x="403" y="460" type="line"/>
      <point x="400" y="430" type="line"/>
      <point x="320" y="430" type="line"/>
      <point x="293" y="-56" type="line" smooth="yes"/>
      <point x="289" y="-144"/>
      <point x="245" y="-200"/>
    </contour>
  </outline>
</glyph>
<glyph name="uni0212" format="2">
  <advance width="495"/>
  <unicode hex="0212"/>
  <outline>
    <contour>
      <point x="201" y="326" type="line"/>
      <point x="238" y="326" type="line"/>
      <point x="468" y="0" type="line"/>
      <point x="427" y="0" type="line"/>
    </contour>
    <contour>
      <point x="87" y="700" type="line"/>
      <point x="120" y="700" type="line"/>
      <point x="120" y="0" type="line"/>
      <point x="87" y="0" type="line"/>
    </contour>
    <contour>
      <point x="102" y="670" type="line"/>
      <point x="102" y="700" type="line"/>
      <point x="224" y="700" type="line" smooth="yes"/>
      <point x="359" y="700"/>
      <point x="461" y="631"/>
      <point x="461" y="502" type="curve" smooth="yes"/>
      <point x="461" y="373"/>
      <point x="359" y="304"/>
      <point x="224" y="304" type="curve" smooth="yes"/>
      <point x="102" y="304" type="line"/>
      <point x="102" y="334" type="line"/>
      <point x="224" y="334" type="line" smooth="yes"/>
      <point x="344" y="334"/>
      <point x="428" y="390"/>
      <point x="428" y="502" type="curve" smooth="yes"/>
      <point x="428" y="614"/>
      <point x="342" y="670"/>
      <point x="224" y="670" type="curve" smooth="yes"/>
    </contour>
    <contour>
      <point x="105" y="768" type="curve"/>
      <point x="134" y="768" type="line"/>
      <point x="134" y="822"/>
      <point x="177" y="882"/>
      <point x="263" y="882" type="curve" smooth="yes"/>
      <point x="349" y="882"/>
      <point x="393" y="822"/>
      <point x="393" y="768" type="curve"/>
      <point x="421" y="768" type="line"/>
      <point x="421" y="837"/>
      <point x="368" y="908"/>
      <point x="263" y="908" type="curve" smooth="yes"/>
      <point x="158" y="908"/>
      <point x="105" y="837"/>
    </contour>
  </outline>
</glyph>
<glyph name="uni0213" format="2">
  <advance width="305"/>
  <unicode hex="0213"/>
  <outline>
    <contour>
      <point x="113" y="460" type="line"/>
      <point x="113" y="0" type="line"/>
      <point x="82" y="0" type="line"/>
      <point x="82" y="460" type="line"/>
    </contour>
    <contour>
      <point x="276" y="420" type="line"/>
      <point x="258" y="433"/>
      <point x="240" y="440"/>
      <point x="218" y="440" type="curve" smooth="yes"/>
      <point x="144" y="440"/>
      <point x="113" y="367"/>
      <point x="113" y="280" type="curve"/>
      <point x="98" y="280" type="line"/>
      <point x="98" y="389"/>
      <point x="145" y="470"/>
      <point x="224" y="470" type="curve" smooth="yes"/>
      <point x="250" y="470"/>
      <point x="275" y="461"/>
      <point x="294" y="445" type="curve"/>
    </contour>
    <contour>
      <point x="30" y="544" type="curve"/>
      <point x="58" y="544" type="line"/>
      <point x="58" y="598"/>
      <point x="102" y="658"/>
      <point x="188" y="658" type="curve" smooth="yes"/>
      <point x="274" y="658"/>
      <point x="318" y="598"/>
      <point x="318" y="544" type="curve"/>
      <point x="346" y="544" type="line"/>
      <point x="346" y="613"/>
      <point x="293" y="684"/>
      <point x="188" y="684" type="curve" smooth="yes"/>
      <point x="83" y="684"/>
      <point x="30" y="613"/>
    </contour>
  </outline>
</glyph>
<glyph name="uni021A" format="2">
  <advance width="441"/>
  <unicode hex="021A"/>
  <outline>
    <contour>
      <point x="17" y="668" type="line"/>
      <point x="17" y="700" type="line"/>
      <point x="424" y="700" type="line"/>
      <point x="424" y="668" type="line"/>
      <point x="237" y="668" type="line"/>
      <point x="237" y="0" type="line"/>
      <point x="204" y="0" type="line"/>
      <point x="204" y="668" type="line"/>
    </contour>
    <contour>
      <point x="255" y="-60" type="line"/>
      <point x="286" y="-72" type="line"/>
      <point x="176" y="-322" type="line"/>
      <point x="155" y="-315" type="line"/>
    </contour>
  </outline>
</glyph>
<glyph name="uni021B" format="2">
  <advance width="205"/>
  <unicode hex="021B"/>
  <outline>
    <contour>
      <point x="12" y="460" type="line"/>
      <point x="193" y="460" type="line"/>
      <point x="193" y="430" type="line"/>
      <point x="12" y="430" type="line"/>
    </contour>
    <contour>
      <point x="87" y="620" type="line"/>
      <point x="118" y="620" type="line"/>
      <point x="118" y="0" type="line"/>
      <point x="87" y="0" type="line"/>
    </contour>
    <contour>
      <point x="136" y="-60" type="line"/>
      <point x="168" y="-72" type="line"/>
      <point x="58" y="-322" type="line"/>
      <point x="36" y="-315" type="line"/>
    </contour>
  </outline>
</glyph>
<glyph name="uni0237" format="2">
  <advance width="201"/>
  <unicode hex="0237"/>
  <outline>
    <contour>
      <point x="-72" y="-150" type="line"/>
      <point x="-56" y="-171"/>
      <point x="-33" y="-189"/>
      <point x="-3" y="-189" type="curve" smooth="yes"/>
      <point x="62" y="-189"/>
      <point x="80" y="-131"/>
      <point x="80" y="-72" type="curve" smooth="yes"/>
      <point x="80" y="460" type="line"/>
      <point x="111" y="460" type="line"/>
      <point x="111" y="-76" type="line" smooth="yes"/>
      <point x="111" y="-157"/>
      <point x="80" y="-220"/>
      <point x="-4" y="-220" type="curve" smooth="yes"/>
      <point x="-47" y="-220"/>
      <point x="-75" y="-194"/>
      <point x="-90" y="-174" type="curve"/>
    </contour>
  </outline>
</glyph>
<glyph name="dotaccent" format="2">
  <advance width="259"/>
  <unicode hex="02D9"/>
  <outline>
    <contour>
      <point x="106" y="762" type="curve" smooth="yes"/>
      <point x="106" y="776"/>
      <point x="117" y="787"/>
      <point x="130" y="787" type="curve" smooth="yes"/>
      <point x="143" y="787"/>
      <point x="154" y="776"/>
      <point x="154" y="762" type="curve" smooth="yes"/>
      <point x="154" y="748"/>
      <point x="143" y="738"/>
      <point x="130" y="738" type="curve" smooth="yes"/>
      <point x="117" y="738"/>
      <point x="106" y="748"/>
    </contour>
  </outline>
</glyph>
<glyph name="tilde" format="2">
  <advance width="530"/>
  <unicode hex="02DC"/>
  <outline>
    <contour>
      <point x="130" y="642" type="line"/>
      <point x="133" y="677"/>
      <point x="159" y="707"/>
      <point x="204" y="707" type="curve" smooth="yes"/>
      <point x="262" y="707"/>
      <point x="274" y="660"/>
      <point x="328" y="660" type="curve" smooth="yes"/>
      <point x="354" y="660"/>
      <point x="368" y="676"/>
      <point x="384" y="708" type="curve"/>
      <point x="404" y="693" type="line"/>
      <point x="388" y="656"/>
      <point x="362" y="634"/>
      <point x="326" y="634" type="curve" smooth="yes"/>
      <point x="271" y="634"/>
      <point x="250" y="681"/>
      <point x="205" y="681" type="curve" smooth="yes"/>
      <point x="164" y="681"/>
      <point x="152" y="652"/>
      <point x="152" y="630" type="curve"/>
    </contour>
  </outline>
</glyph>
<glyph name="hungarumlaut" format="2">
  <unicode hex="02DD"/>
  <outline>
    <contour>
      <point x="20" y="524" type="line"/>
      <point x="0" y="531" type="line"/>
      <point x="104" y="734" type="line"/>
      <point x="136" y="725" type="line"/>
    </contour>
    <contour>
      <point x="139" y="524" type="line"/>
      <point x="120" y="531" type="line"/>
      <point x="224" y="734" type="line"/>
      <point x="256" y="725" type="line"/>
    </contour>
  </outline>
</glyph>
<glyph name="gravecomb" format="2">
  <unicode hex="0300"/>
  <outline>
    <contour>
      <point x="175" y="538" type="line"/>
      <point x="0" y="693" type="line"/>
      <point x="28" y="710" type="line"/>
      <point x="192" y="550" type="line"/>
    </contour>
  </outline>
</glyph>
<glyph name="acutecomb" format="2">
  <unicode hex="0301"/>
  <outline>
    <contour>
      <point x="32" y="538" type="line"/>
      <point x="15" y="550" type="line"/>
      <point x="179" y="710" type="line"/>
      <point x="207" y="693" type="line"/>
    </contour>
  </outline>
</glyph>
<glyph name="uni0302" format="2">
  <unicode hex="0302"/>
  <outline>
    <contour>
      <point x="17" y="572" type="line"/>
      <point x="0" y="592" type="line"/>
      <point x="158" y="729" type="line"/>
      <point x="314" y="592" type="line"/>
      <point x="298" y="572" type="line"/>
      <point x="151" y="701" type="line"/>
      <point x="164" y="701" type="line"/>
    </contour>
  </outline>
</glyph>
<glyph name="tildecomb" format="2">
  <unicode hex="0303"/>
  <outline>
    <contour>
      <point x="22" y="630" type="curve"/>
      <point x="0" y="642" type="line"/>
      <point x="3" y="677"/>
      <point x="30" y="707"/>
      <point x="74" y="707" type="curve" smooth="yes"/>
      <point x="132" y="707"/>
      <point x="146" y="660"/>
      <point x="198" y="660" type="curve" smooth="yes"/>
      <point x="224" y="660"/>
      <point x="238" y="676"/>
      <point x="254" y="708" type="curve"/>
      <point x="274" y="693" type="line"/>
      <point x="258" y="656"/>
      <point x="234" y="634"/>
      <point x="196" y="634" type="curve" smooth="yes"/>
      <point x="142" y="634"/>
      <point x="123" y="681"/>
      <point x="76" y="681" type="curve" smooth="yes"/>
      <point x="42" y="681"/>
      <point x="22" y="656"/>
    </contour>
  </outline>
</glyph>
<glyph name="uni0306" format="2">
  <unicode hex="0306"/>
  <outline>
    <contour>
      <point x="158" y="572" type="curve" smooth="yes"/>
      <point x="66" y="572"/>
      <point x="0" y="624"/>
      <point x="0" y="698" type="curve"/>
      <point x="28" y="698" type="line"/>
      <point x="28" y="642"/>
      <point x="84" y="598"/>
      <point x="158" y="598" type="curve" smooth="yes"/>
      <point x="232" y="598"/>
      <point x="288" y="642"/>
      <point x="288" y="698" type="curve"/>
      <point x="316" y="698" type="line"/>
      <point x="316" y="624"/>
      <point x="250" y="572"/>
    </contour>
  </outline>
</glyph>
<glyph name="uni0307" format="2">
  <unicode hex="0307"/>
  <outline>
    <contour>
      <point x="24" y="629" type="curve" smooth="yes"/>
      <point x="11" y="629"/>
      <point x="0" y="640"/>
      <point x="0" y="653" type="curve" smooth="yes"/>
      <point x="0" y="666"/>
      <point x="11" y="677"/>
      <point x="24" y="677" type="curve" smooth="yes"/>
      <point x="37" y="677"/>
      <point x="48" y="666"/>
      <point x="48" y="653" type="curve" smooth="yes"/>
      <point x="48" y="640"/>
      <point x="37" y="629"/>
    </contour>
  </outline>
</glyph>
<glyph name="uni0308" format="2">
  <unicode hex="0308"/>
  <outline>
    <contour>
      <point x="24" y="614" type="curve" smooth="yes"/>
      <point x="10" y="614"/>
      <point x="0" y="624"/>
      <point x="0" y="638" type="curve" smooth="yes"/>
      <point x="0" y="652"/>
      <point x="10" y="662"/>
      <point x="24" y="662" type="curve" smooth="yes"/>
      <point x="38" y="662"/>
      <point x="48" y="652"/>
      <point x="48" y="638" type="curve" smooth="yes"/>
      <point x="48" y="624"/>
      <point x="38" y="614"/>
    </contour>
    <contour>
      <point x="224" y="614" type="curve" smooth="yes"/>
      <point x="210" y="614"/>
      <point x="200" y="624"/>
      <point x="200" y="638" type="curve" smooth="yes"/>
      <point x="200" y="652"/>
      <point x="210" y="662"/>
      <point x="224" y="662" type="curve" smooth="yes"/>
      <point x="238" y="662"/>
      <point x="248" y="652"/>
      <point x="248" y="638" type="curve" smooth="yes"/>
      <point x="248" y="624"/>
      <point x="238" y="614"/>
    </contour>
  </outline>
</glyph>
<glyph name="uni030A" format="2">
  <unicode hex="030A"/>
  <outline>
    <contour>
      <point x="105" y="527" type="curve" smooth="yes"/>
      <point x="47" y="527"/>
      <point x="0" y="572"/>
      <point x="0" y="630" type="curve" smooth="yes"/>
      <point x="0" y="688"/>
      <point x="47" y="733"/>
      <point x="105" y="733" type="curve" smooth="yes"/>
      <point x="163" y="733"/>
      <point x="210" y="688"/>
      <point x="210" y="630" type="curve" smooth="yes"/>
      <point x="210" y="572"/>
      <point x="163" y="527"/>
    </contour>
    <contour>
      <point x="105" y="550" type="curve" smooth="yes"/>
      <point x="150" y="550"/>
      <point x="186" y="586"/>
      <point x="186" y="630" type="curve" smooth="yes"/>
      <point x="186" y="674"/>
      <point x="150" y="710"/>
      <point x="105" y="710" type="curve" smooth="yes"/>
      <point x="60" y="710"/>
      <point x="24" y="674"/>
      <point x="24" y="630" type="curve" smooth="yes"/>
      <point x="24" y="586"/>
      <point x="60" y="550"/>
    </contour>
  </outline>
</glyph>
<glyph name="uni030C" format="2">
  <unicode hex="030C"/>
  <outline>
    <contour>
      <point x="158" y="572" type="line"/>
      <point x="0" y="710" type="line"/>
      <point x="17" y="729" type="line"/>
      <point x="164" y="600" type="line"/>
      <point x="151" y="600" type="line"/>
      <point x="298" y="729" type="line"/>
      <point x="314" y="710" type="line"/>
    </contour>
  </outline>
</glyph>
<glyph name="uni0312" format="2">
  <unicode hex="0312"/>
  <outline>
    <contour>
      <point x="32" y="514" type="line"/>
      <point x="0" y="526" type="line"/>
      <point x="110" y="776" type="line"/>
      <point x="132" y="768" type="line"/>
    </contour>
  </outline>
</glyph>
<glyph name="uni0326" format="2">
  <unicode hex="0326"/>
  <outline>
    <contour>
      <point x="15" y="-213" type="line"/>
      <point x="0" y="-206" type="line"/>
      <point x="84" y="-18" type="line"/>
      <point x="107" y="-31" type="line"/>
    </contour>
  </outline>
</glyph>
<glyph name="uni0327" format="2">
  <unicode hex="0327"/>
  <outline>
    <contour>
      <point x="89" y="-220" type="curve" smooth="yes"/>
      <point x="54" y="-220"/>
      <point x="26" y="-209"/>
      <point x="0" y="-185" type="curve"/>
      <point x="12" y="-166" type="line"/>
      <point x="36" y="-188"/>
      <point x="58" y="-197"/>
      <point x="89" y="-197" type="curve" smooth="yes"/>
      <point x="139" y="-197"/>
      <point x="172" y="-169"/>
      <point x="172" y="-126" type="curve" smooth="yes"/>
      <point x="172" y="-91"/>
      <point x="150" y="-70"/>
      <point x="113" y="-70" type="curve" smooth="yes"/>
      <point x="90" y="-70"/>
      <point x="60" y="-78"/>
      <point x="40" y="-90" type="curve"/>
      <point x="103" y="18" type="line"/>
      <point x="128" y="18" type="line"/>
      <point x="74" y="-74" type="line"/>
      <point x="60" y="-76" type="line"/>
      <point x="72" y="-60"/>
      <point x="97" y="-50"/>
      <point x="123" y="-50" type="curve" smooth="yes"/>
      <point x="167" y="-50"/>
      <point x="198" y="-84"/>
      <point x="198" y="-126" type="curve" smooth="yes"/>
      <point x="198" y="-180"/>
      <point x="151" y="-220"/>
    </contour>
  </outline>
</glyph>
<glyph name="uni0328" format="2">
  <unicode hex="0328"/>
  <outline>
    <contour>
      <point x="109" y="-220" type="curve" smooth="yes"/>
      <point x="39" y="-220"/>
      <point x="0" y="-186"/>
      <point x="0" y="-134" type="curve" smooth="yes"/>
      <point x="0" y="-68"/>
      <point x="76" y="-22"/>
      <point x="146" y="14" type="curve"/>
      <point x="164" y="0" type="line"/>
      <point x="101" y="-29"/>
      <point x="31" y="-77"/>
      <point x="31" y="-128" type="curve" smooth="yes"/>
      <point x="31" y="-171"/>
      <point x="66" y="-192"/>
      <point x="110" y="-192" type="curve" smooth="yes"/>
      <point x="146" y="-192"/>
      <point x="175" y="-176"/>
      <point x="189" y="-160" type="curve"/>
      <point x="204" y="-180" type="line"/>
      <point x="189" y="-200"/>
      <point x="152" y="-220"/>
    </contour>
  </outline>
</glyph>
<glyph name="uni0394" format="2">
  <advance width="600"/>
  <unicode hex="0394"/>
  <outline>
    <contour>
      <point x="30" y="0" type="line"/>
      <point x="566" y="0" type="line"/>
      <point x="298" y="748" type="line"/>
    </contour>
    <contour>
      <point x="78" y="29" type="line"/>
      <point x="298" y="660" type="line"/>
      <point x="521" y="29" type="line"/>
    </contour>
  </outline>
</glyph>
<glyph name="uni03A9" format="2">
  <advance width="600"/>
  <unicode hex="03A9"/>
  <outline>
    <contour>
      <point x="66" y="0" type="line"/>
      <point x="261" y="0" type="line"/>
      <point x="261" y="25" type="line"/>
      <point x="172" y="75"/>
      <point x="102" y="202"/>
      <point x="102" y="312" type="curve" smooth="yes"/>
      <point x="102" y="438"/>
      <point x="184" y="525"/>
      <point x="300" y="525" type="curve" smooth="yes"/>
      <point x="416" y="525"/>
      <point x="496" y="438"/>
      <point x="496" y="312" type="curve" smooth="yes"/>
      <point x="496" y="202"/>
      <point x="427" y="75"/>
      <point x="338" y="25" type="curve"/>
      <point x="338" y="0" type="line"/>
      <point x="534" y="0" type="line"/>
      <point x="534" y="26" type="line"/>
      <point x="390" y="26" type="line"/>
      <point x="472" y="92"/>
      <point x="530" y="211"/>
      <point x="530" y="314" type="curve" smooth="yes"/>
      <point x="530" y="454"/>
      <point x="432" y="558"/>
      <point x="300" y="558" type="curve" smooth="yes"/>
      <point x="168" y="558"/>
      <point x="69" y="454"/>
      <point x="69" y="314" type="curve" smooth="yes"/>
      <point x="69" y="211"/>
      <point x="127" y="92"/>
      <point x="209" y="26" type="curve"/>
      <point x="66" y="26" type="line"/>
    </contour>
  </outline>
</glyph>
<glyph name="uni0403" format="2">
  <advance width="435"/>
  <unicode hex="0403"/>
  <outline>
    <contour>
      <point x="80" y="700" type="line"/>
      <point x="425" y="700" type="line"/>
      <point x="425" y="669" type="line"/>
      <point x="112" y="669" type="line"/>
      <point x="112" y="0" type="line"/>
      <point x="80" y="0" type="line"/>
    </contour>
    <contour>
      <point x="400" y="942" type="line"/>
      <point x="224" y="788" type="line"/>
      <point x="208" y="800" type="line"/>
      <point x="372" y="960" type="line"/>
    </contour>
  </outline>
</glyph>
<glyph name="uni040E" format="2">
  <advance width="505"/>
  <unicode hex="040E"/>
  <outline>
    <contour>
      <point x="506" y="700" type="line"/>
      <point x="176" y="0" type="line"/>
      <point x="141" y="0" type="line"/>
      <point x="242" y="219" type="line"/>
      <point x="0" y="700" type="line"/>
      <point x="38" y="700" type="line"/>
      <point x="270" y="230" type="line"/>
      <point x="252" y="231" type="line"/>
      <point x="470" y="700" type="line"/>
    </contour>
    <contour>
      <point x="96" y="908" type="curve"/>
      <point x="124" y="908" type="line"/>
      <point x="124" y="854"/>
      <point x="168" y="795"/>
      <point x="254" y="795" type="curve" smooth="yes"/>
      <point x="340" y="795"/>
      <point x="383" y="854"/>
      <point x="383" y="908" type="curve"/>
      <point x="412" y="908" type="line"/>
      <point x="412" y="839"/>
      <point x="359" y="768"/>
      <point x="254" y="768" type="curve" smooth="yes"/>
      <point x="149" y="768"/>
      <point x="96" y="839"/>
    </contour>
  </outline>
</glyph>
<glyph name="uni0411" format="2">
  <advance width="520"/>
  <unicode hex="0411"/>
  <outline>
    <contour>
      <point x="99" y="389" type="line"/>
      <point x="99" y="420" type="line"/>
      <point x="242" y="420" type="line" smooth="yes"/>
      <point x="377" y="420"/>
      <point x="480" y="339"/>
      <point x="480" y="210" type="curve" smooth="yes"/>
      <point x="480" y="81"/>
      <point x="377" y="0"/>
      <point x="242" y="0" type="curve" smooth="yes"/>
      <point x="99" y="0" type="line"/>
      <point x="99" y="31" type="line"/>
      <point x="242" y="31" type="line" smooth="yes"/>
      <point x="360" y="31"/>
      <point x="448" y="100"/>
      <point x="448" y="210" type="curve" smooth="yes"/>
      <point x="448" y="320"/>
      <point x="360" y="389"/>
      <point x="242" y="389" type="curve" smooth="yes"/>
    </contour>
    <contour>
      <point x="80" y="700" type="line"/>
      <point x="427" y="700" type="line"/>
      <point x="427" y="669" type="line"/>
      <point x="112" y="669" type="line"/>
      <point x="112" y="0" type="line"/>
      <point x="80" y="0" type="line"/>
    </contour>
  </outline>
</glyph>
<glyph name="uni041B" format="2">
  <advance width="626"/>
  <unicode hex="041B"/>
  <outline>
    <contour>
      <point x="546" y="700" type="line"/>
      <point x="546" y="0" type="line"/>
      <point x="514" y="0" type="line"/>
      <point x="514" y="669" type="line"/>
      <point x="134" y="669" type="line"/>
      <point x="134" y="240" type="line" smooth="yes"/>
      <point x="134" y="111"/>
      <point x="89" y="0"/>
      <point x="10" y="0" type="curve"/>
      <point x="10" y="29" type="line"/>
      <point x="70" y="29"/>
      <point x="103" y="140"/>
      <point x="103" y="246" type="curve" smooth="yes"/>
      <point x="103" y="700" type="line"/>
    </contour>
  </outline>
</glyph>
<glyph name="uni0422" format="2">
  <advance width="465"/>
  <unicode hex="0422"/>
  <outline>
    <contour>
      <point x="17" y="668" type="line"/>
      <point x="17" y="700" type="line"/>
      <point x="424" y="700" type="line"/>
      <point x="424" y="668" type="line"/>
      <point x="237" y="668" type="line"/>
      <point x="237" y="0" type="line"/>
      <point x="204" y="0" type="line"/>
      <point x="204" y="668" type="line"/>
    </contour>
  </outline>
</glyph>
<glyph name="uni0423" format="2">
  <advance width="505"/>
  <unicode hex="0423"/>
  <outline>
    <contour>
      <point x="506" y="700" type="line"/>
      <point x="176" y="0" type="line"/>
      <point x="141" y="0" type="line"/>
      <point x="242" y="219" type="line"/>
      <point x="0" y="700" type="line"/>
      <point x="38" y="700" type="line"/>
      <point x="270" y="230" type="line"/>
      <point x="252" y="231" type="line"/>
      <point x="470" y="700" type="line"/>
    </contour>
  </outline>
</glyph>
<glyph name="uni0427" format="2">
  <advance width="562"/>
  <unicode hex="0427"/>
  <outline>
    <contour>
      <point x="290" y="280" type="line"/>
      <point x="290" y="310" type="line"/>
      <point x="472" y="310" type="line"/>
      <point x="472" y="280" type="line"/>
    </contour>
    <contour>
      <point x="450" y="700" type="line"/>
      <point x="482" y="700" type="line"/>
      <point x="482" y="0" type="line"/>
      <point x="450" y="0" type="line"/>
    </contour>
    <contour>
      <point x="111" y="700" type="line"/>
      <point x="111" y="518" type="line" smooth="yes"/>
      <point x="111" y="400"/>
      <point x="173" y="310"/>
      <point x="290" y="310" type="curve"/>
      <point x="290" y="280" type="line"/>
      <point x="151" y="280"/>
      <point x="80" y="383"/>
      <point x="80" y="518" type="curve" smooth="yes"/>
      <point x="80" y="700" type="line"/>
    </contour>
  </outline>
</glyph>
<glyph name="uni0428" format="2">
  <advance width="931"/>
  <unicode hex="0428"/>
  <outline>
    <contour>
      <point x="820" y="31" type="line"/>
      <point x="820" y="700" type="line"/>
      <point x="852" y="700" type="line"/>
      <point x="852" y="0" type="line"/>
      <point x="80" y="0" type="line"/>
      <point x="80" y="700" type="line"/>
      <point x="112" y="700" type="line"/>
      <point x="112" y="31" type="line"/>
      <point x="450" y="31" type="line"/>
      <point x="450" y="700" type="line"/>
      <point x="482" y="700" type="line"/>
      <point x="482" y="31" type="line"/>
    </contour>
  </outline>
</glyph>
<glyph name="uni042A" format="2">
  <advance width="628"/>
  <unicode hex="042A"/>
  <outline>
    <contour>
      <point x="208" y="389" type="line"/>
      <point x="208" y="420" type="line"/>
      <point x="350" y="420" type="line" smooth="yes"/>
      <point x="485" y="420"/>
      <point x="588" y="339"/>
      <point x="588" y="210" type="curve" smooth="yes"/>
      <point x="588" y="81"/>
      <point x="485" y="0"/>
      <point x="350" y="0" type="curve" smooth="yes"/>
      <point x="208" y="0" type="line"/>
      <point x="208" y="31" type="line"/>
      <point x="350" y="31" type="line" smooth="yes"/>
      <point x="468" y="31"/>
      <point x="556" y="100"/>
      <point x="556" y="210" type="curve" smooth="yes"/>
      <point x="556" y="320"/>
      <point x="468" y="389"/>
      <point x="350" y="389" type="curve" smooth="yes"/>
    </contour>
    <contour>
      <point x="190" y="669" type="line"/>
      <point x="10" y="669" type="line"/>
      <point x="10" y="700" type="line"/>
      <point x="222" y="700" type="line"/>
      <point x="222" y="0" type="line"/>
      <point x="190" y="0" type="line"/>
    </contour>
  </outline>
</glyph>
<glyph name="uni042D" format="2">
  <advance width="685"/>
  <unicode hex="042D"/>
  <outline>
    <contour>
      <point x="153" y="334" type="line"/>
      <point x="153" y="366" type="line"/>
      <point x="602" y="366" type="line"/>
      <point x="602" y="334" type="line"/>
    </contour>
    <contour>
      <point x="602" y="350" type="curve" smooth="yes"/>
      <point x="602" y="541"/>
      <point x="474" y="674"/>
      <point x="302" y="674" type="curve" smooth="yes"/>
      <point x="206" y="674"/>
      <point x="131" y="644"/>
      <point x="77" y="586" type="curve"/>
      <point x="77" y="630" type="line"/>
      <point x="136" y="682"/>
      <point x="200" y="708"/>
      <point x="302" y="708" type="curve" smooth="yes"/>
      <point x="496" y="708"/>
      <point x="638" y="559"/>
      <point x="638" y="350" type="curve" smooth="yes"/>
      <point x="638" y="141"/>
      <point x="496" y="-8"/>
      <point x="302" y="-8" type="curve" smooth="yes"/>
      <point x="200" y="-8"/>
      <point x="136" y="18"/>
      <point x="77" y="70" type="curve"/>
      <point x="77" y="116" type="line"/>
      <point x="133" y="58"/>
      <point x="203" y="26"/>
      <point x="302" y="26" type="curve" smooth="yes"/>
      <point x="474" y="26"/>
      <point x="602" y="161"/>
    </contour>
  </outline>
</glyph>
<glyph name="uni042E" format="2">
  <advance width="1025"/>
  <unicode hex="042E"/>
  <outline>
    <contour>
      <point x="99" y="364" type="line"/>
      <point x="99" y="396" type="line"/>
      <point x="319" y="396" type="line"/>
      <point x="319" y="364" type="line"/>
    </contour>
    <contour>
      <point x="80" y="700" type="line"/>
      <point x="112" y="700" type="line"/>
      <point x="112" y="0" type="line"/>
      <point x="80" y="0" type="line"/>
    </contour>
    <contour>
      <point x="328" y="352" type="curve" smooth="yes"/>
      <point x="328" y="164"/>
      <point x="456" y="24"/>
      <point x="636" y="24" type="curve" smooth="yes"/>
      <point x="816" y="24"/>
      <point x="944" y="164"/>
      <point x="944" y="352" type="curve" smooth="yes"/>
      <point x="944" y="540"/>
      <point x="816" y="677"/>
      <point x="636" y="677" type="curve" smooth="yes"/>
      <point x="456" y="677"/>
      <point x="328" y="540"/>
    </contour>
    <contour>
      <point x="294" y="352" type="curve" smooth="yes"/>
      <point x="294" y="560"/>
      <point x="439" y="710"/>
      <point x="636" y="710" type="curve" smooth="yes"/>
      <point x="833" y="710"/>
      <point x="979" y="560"/>
      <point x="979" y="352" type="curve" smooth="yes"/>
      <point x="979" y="144"/>
      <point x="833" y="-10"/>
      <point x="636" y="-10" type="curve" smooth="yes"/>
      <point x="439" y="-10"/>
      <point x="294" y="144"/>
    </contour>
  </outline>
</glyph>
<glyph name="uni0436" format="2">
  <advance width="520"/>
  <unicode hex="0436"/>
  <outline>
    <contour>
      <point x="454" y="460" type="line"/>
      <point x="494" y="460" type="line"/>
      <point x="304" y="266" type="line"/>
      <point x="514" y="0" type="line"/>
      <point x="474" y="0" type="line"/>
      <point x="268" y="270" type="line"/>
    </contour>
    <contour>
      <point x="275" y="460" type="line"/>
      <point x="275" y="0" type="line"/>
      <point x="246" y="0" type="line"/>
      <point x="246" y="460" type="line"/>
    </contour>
    <contour>
      <point x="66" y="460" type="line"/>
      <point x="253" y="270" type="line"/>
      <point x="46" y="0" type="line"/>
      <point x="7" y="0" type="line"/>
      <point x="216" y="266" type="line"/>
      <point x="27" y="460" type="line"/>
    </contour>
  </outline>
</glyph>
<glyph name="uni0437" format="2">
  <advance width="474"/>
  <unicode hex="0437"/>
  <outline>
    <contour>
      <point x="248" y="239" type="curve"/>
      <point x="248" y="259" type="line"/>
      <point x="330" y="259"/>
      <point x="378" y="294"/>
      <point x="378" y="349" type="curve" smooth="yes"/>
      <point x="378" y="407"/>
      <point x="326" y="442"/>
      <point x="256" y="442" type="curve" smooth="yes"/>
      <point x="174" y="442"/>
      <point x="118" y="387"/>
      <point x="118" y="333" type="curve"/>
      <point x="87" y="333" type="line"/>
      <point x="87" y="408"/>
      <point x="162" y="470"/>
      <point x="256" y="470" type="curve" smooth="yes"/>
      <point x="342" y="470"/>
      <point x="410" y="423"/>
      <point x="410" y="351" type="curve" smooth="yes"/>
      <point x="410" y="285"/>
      <point x="354" y="239"/>
    </contour>
    <contour>
      <point x="253" y="-10" type="curve" smooth="yes"/>
      <point x="145" y="-10"/>
      <point x="72" y="56"/>
      <point x="62" y="145" type="curve"/>
      <point x="94" y="145" type="line"/>
      <point x="104" y="75"/>
      <point x="159" y="18"/>
      <point x="253" y="18" type="curve" smooth="yes"/>
      <point x="327" y="18"/>
      <point x="399" y="54"/>
      <point x="399" y="128" type="curve" smooth="yes"/>
      <point x="399" y="201"/>
      <point x="330" y="231"/>
      <point x="248" y="231" type="curve"/>
      <point x="248" y="251" type="line"/>
      <point x="364" y="251"/>
      <point x="430" y="210"/>
      <point x="430" y="130" type="curve" smooth="yes"/>
      <point x="430" y="40"/>
      <point x="345" y="-10"/>
    </contour>
  </outline>
</glyph>
<glyph name="uni0438" format="2">
  <advance width="496"/>
  <unicode hex="0438"/>
  <outline>
    <contour>
      <point x="411" y="441" type="line"/>
      <point x="80" y="-35" type="line"/>
      <point x="85" y="19" type="line"/>
      <point x="416" y="495" type="line"/>
    </contour>
    <contour>
      <point x="111" y="460" type="line"/>
      <point x="111" y="12" type="line"/>
      <point x="80" y="-35" type="line"/>
      <point x="80" y="460" type="line"/>
    </contour>
    <contour>
      <point x="416" y="495" type="line"/>
      <point x="416" y="0" type="line"/>
      <point x="385" y="0" type="line"/>
      <point x="385" y="448" type="line"/>
    </contour>
  </outline>
</glyph>
<glyph name="uni043C" format="2">
  <advance width="607"/>
  <unicode hex="043C"/>
  <outline>
    <contour>
      <point x="566" y="0" type="line"/>
      <point x="467" y="428" type="line"/>
      <point x="482" y="495" type="line"/>
      <point x="602" y="0" type="line"/>
    </contour>
    <contour>
      <point x="293" y="27" type="line"/>
      <point x="482" y="495" type="line"/>
      <point x="484" y="418" type="line"/>
      <point x="302" y="-31" type="line"/>
    </contour>
    <contour>
      <point x="302" y="-31" type="line"/>
      <point x="124" y="418" type="line"/>
      <point x="125" y="495" type="line"/>
      <point x="311" y="27" type="line"/>
    </contour>
    <contour>
      <point x="5" y="0" type="line"/>
      <point x="125" y="495" type="line"/>
      <point x="140" y="428" type="line"/>
      <point x="42" y="0" type="line"/>
    </contour>
  </outline>
</glyph>
<glyph name="uni0444" format="2">
  <advance width="586"/>
  <unicode hex="0444"/>
  <outline>
    <contour>
      <point x="278" y="560" type="line"/>
      <point x="308" y="560" type="line"/>
      <point x="308" y="-100" type="line"/>
      <point x="278" y="-100" type="line"/>
    </contour>
    <contour>
      <point x="35" y="230" type="curve" smooth="yes"/>
      <point x="35" y="369"/>
      <point x="138" y="470"/>
      <point x="293" y="470" type="curve" smooth="yes"/>
      <point x="448" y="470"/>
      <point x="551" y="369"/>
      <point x="551" y="230" type="curve" smooth="yes"/>
      <point x="551" y="91"/>
      <point x="448" y="-10"/>
      <point x="293" y="-10" type="curve" smooth="yes"/>
      <point x="138" y="-10"/>
      <point x="35" y="91"/>
    </contour>
    <contour>
      <point x="66" y="230" type="curve" smooth="yes"/>
      <point x="66" y="113"/>
      <point x="151" y="20"/>
      <point x="293" y="20" type="curve" smooth="yes"/>
      <point x="435" y="20"/>
      <point x="520" y="113"/>
      <point x="520" y="230" type="curve" smooth="yes"/>
      <point x="520" y="347"/>
      <point x="435" y="440"/>
      <point x="293" y="440" type="curve" smooth="yes"/>
      <point x="151" y="440"/>
      <point x="66" y="347"/>
    </contour>
  </outline>
</glyph>
<glyph name="uni0449" format="2">
  <advance width="771"/>
  <unicode hex="0449"/>
  <outline>
    <contour>
      <point x="381" y="30" type="line"/>
      <point x="625" y="30" type="line"/>
      <point x="625" y="460" type="line"/>
      <point x="656" y="460" type="line"/>
      <point x="656" y="30" type="line"/>
      <point x="736" y="30" type="line"/>
      <point x="736" y="-90" type="line"/>
      <point x="708" y="-90" type="line"/>
      <point x="708" y="0" type="line"/>
      <point x="75" y="0" type="line"/>
      <point x="75" y="460" type="line"/>
      <point x="106" y="460" type="line"/>
      <point x="106" y="30" type="line"/>
      <point x="350" y="30" type="line"/>
      <point x="350" y="460" type="line"/>
      <point x="381" y="460" type="line"/>
    </contour>
  </outline>
</glyph>
<glyph name="uni044A" format="2">
  <advance width="532"/>
  <unicode hex="044A"/>
  <outline>
    <contour>
      <point x="189" y="258" type="line"/>
      <point x="189" y="286" type="line"/>
      <point x="314" y="286" type="line" smooth="yes"/>
      <point x="409" y="286"/>
      <point x="482" y="242"/>
      <point x="482" y="143" type="curve" smooth="yes"/>
      <point x="482" y="44"/>
      <point x="409" y="0"/>
      <point x="314" y="0" type="curve" smooth="yes"/>
      <point x="189" y="0" type="line"/>
      <point x="189" y="28" type="line"/>
      <point x="314" y="28" type="line" smooth="yes"/>
      <point x="393" y="28"/>
      <point x="452" y="62"/>
      <point x="452" y="143" type="curve" smooth="yes"/>
      <point x="452" y="221"/>
      <point x="393" y="258"/>
      <point x="314" y="258" type="curve" smooth="yes"/>
    </contour>
    <contour>
      <point x="170" y="430" type="line"/>
      <point x="5" y="430" type="line"/>
      <point x="5" y="460" type="line"/>
      <point x="201" y="460" type="line"/>
      <point x="201" y="0" type="line"/>
      <point x="170" y="0" type="line"/>
    </contour>
  </outline>
</glyph>
<glyph name="uni044D" format="2">
  <advance width="485"/>
  <unicode hex="044D"/>
  <outline>
    <contour>
      <point x="137" y="244" type="line"/>
      <point x="440" y="244" type="line"/>
      <point x="419" y="216" type="line"/>
      <point x="137" y="216" type="line"/>
    </contour>
    <contour>
      <point x="416" y="230" type="curve" smooth="yes"/>
      <point x="416" y="352"/>
      <point x="328" y="440"/>
      <point x="214" y="440" type="curve" smooth="yes"/>
      <point x="140" y="440"/>
      <point x="78" y="402"/>
      <point x="57" y="372" type="curve"/>
      <point x="57" y="412" type="line"/>
      <point x="82" y="440"/>
      <point x="144" y="470"/>
      <point x="214" y="470" type="curve" smooth="yes"/>
      <point x="347" y="470"/>
      <point x="448" y="369"/>
      <point x="448" y="230" type="curve" smooth="yes"/>
      <point x="448" y="91"/>
      <point x="347" y="-10"/>
      <point x="214" y="-10" type="curve" smooth="yes"/>
      <point x="144" y="-10"/>
      <point x="82" y="19"/>
      <point x="57" y="48" type="curve"/>
      <point x="57" y="88" type="line"/>
      <point x="78" y="58"/>
      <point x="140" y="20"/>
      <point x="214" y="20" type="curve" smooth="yes"/>
      <point x="328" y="20"/>
      <point x="416" y="108"/>
    </contour>
  </outline>
</glyph>
<glyph name="uni044F" format="2">
  <advance width="434"/>
  <unicode hex="044F"/>
  <outline>
    <contour>
      <point x="88" y="0" type="line"/>
      <point x="53" y="0" type="line"/>
      <point x="206" y="207" type="line"/>
      <point x="242" y="207" type="line"/>
    </contour>
    <contour>
      <point x="384" y="0" type="line"/>
      <point x="353" y="0" type="line"/>
      <point x="353" y="460" type="line"/>
      <point x="384" y="460" type="line"/>
    </contour>
    <contour>
      <point x="365" y="212" type="line"/>
      <point x="365" y="184" type="line"/>
      <point x="243" y="184" type="line" smooth="yes"/>
      <point x="148" y="184"/>
      <point x="75" y="223"/>
      <point x="75" y="322" type="curve" smooth="yes"/>
      <point x="75" y="421"/>
      <point x="148" y="460"/>
      <point x="243" y="460" type="curve" smooth="yes"/>
      <point x="365" y="460" type="line"/>
      <point x="365" y="432" type="line"/>
      <point x="243" y="432" type="line" smooth="yes"/>
      <point x="164" y="432"/>
      <point x="106" y="401"/>
      <point x="106" y="322" type="curve" smooth="yes"/>
      <point x="106" y="243"/>
      <point x="164" y="212"/>
      <point x="243" y="212" type="curve" smooth="yes"/>
    </contour>
  </outline>
</glyph>
<glyph name="uni0451" format="2">
  <advance width="515"/>
  <unicode hex="0451"/>
  <outline>
    <contour>
      <point x="62" y="222" type="line"/>
      <point x="62" y="250" type="line"/>
      <point x="430" y="250" type="line"/>
      <point x="434" y="361"/>
      <point x="355" y="442"/>
      <point x="258" y="442" type="curve" smooth="yes"/>
      <point x="162" y="442"/>
      <point x="74" y="366"/>
      <point x="74" y="240" type="curve"/>
      <point x="74" y="232" type="line"/>
      <point x="74" y="108"/>
      <point x="150" y="20"/>
      <point x="254" y="20" type="curve" smooth="yes"/>
      <point x="356" y="20"/>
      <point x="401" y="74"/>
      <point x="431" y="124" type="curve"/>
      <point x="456" y="107" type="line"/>
      <point x="421" y="53"/>
      <point x="374" y="-10"/>
      <point x="251" y="-10" type="curve" smooth="yes"/>
      <point x="133" y="-10"/>
      <point x="42" y="93"/>
      <point x="42" y="232" type="curve" smooth="yes"/>
      <point x="42" y="256"/>
      <point x="44" y="278"/>
      <point x="50" y="300" type="curve" smooth="yes"/>
      <point x="74" y="400"/>
      <point x="154" y="470"/>
      <point x="258" y="470" type="curve" smooth="yes"/>
      <point x="370" y="470"/>
      <point x="464" y="379"/>
      <point x="464" y="248" type="curve" smooth="yes"/>
      <point x="464" y="240"/>
      <point x="463" y="230"/>
      <point x="462" y="222" type="curve"/>
    </contour>
    <contour>
      <point x="322" y="606" type="curve" smooth="yes"/>
      <point x="322" y="620"/>
      <point x="333" y="630"/>
      <point x="346" y="630" type="curve" smooth="yes"/>
      <point x="359" y="630"/>
      <point x="370" y="620"/>
      <point x="370" y="606" type="curve" smooth="yes"/>
      <point x="370" y="592"/>
      <point x="359" y="581"/>
      <point x="346" y="581" type="curve" smooth="yes"/>
      <point x="333" y="581"/>
      <point x="322" y="592"/>
    </contour>
    <contour>
      <point x="122" y="606" type="curve" smooth="yes"/>
      <point x="122" y="620"/>
      <point x="133" y="630"/>
      <point x="146" y="630" type="curve" smooth="yes"/>
      <point x="159" y="630"/>
      <point x="170" y="620"/>
      <point x="170" y="606" type="curve" smooth="yes"/>
      <point x="170" y="592"/>
      <point x="159" y="581"/>
      <point x="146" y="581" type="curve" smooth="yes"/>
      <point x="133" y="581"/>
      <point x="122" y="592"/>
    </contour>
  </outline>
</glyph>
<glyph name="uni0453" format="2">
  <advance width="309"/>
  <unicode hex="0453"/>
  <outline>
    <contour>
      <point x="80" y="460" type="line"/>
      <point x="304" y="460" type="line"/>
      <point x="304" y="430" type="line"/>
      <point x="111" y="430" type="line"/>
      <point x="111" y="0" type="line"/>
      <point x="80" y="0" type="line"/>
    </contour>
    <contour>
      <point x="327" y="685" type="line"/>
      <point x="152" y="530" type="line"/>
      <point x="134" y="542" type="line"/>
      <point x="298" y="702" type="line"/>
    </contour>
  </outline>
</glyph>
<glyph name="uni045E" format="2">
  <advance width="440"/>
  <unicode hex="045E"/>
  <outline>
    <contour>
      <point x="422" y="460" type="line"/>
      <point x="122" y="-220" type="line"/>
      <point x="88" y="-220" type="line"/>
      <point x="200" y="34" type="line"/>
      <point x="7" y="460" type="line"/>
      <point x="44" y="460" type="line"/>
      <point x="227" y="44" type="line"/>
      <point x="210" y="45" type="line"/>
      <point x="388" y="460" type="line"/>
    </contour>
    <contour>
      <point x="62" y="670" type="curve"/>
      <point x="90" y="670" type="line"/>
      <point x="90" y="616"/>
      <point x="134" y="556"/>
      <point x="220" y="556" type="curve" smooth="yes"/>
      <point x="306" y="556"/>
      <point x="350" y="616"/>
      <point x="350" y="670" type="curve"/>
      <point x="378" y="670" type="line"/>
      <point x="378" y="601"/>
      <point x="325" y="530"/>
      <point x="220" y="530" type="curve" smooth="yes"/>
      <point x="115" y="530"/>
      <point x="62" y="601"/>
    </contour>
  </outline>
</glyph>
<glyph name="uni1E9E" format="2">
  <advance width="681"/>
  <unicode hex="1E9E"/>
  <outline>
    <contour>
      <point x="422" y="-10" type="curve" smooth="yes"/>
      <point x="555" y="-10"/>
      <point x="647" y="64"/>
      <point x="647" y="171" type="curve" smooth="yes"/>
      <point x="647" y="327"/>
      <point x="446" y="310"/>
      <point x="446" y="366" type="curve" smooth="yes"/>
      <point x="446" y="412"/>
      <point x="584" y="423"/>
      <point x="584" y="546" type="curve" smooth="yes"/>
      <point x="584" y="638"/>
      <point x="505" y="708"/>
      <point x="366" y="708" type="curve" smooth="yes"/>
      <point x="216" y="708"/>
      <point x="80" y="626"/>
      <point x="80" y="434" type="curve" smooth="yes"/>
      <point x="80" y="0" type="line"/>
      <point x="114" y="0" type="line"/>
      <point x="114" y="428" type="line" smooth="yes"/>
      <point x="114" y="598"/>
      <point x="223" y="676"/>
      <point x="362" y="676" type="curve" smooth="yes"/>
      <point x="492" y="676"/>
      <point x="549" y="608"/>
      <point x="549" y="540" type="curve" smooth="yes"/>
      <point x="549" y="434"/>
      <point x="408" y="432"/>
      <point x="408" y="364" type="curve" smooth="yes"/>
      <point x="408" y="282"/>
      <point x="612" y="311"/>
      <point x="612" y="169" type="curve" smooth="yes"/>
      <point x="612" y="81"/>
      <point x="536" y="22"/>
      <point x="424" y="22" type="curve" smooth="yes"/>
      <point x="361" y="22"/>
      <point x="300" y="39"/>
      <point x="246" y="81" type="curve"/>
      <point x="228" y="54" type="line"/>
      <point x="278" y="14"/>
      <point x="343" y="-10"/>
    </contour>
  </outline>
</glyph>
<glyph name="quoteleft" format="2">
  <advance width="240"/>
  <unicode hex="2018"/>
  <outline>
    <contour>
      <point x="100" y="470" type="line"/>
      <point x="63" y="470" type="line"/>
      <point x="160" y="700" type="line"/>
      <point x="183" y="700" type="line"/>
    </contour>
  </outline>
</glyph>
<glyph name="quoteright" format="2">
  <advance width="254"/>
  <unicode hex="2019"/>
  <outline>
    <contour>
      <point x="154" y="700" type="line"/>
      <point x="191" y="700" type="line"/>
      <point x="94" y="470" type="line"/>
      <point x="71" y="470" type="line"/>
    </contour>
  </outline>
</glyph>
<glyph name="quotedblbase" format="2">
  <advance width="412"/>
  <unicode hex="201E"/>
  <outline>
    <contour>
      <point x="140" y="80" type="line"/>
      <point x="177" y="80" type="line"/>
      <point x="80" y="-150" type="line"/>
      <point x="57" y="-150" type="line"/>
    </contour>
    <contour>
      <point x="298" y="80" type="line"/>
      <point x="335" y="80" type="line"/>
      <point x="238" y="-150" type="line"/>
      <point x="215" y="-150" type="line"/>
    </contour>
  </outline>
</glyph>
<glyph name="bullet" format="2">
  <advance width="300"/>
  <unicode hex="2022"/>
  <outline>
    <contour>
      <point x="112" y="388" type="curve" smooth="yes"/>
      <point x="112" y="402"/>
      <point x="123" y="412"/>
      <point x="136" y="412" type="curve" smooth="yes"/>
      <point x="149" y="412"/>
      <point x="160" y="402"/>
      <point x="160" y="388" type="curve" smooth="yes"/>
      <point x="160" y="374"/>
      <point x="149" y="364"/>
      <point x="136" y="364" type="curve" smooth="yes"/>
      <point x="123" y="364"/>
      <point x="112" y="374"/>
    </contour>
  </outline>
</glyph>
<glyph name="perthousand" format="2">
  <advance width="1089"/>
  <unicode hex="2030"/>
  <outline>
    <contour>
      <point x="752" y="143" type="curve" smooth="yes"/>
      <point x="752" y="229"/>
      <point x="811" y="296"/>
      <point x="903" y="296" type="curve" smooth="yes"/>
      <point x="995" y="296"/>
      <point x="1054" y="229"/>
      <point x="1054" y="143" type="curve" smooth="yes"/>
      <point x="1054" y="57"/>
      <point x="995" y="-10"/>
      <point x="903" y="-10" type="curve" smooth="yes"/>
      <point x="811" y="-10"/>
      <point x="752" y="57"/>
    </contour>
    <contour>
      <point x="780" y="143" type="curve" smooth="yes"/>
      <point x="780" y="75"/>
      <point x="827" y="16"/>
      <point x="903" y="16" type="curve" smooth="yes"/>
      <point x="979" y="16"/>
      <point x="1026" y="75"/>
      <point x="1026" y="143" type="curve" smooth="yes"/>
      <point x="1026" y="211"/>
      <point x="979" y="270"/>
      <point x="903" y="270" type="curve" smooth="yes"/>
      <point x="827" y="270"/>
      <point x="780" y="211"/>
    </contour>
    <contour>
      <point x="35" y="557" type="curve" smooth="yes"/>
      <point x="35" y="643"/>
      <point x="94" y="710"/>
      <point x="186" y="710" type="curve" smooth="yes"/>
      <point x="278" y="710"/>
      <point x="337" y="643"/>
      <point x="337" y="557" type="curve" smooth="yes"/>
      <point x="337" y="471"/>
      <point x="278" y="404"/>
      <point x="186" y="404" type="curve" smooth="yes"/>
      <point x="94" y="404"/>
      <point x="35" y="471"/>
    </contour>
    <contour>
      <point x="64" y="557" type="curve" smooth="yes"/>
      <point x="64" y="489"/>
      <point x="110" y="430"/>
      <point x="186" y="430" type="curve" smooth="yes"/>
      <point x="262" y="430"/>
      <point x="308" y="489"/>
      <point x="308" y="557" type="curve" smooth="yes"/>
      <point x="308" y="625"/>
      <point x="262" y="684"/>
      <point x="186" y="684" type="curve" smooth="yes"/>
      <point x="110" y="684"/>
      <point x="64" y="625"/>
    </contour>
    <contour>
      <point x="379" y="143" type="curve" smooth="yes"/>
      <point x="379" y="229"/>
      <point x="438" y="296"/>
      <point x="530" y="296" type="curve" smooth="yes"/>
      <point x="622" y="296"/>
      <point x="681" y="229"/>
      <point x="681" y="143" type="curve" smooth="yes"/>
      <point x="681" y="57"/>
      <point x="622" y="-10"/>
      <point x="530" y="-10" type="curve" smooth="yes"/>
      <point x="438" y="-10"/>
      <point x="379" y="57"/>
    </contour>
    <contour>
      <point x="408" y="143" type="curve" smooth="yes"/>
      <point x="408" y="75"/>
      <point x="454" y="16"/>
      <point x="530" y="16" type="curve" smooth="yes"/>
      <point x="606" y="16"/>
      <point x="652" y="75"/>
      <point x="652" y="143" type="curve" smooth="yes"/>
      <point x="652" y="211"/>
      <point x="606" y="270"/>
      <point x="530" y="270" type="curve" smooth="yes"/>
      <point x="454" y="270"/>
      <point x="408" y="211"/>
    </contour>
    <contour>
      <point x="570" y="700" type="line"/>
      <point x="601" y="700" type="line"/>
      <point x="146" y="0" type="line"/>
      <point x="115" y="0" type="line"/>
    </contour>
  </outline>
</glyph>
<glyph name="guilsinglleft" format="2">
  <advance width="332"/>
  <unicode hex="2039"/>
  <outline>
    <contour>
      <point x="74" y="256" type="line"/>
      <point x="262" y="38" type="line"/>
      <point x="242" y="20" type="line"/>
      <point x="40" y="255" type="line"/>
      <point x="242" y="490" type="line"/>
      <point x="262" y="472" type="line"/>
    </contour>
  </outline>
</glyph>
<glyph name="uni203D" format="2">
  <advance width="557"/>
  <unicode hex="203D"/>
  <outline>
    <contour>
      <point x="441" y="514" type="curve" smooth="yes"/>
      <point x="441" y="610"/>
      <point x="377" y="680"/>
      <point x="266" y="680" type="curve" smooth="yes"/>
      <point x="182" y="680"/>
      <point x="130" y="640"/>
      <point x="90" y="576" type="curve"/>
      <point x="64" y="593" type="line"/>
      <point x="110" y="663"/>
      <point x="163" y="710"/>
      <point x="268" y="710" type="curve" smooth="yes"/>
      <point x="393" y="710"/>
      <point x="472" y="626"/>
      <point x="472" y="514" type="curve" smooth="yes"/>
      <point x="472" y="409"/>
      <point x="376" y="323"/>
      <point x="264" y="323" type="curve"/>
      <point x="244" y="345" type="line"/>
      <point x="357" y="345"/>
      <point x="441" y="424"/>
    </contour>
    <contour>
      <point x="234" y="510" type="line"/>
      <point x="272" y="510" type="line"/>
      <point x="264" y="170" type="line"/>
      <point x="242" y="170" type="line"/>
    </contour>
    <contour>
      <point x="230" y="12" type="curve" smooth="yes"/>
      <point x="230" y="26"/>
      <point x="241" y="37"/>
      <point x="254" y="37" type="curve" smooth="yes"/>
      <point x="267" y="37"/>
      <point x="278" y="26"/>
      <point x="278" y="12" type="curve" smooth="yes"/>
      <point x="278" y="-2"/>
      <point x="267" y="-12"/>
      <point x="254" y="-12" type="curve" smooth="yes"/>
      <point x="241" y="-12"/>
      <point x="230" y="-2"/>
    </contour>
  </outline>
</glyph>
<glyph name="uni2070" format="2">
  <advance width="338"/>
  <unicode hex="2070"/>
  <outline>
    <contour>
      <point x="54" y="490" type="curve" smooth="yes"/>
      <point x="54" y="382"/>
      <point x="97" y="292"/>
      <point x="172" y="292" type="curve" smooth="yes"/>
      <point x="247" y="292"/>
      <point x="292" y="382"/>
      <point x="292" y="490" type="curve" smooth="yes"/>
      <point x="292" y="598"/>
      <point x="247" y="688"/>
      <point x="172" y="688" type="curve" smooth="yes"/>
      <point x="97" y="688"/>
      <point x="54" y="598"/>
    </contour>
    <contour>
      <point x="34" y="490" type="curve" smooth="yes"/>
      <point x="34" y="611"/>
      <point x="86" y="706"/>
      <point x="172" y="706" type="curve" smooth="yes"/>
      <point x="258" y="706"/>
      <point x="312" y="611"/>
      <point x="312" y="490" type="curve" smooth="yes"/>
      <point x="312" y="369"/>
      <point x="258" y="274"/>
      <point x="172" y="274" type="curve" smooth="yes"/>
      <point x="86" y="274"/>
      <point x="34" y="369"/>
    </contour>
  </outline>
</glyph>
<glyph name="uni2075" format="2">
  <advance width="345"/>
  <unicode hex="2075"/>
  <outline>
    <contour>
      <point x="304" y="416" type="curve" smooth="yes"/>
      <point x="304" y="321"/>
      <point x="243" y="272"/>
      <point x="166" y="272" type="curve" smooth="yes"/>
      <point x="98" y="272"/>
      <point x="58" y="308"/>
      <point x="34" y="360" type="curve"/>
      <point x="50" y="371" type="line"/>
      <point x="71" y="323"/>
      <point x="108" y="290"/>
      <point x="166" y="290" type="curve" smooth="yes"/>
      <point x="234" y="290"/>
      <point x="284" y="335"/>
      <point x="284" y="416" type="curve" smooth="yes"/>
      <point x="284" y="484"/>
      <point x="237" y="532"/>
      <point x="177" y="532" type="curve" smooth="yes"/>
      <point x="129" y="532"/>
      <point x="92" y="512"/>
      <point x="58" y="474" type="curve"/>
      <point x="74" y="500" type="line"/>
      <point x="95" y="528"/>
      <point x="136" y="550"/>
      <point x="184" y="550" type="curve" smooth="yes"/>
      <point x="252" y="550"/>
      <point x="304" y="495"/>
    </contour>
    <contour>
      <point x="128" y="680" type="line"/>
      <point x="84" y="504" type="line"/>
      <point x="58" y="474" type="line"/>
      <point x="114" y="698" type="line"/>
      <point x="312" y="698" type="line"/>
      <point x="312" y="680" type="line"/>
    </contour>
  </outline>
</glyph>
<glyph name="uni2077" format="2">
  <advance width="352"/>
  <unicode hex="2077"/>
  <outline>
    <contour>
      <point x="34" y="682" type="line"/>
      <point x="34" y="700" type="line"/>
      <point x="319" y="700" type="line"/>
      <point x="104" y="280" type="line"/>
      <point x="82" y="280" type="line"/>
      <point x="290" y="682" type="line"/>
    </contour>
  </outline>
</glyph>
<glyph name="uni2088" format="2">
  <advance width="308"/>
  <unicode hex="2088"/>
  <outline>
    <contour>
      <point x="46" y="323" type="curve" smooth="yes"/>
      <point x="46" y="378"/>
      <point x="92" y="426"/>
      <point x="154" y="426" type="curve" smooth="yes"/>
      <point x="216" y="426"/>
      <point x="262" y="378"/>
      <point x="262" y="323" type="curve" smooth="yes"/>
      <point x="262" y="262"/>
      <point x="210" y="218"/>
      <point x="154" y="218" type="curve" smooth="yes"/>
      <point x="98" y="218"/>
      <point x="46" y="262"/>
    </contour>
    <contour>
      <point x="66" y="322" type="curve" smooth="yes"/>
      <point x="66" y="270"/>
      <point x="114" y="232"/>
      <point x="154" y="232" type="curve" smooth="yes"/>
      <point x="194" y="232"/>
      <point x="242" y="270"/>
      <point x="242" y="322" type="curve" smooth="yes"/>
      <point x="242" y="370"/>
      <point x="206" y="408"/>
      <point x="154" y="408" type="curve" smooth="yes"/>
      <point x="102" y="408"/>
      <point x="66" y="370"/>
    </contour>
    <contour>
      <point x="34" y="112" type="curve" smooth="yes"/>
      <point x="34" y="180"/>
      <point x="92" y="226"/>
      <point x="154" y="226" type="curve" smooth="yes"/>
      <point x="216" y="226"/>
      <point x="274" y="180"/>
      <point x="274" y="112" type="curve" smooth="yes"/>
      <point x="274" y="47"/>
      <point x="229" y="-6"/>
      <point x="154" y="-6" type="curve" smooth="yes"/>
      <point x="79" y="-6"/>
      <point x="34" y="47"/>
    </contour>
    <contour>
      <point x="52" y="114" type="curve" smooth="yes"/>
      <point x="52" y="54"/>
      <point x="93" y="12"/>
      <point x="154" y="12" type="curve" smooth="yes"/>
      <point x="215" y="12"/>
      <point x="256" y="54"/>
      <point x="256" y="114" type="curve" smooth="yes"/>
      <point x="256" y="172"/>
      <point x="204" y="214"/>
      <point x="154" y="214" type="curve" smooth="yes"/>
      <point x="104" y="214"/>
      <point x="52" y="172"/>
    </contour>
  </outline>
</glyph>
<glyph name="uni2150" format="2">
  <advance width="842"/>
  <unicode hex="2150"/>
  <outline>
    <contour>
      <point x="605" y="700" type="line"/>
      <point x="633" y="700" type="line"/>
      <point x="76" y="0" type="line"/>
      <point x="48" y="0" type="line"/>
    </contour>
    <contour>
      <point x="24" y="650" type="line"/>
      <point x="24" y="670" type="line"/>
      <point x="142" y="698" type="line"/>
      <point x="142" y="274" type="line"/>
      <point x="123" y="274" type="line"/>
      <point x="123" y="674" type="line"/>
    </contour>
    <contour>
      <point x="522" y="402" type="line"/>
      <point x="522" y="420" type="line"/>
      <point x="807" y="420" type="line"/>
      <point x="592" y="0" type="line"/>
      <point x="570" y="0" type="line"/>
      <point x="778" y="402" type="line"/>
    </contour>
  </outline>
</glyph>
<glyph name="uni2152" format="2">
  <advance width="1080"/>
  <unicode hex="2152"/>
  <outline>
    <contour>
      <point x="605" y="700" type="line"/>
      <point x="633" y="700" type="line"/>
      <point x="76" y="0" type="line"/>
      <point x="48" y="0" type="line"/>
    </contour>
    <contour>
      <point x="24" y="650" type="line"/>
      <point x="24" y="670" type="line"/>
      <point x="142" y="698" type="line"/>
      <point x="142" y="274" type="line"/>
      <point x="123" y="274" type="line"/>
      <point x="123" y="674" type="line"/>
    </contour>
    <contour>
      <point x="450" y="376" type="line"/>
      <point x="450" y="398" type="line"/>
      <point x="568" y="425" type="line"/>
      <point x="568" y="1" type="line"/>
      <point x="549" y="1" type="line"/>
      <point x="549" y="401" type="line"/>
    </contour>
    <contour>
      <point x="762" y="210" type="curve" smooth="yes"/>
      <point x="762" y="102"/>
      <point x="805" y="12"/>
      <point x="880" y="12" type="curve" smooth="yes"/>
      <point x="955" y="12"/>
      <point x="1000" y="102"/>
      <point x="1000" y="210" type="curve" smooth="yes"/>
      <point x="1000" y="318"/>
      <point x="955" y="408"/>
      <point x="880" y="408" type="curve" smooth="yes"/>
      <point x="805" y="408"/>
      <point x="762" y="318"/>
    </contour>
    <contour>
      <point x="742" y="210" type="curve" smooth="yes"/>
      <point x="742" y="331"/>
      <point x="794" y="426"/>
      <point x="880" y="426" type="curve" smooth="yes"/>
      <point x="966" y="426"/>
      <point x="1020" y="331"/>
      <point x="1020" y="210" type="curve" smooth="yes"/>
      <point x="1020" y="89"/>
      <point x="966" y="-6"/>
      <point x="880" y="-6" type="curve" smooth="yes"/>
      <point x="794" y="-6"/>
      <point x="742" y="89"/>
    </contour>
  </outline>
</glyph>
<glyph name="onethird" format="2">
  <advance width="755"/>
  <unicode hex="2153"/>
  <outline>
    <contour>
      <point x="605" y="700" type="line"/>
      <point x="633" y="700" type="line"/>
      <point x="76" y="0" type="line"/>
      <point x="48" y="0" type="line"/>
    </contour>
    <contour>
      <point x="24" y="650" type="line"/>
      <point x="24" y="670" type="line"/>
      <point x="142" y="698" type="line"/>
      <point x="142" y="274" type="line"/>
      <point x="123" y="274" type="line"/>
      <point x="123" y="674" type="line"/>
    </contour>
    <contour>
      <point x="578" y="214" type="curve"/>
      <point x="578" y="228" type="line"/>
      <point x="632" y="228"/>
      <point x="692" y="262"/>
      <point x="692" y="318" type="curve" smooth="yes"/>
      <point x="692" y="365"/>
      <point x="660" y="408"/>
      <point x="600" y="408" type="curve" smooth="yes"/>
      <point x="543" y="408"/>
      <point x="504" y="370"/>
      <point x="504" y="316" type="curve"/>
      <point x="484" y="316" type="line"/>
      <point x="484" y="381"/>
      <point x="531" y="426"/>
      <point x="600" y="426" type="curve" smooth="yes"/>
      <point x="672" y="426"/>
      <point x="711" y="373"/>
      <point x="711" y="318" type="curve" smooth="yes"/>
      <point x="711" y="255"/>
      <point x="646" y="214"/>
    </contour>
    <contour>
      <point x="596" y="-6" type="curve" smooth="yes"/>
      <point x="515" y="-6"/>
      <point x="466" y="46"/>
      <point x="466" y="111" type="curve"/>
      <point x="486" y="111" type="line"/>
      <point x="486" y="54"/>
      <point x="527" y="12"/>
      <point x="596" y="12" type="curve" smooth="yes"/>
      <point x="661" y="12"/>
      <point x="704" y="52"/>
      <point x="704" y="108" type="curve" smooth="yes"/>
      <point x="704" y="176"/>
      <point x="632" y="210"/>
      <point x="578" y="210" type="curve"/>
      <point x="578" y="223" type="line"/>
      <point x="646" y="223"/>
      <point x="723" y="186"/>
      <point x="723" y="107" type="curve" smooth="yes"/>
      <point x="723" y="40"/>
      <point x="671" y="-6"/>
    </contour>
  </outline>
</glyph>
<glyph name="uni2158" format="2">
  <advance width="866"/>
  <unicode hex="2158"/>
  <outline>
    <contour>
      <point x="727" y="700" type="line"/>
      <point x="755" y="700" type="line"/>
      <point x="198" y="0" type="line"/>
      <point x="170" y="0" type="line"/>
    </contour>
    <contour>
      <point x="34" y="364" type="line"/>
      <point x="50" y="382" type="line"/>
      <point x="259" y="382" type="line" smooth="yes"/>
      <point x="264" y="382" type="line" smooth="yes"/>
      <point x="336" y="382" type="line"/>
      <point x="336" y="364" type="line"/>
    </contour>
    <contour>
      <point x="54" y="364" type="line"/>
      <point x="34" y="364" type="line"/>
      <point x="264" y="700" type="line"/>
      <point x="272" y="700" type="line"/>
      <point x="272" y="280" type="line"/>
      <point x="251" y="280" type="line"/>
      <point x="251" y="372" type="line" smooth="yes"/>
      <point x="251" y="375" type="line" smooth="yes"/>
      <point x="251" y="652" type="line"/>
    </contour>
    <contour>
      <point x="814" y="136" type="curve" smooth="yes"/>
      <point x="814" y="41"/>
      <point x="753" y="-8"/>
      <point x="676" y="-8" type="curve" smooth="yes"/>
      <point x="608" y="-8"/>
      <point x="568" y="28"/>
      <point x="544" y="80" type="curve"/>
      <point x="560" y="91" type="line"/>
      <point x="581" y="43"/>
      <point x="618" y="10"/>
      <point x="676" y="10" type="curve" smooth="yes"/>
      <point x="744" y="10"/>
      <point x="794" y="55"/>
      <point x="794" y="136" type="curve" smooth="yes"/>
      <point x="794" y="204"/>
      <point x="747" y="252"/>
      <point x="687" y="252" type="curve" smooth="yes"/>
      <point x="639" y="252"/>
      <point x="602" y="232"/>
      <point x="568" y="194" type="curve"/>
      <point x="584" y="220" type="line"/>
      <point x="605" y="248"/>
      <point x="646" y="270"/>
      <point x="694" y="270" type="curve" smooth="yes"/>
      <point x="762" y="270"/>
      <point x="814" y="215"/>
    </contour>
    <contour>
      <point x="638" y="400" type="line"/>
      <point x="594" y="224" type="line"/>
      <point x="568" y="194" type="line"/>
      <point x="624" y="418" type="line"/>
      <point x="822" y="418" type="line"/>
      <point x="822" y="400" type="line"/>
    </contour>
  </outline>
</glyph>
<glyph name="uni2159" format="2">
  <advance width="734"/>
  <unicode hex="2159"/>
  <outline>
    <contour>
      <point x="605" y="700" type="line"/>
      <point x="633" y="700" type="line"/>
      <point x="76" y="0" type="line"/>
      <point x="48" y="0" type="line"/>
    </contour>
    <contour>
      <point x="24" y="650" type="line"/>
      <point x="24" y="670" type="line"/>
      <point x="142" y="698" type="line"/>
      <point x="142" y="274" type="line"/>
      <point x="123" y="274" type="line"/>
      <point x="123" y="674" type="line"/>
    </contour>
    <contour>
      <point x="446" y="132" type="curve" smooth="yes"/>
      <point x="446" y="62"/>
      <point x="494" y="10"/>
      <point x="562" y="10" type="curve" smooth="yes"/>
      <point x="630" y="10"/>
      <point x="677" y="62"/>
      <point x="677" y="132" type="curve" smooth="yes"/>
      <point x="677" y="198"/>
      <point x="626" y="248"/>
      <point x="566" y="248" type="curve" smooth="yes"/>
      <point x="491" y="248"/>
      <point x="446" y="194"/>
    </contour>
    <contour>
      <point x="595" y="418" type="line"/>
      <point x="620" y="418" type="line"/>
      <point x="478" y="221" type="line"/>
      <point x="477" y="222" type="line"/>
      <point x="499" y="250"/>
      <point x="532" y="264"/>
      <point x="572" y="264" type="curve" smooth="yes"/>
      <point x="640" y="264"/>
      <point x="696" y="205"/>
      <point x="696" y="132" type="curve" smooth="yes"/>
      <point x="696" y="50"/>
      <point x="643" y="-8"/>
      <point x="562" y="-8" type="curve" smooth="yes"/>
      <point x="481" y="-8"/>
      <point x="427" y="50"/>
      <point x="427" y="132" type="curve" smooth="yes"/>
      <point x="427" y="166"/>
      <point x="442" y="202"/>
      <point x="458" y="224" type="curve" smooth="yes"/>
    </contour>
  </outline>
</glyph>
